<svg width="375" height="353" viewBox="0 0 375 353" fill="none" xmlns="http://www.w3.org/2000/svg">
<g filter="url(#filter0_d_1931_50230)">
<path fill-rule="evenodd" clip-rule="evenodd" d="M355.445 136.161C349.805 142.523 342.772 147.771 334.783 151.576C362.463 154.708 383.194 183.071 382.999 200.138C382.999 232.9 361.331 264.184 325.022 264.184C314.907 264.19 304.927 262.091 295.86 258.05C286.792 254.009 278.882 248.136 272.746 240.888C269.271 277.24 226.443 290.999 193.648 290.999C151.679 291.14 121.578 265.592 111.662 244.231C101.833 256.657 87.0679 265.188 70.4381 268.051C53.8083 270.913 36.5943 267.887 22.3773 259.6C8.16028 251.314 -1.9651 238.407 -5.89236 223.562C-9.81963 208.718 -7.2464 193.081 1.29202 179.904C-12.7059 174.594 -24.2362 165.085 -31.3445 152.988C-38.4528 140.891 -40.7018 126.951 -37.7101 113.531C-34.7185 100.11 -26.6703 88.0349 -14.9299 79.3517C-3.18939 70.6686 11.521 65.9118 26.7079 65.8877V63.2133C26.7045 50.8068 31.0185 38.7119 39.0425 28.6316C47.0665 18.5514 58.3962 10.9936 71.4363 7.02256C84.4764 3.05153 98.5699 2.86729 111.732 6.49578C124.895 10.1243 136.463 17.3827 144.808 27.249C152.075 17.0512 162.635 9.10575 175.065 4.48261C187.495 -0.14052 201.198 -1.21924 214.329 1.39174C227.46 4.00272 239.388 10.178 248.506 19.0859C257.625 27.9937 263.496 39.2063 265.328 51.2134C272.633 46.4197 280.955 43.0336 289.775 41.2663C298.595 39.4991 307.725 39.3886 316.594 40.9417C325.464 42.4947 333.884 45.6781 341.329 50.2934C348.773 54.9086 355.083 60.8567 359.866 67.7668C364.648 74.6769 367.799 82.4009 369.124 90.4572C370.448 98.5135 369.917 106.729 367.564 114.593C365.21 122.456 361.085 129.798 355.445 136.161ZM282 294C291.389 294 299 286.388 299 277C299 267.611 291.389 260 282 260C272.611 260 265 267.611 265 277C265 286.388 272.611 294 282 294ZM284 315C284 322.179 278.18 328 271 328C263.82 328 258 322.179 258 315C258 307.82 263.82 302 271 302C278.18 302 284 307.82 284 315ZM245 340C248.866 340 252 336.866 252 333C252 329.134 248.866 326 245 326C241.134 326 238 329.134 238 333C238 336.866 241.134 340 245 340Z" fill="white"/>
</g>
<defs>
<filter id="filter0_d_1931_50230" x="-43.4263" y="-0.000488281" width="430.853" height="352.172" filterUnits="userSpaceOnUse" color-interpolation-filters="sRGB">
<feFlood flood-opacity="0" result="BackgroundImageFix"/>
<feColorMatrix in="SourceAlpha" type="matrix" values="0 0 0 0 0 0 0 0 0 0 0 0 0 0 0 0 0 0 127 0" result="hardAlpha"/>
<feOffset dy="7.74603"/>
<feGaussianBlur stdDeviation="2.21315"/>
<feComposite in2="hardAlpha" operator="out"/>
<feColorMatrix type="matrix" values="0 0 0 0 0 0 0 0 0 0 0 0 0 0 0 0 0 0 0.09 0"/>
<feBlend mode="normal" in2="BackgroundImageFix" result="effect1_dropShadow_1931_50230"/>
<feBlend mode="normal" in="SourceGraphic" in2="effect1_dropShadow_1931_50230" result="shape"/>
</filter>
</defs>
</svg>
