<svg width="375" height="431" viewBox="0 0 375 431" fill="none" xmlns="http://www.w3.org/2000/svg">
<g filter="url(#filter0_d_1931_49945)">
<path fill-rule="evenodd" clip-rule="evenodd" d="M357.136 174.688C350.614 182.851 342.48 189.584 333.242 194.465C365.251 198.483 389.224 234.872 388.998 256.768C388.998 298.8 363.942 338.936 321.955 338.936C310.258 338.944 298.717 336.251 288.231 331.066C277.746 325.882 268.599 318.348 261.503 309.049C257.484 355.686 207.958 373.338 170.034 373.338C121.501 373.519 86.6923 340.742 75.2249 313.338C63.859 329.279 46.7847 340.224 27.554 343.897C8.32337 347.57 -11.5828 343.687 -28.0234 333.056C-44.4639 322.425 -56.1729 305.865 -60.7144 286.821C-65.2559 267.777 -62.2802 247.715 -52.4064 230.809C-68.5935 223.997 -81.9272 211.797 -90.1472 196.277C-98.3673 180.758 -100.968 162.873 -97.5084 145.655C-94.0489 128.437 -84.742 112.945 -71.1653 101.805C-57.5887 90.6651 -40.5776 84.5623 -23.0155 84.5314V81.1003C-23.0195 65.1833 -18.0308 49.6661 -8.75183 36.7336C0.5271 23.8011 13.6288 14.1049 28.7083 9.01024C43.7879 3.9156 60.0856 3.67922 75.3065 8.3344C90.5275 12.9896 103.905 22.3018 113.555 34.9597C121.959 21.8766 134.17 11.6829 148.544 5.75161C162.918 -0.179655 178.765 -1.5636 193.949 1.78617C209.134 5.13593 222.927 13.0585 233.472 24.4869C244.016 35.9152 250.805 50.3004 252.925 65.705C261.372 59.5548 270.995 55.2107 281.195 52.9434C291.394 50.6761 301.952 50.5343 312.209 52.5268C322.466 54.5194 332.202 58.6035 340.811 64.5246C349.42 70.4457 356.717 78.0769 362.247 86.9422C367.777 95.8076 371.422 105.717 372.953 116.053C374.485 126.389 373.871 136.929 371.149 147.017C368.428 157.106 363.658 166.525 357.136 174.688ZM273 371C282.389 371 290 363.389 290 354C290 344.611 282.389 337 273 337C263.611 337 256 344.611 256 354C256 363.389 263.611 371 273 371ZM273 390C273 397.18 267.18 403 260 403C252.82 403 247 397.18 247 390C247 382.82 252.82 377 260 377C267.18 377 273 382.82 273 390ZM240 418C243.866 418 247 414.866 247 411C247 407.134 243.866 404 240 404C236.134 404 233 407.134 233 411C233 414.866 236.134 418 240 418Z" fill="white"/>
</g>
<defs>
<filter id="filter0_d_1931_49945" x="-103.426" y="0" width="496.853" height="430.172" filterUnits="userSpaceOnUse" color-interpolation-filters="sRGB">
<feFlood flood-opacity="0" result="BackgroundImageFix"/>
<feColorMatrix in="SourceAlpha" type="matrix" values="0 0 0 0 0 0 0 0 0 0 0 0 0 0 0 0 0 0 127 0" result="hardAlpha"/>
<feOffset dy="7.74603"/>
<feGaussianBlur stdDeviation="2.21315"/>
<feComposite in2="hardAlpha" operator="out"/>
<feColorMatrix type="matrix" values="0 0 0 0 0 0 0 0 0 0 0 0 0 0 0 0 0 0 0.09 0"/>
<feBlend mode="normal" in2="BackgroundImageFix" result="effect1_dropShadow_1931_49945"/>
<feBlend mode="normal" in="SourceGraphic" in2="effect1_dropShadow_1931_49945" result="shape"/>
</filter>
</defs>
</svg>
