<svg width="214" height="157" viewBox="0 0 214 157" fill="none" xmlns="http://www.w3.org/2000/svg">
<path d="M96.0966 32.2291C102.733 34.6592 110.704 29.5513 113.898 20.8156C117.092 12.08 114.304 3.03455 107.668 0.60454C101.032 -1.82547 93.0608 3.28926 89.8598 12.018C86.6588 20.7468 89.4605 29.7991 96.0966 32.2291Z" fill="white"/>
<path d="M70.8671 46.1548C77.8061 45.549 82.7969 37.6601 82.0053 28.5251C81.2136 19.3902 74.9493 12.4719 68.0034 13.0708C61.0576 13.6697 56.0736 21.538 56.8928 30.7004C57.712 39.8629 63.9213 46.7537 70.8671 46.1548Z" fill="white"/>
<path d="M124.947 45.8455C131.039 49.4251 139.795 45.8455 144.511 37.812C149.226 29.7785 148.097 20.3957 141.998 16.8092C135.899 13.2227 127.143 16.8092 122.434 24.8496C117.726 32.89 118.848 42.2659 124.947 45.8455Z" fill="white"/>
<path d="M157.586 55.3461C153.634 49.6118 144.307 49.1505 136.755 54.3617C129.203 59.5728 126.278 68.4254 130.229 74.1666C134.18 79.9078 143.501 80.3621 151.06 75.1579C158.618 69.9537 161.523 61.0941 157.586 55.3461Z" fill="white"/>
<path fill-rule="evenodd" clip-rule="evenodd" d="M107.951 44.0489C110.371 45.1991 112.467 46.9343 114.049 49.0977C115.63 51.2611 116.648 53.7845 117.01 56.4399C117.306 58.7821 117.435 61.1424 117.395 63.5028C117.395 66.4009 117.395 69.0788 118.215 71.5707C118.586 72.741 119.674 74.0214 120.968 75.5496C124.548 79.7557 129.69 85.8066 125.484 96.3803C121.436 106.548 108.997 110.513 99.1049 105.846C95.5658 104.097 92.2704 101.894 89.3022 99.2922L88.4004 98.5556C96.8263 98.3628 106.037 96.6281 107.483 88.1127C107.545 87.7479 107.62 87.3555 107.703 86.9494C108.137 84.7327 108.673 81.9723 107.483 80.3408C106.643 79.1912 104.55 79.2945 102.416 79.3977C100.482 79.4872 98.5197 79.5836 97.4389 78.7506C95.9658 77.3326 95.6078 75.646 95.2499 73.9319C94.6166 70.9374 93.9695 67.8259 87.3816 65.8158C74.1783 61.7818 63.288 70.4555 57.3609 82.6469C53.802 77.0572 53.0516 69.9117 56.4178 63.7919C61.925 53.8241 69.8414 53.948 75.3692 54.0306C77.3655 54.0306 79.0452 54.0925 80.1879 53.6313C82.6179 52.6538 84.69 50.9672 86.941 49.1361C88.7372 47.6038 90.6396 46.2006 92.634 44.937C94.9136 43.5317 97.5067 42.7148 100.18 42.5598C102.854 42.4048 105.524 42.9165 107.951 44.0489Z" fill="white"/>
<path d="M1.34536 154.511C0.471589 153.592 -0.0107646 152.369 0.000182333 151.101V131.273C0.000182333 129.718 0.435611 128.468 1.30648 127.522C1.73556 127.059 2.25885 126.694 2.84102 126.452C3.42318 126.209 4.05067 126.094 4.68111 126.114H13.4092C15.4405 126.078 17.4475 126.559 19.2409 127.514C20.8883 128.393 22.2606 129.71 23.2065 131.32C24.1494 132.949 24.6356 134.803 24.6139 136.685C24.5491 139.505 23.6419 141.838 21.8924 143.683C20.1429 145.529 17.7895 146.633 14.8322 146.996C14.2407 147.075 13.6445 147.116 13.0477 147.116H9.37757V151.183C9.39819 151.825 9.28355 152.464 9.04108 153.059C8.79861 153.653 8.43375 154.191 7.97019 154.635C7.54742 155.067 7.04055 155.408 6.48087 155.637C5.92118 155.866 5.32057 155.977 4.71609 155.965C4.08374 155.972 3.45691 155.846 2.87623 155.596C2.29556 155.345 1.774 154.976 1.34536 154.511ZM9.38146 138.901H13.1449C13.7384 138.896 14.3069 138.661 14.732 138.247C15.1571 137.833 15.406 137.27 15.427 136.677C15.4304 136.387 15.3738 136.099 15.2607 135.831C15.1476 135.564 14.9806 135.322 14.77 135.122C14.3337 134.702 13.7508 134.467 13.1449 134.469H9.39701L9.38146 138.901Z" fill="white"/>
<path d="M33.2416 133.304C33.8998 133.157 34.57 133.071 35.2439 133.047C36.1695 133.02 37.0912 133.179 37.9536 133.517C38.8161 133.854 39.6016 134.362 40.263 135.01V135.127L44.0109 133.129C44.348 132.913 44.7421 132.803 45.1422 132.814C45.4502 132.808 45.7557 132.871 46.0367 132.997C46.3176 133.123 46.5672 133.31 46.7673 133.545C47.311 134.079 47.7395 134.719 48.0264 135.425C48.3132 136.131 48.4524 136.888 48.4352 137.65V151.401C48.4577 152.005 48.3565 152.607 48.1379 153.169C47.9193 153.732 47.5878 154.245 47.1639 154.675C46.747 155.094 46.2486 155.423 45.6996 155.641C45.1507 155.86 44.5627 155.964 43.972 155.946L40.263 153.843V154.041C39.0319 155.337 37.3718 155.985 35.2827 155.985C34.4997 155.975 33.719 155.896 32.9501 155.748C31.6594 155.483 30.4376 154.953 29.3616 154.193C28.1551 153.351 27.1239 152.283 26.3252 151.047C25.7448 150.077 25.3037 149.03 25.015 147.937C24.7079 146.706 24.5616 145.439 24.5796 144.17C24.6563 142.411 25.1056 140.688 25.8976 139.116C26.6413 137.625 27.703 136.315 29.0078 135.279C30.239 134.288 31.6917 133.611 33.2416 133.304ZM33.576 144.749C33.5619 145.632 33.8484 146.493 34.3885 147.191C34.6493 147.532 34.986 147.809 35.372 147.998C35.758 148.187 36.1826 148.283 36.6124 148.279C37.1451 148.279 37.6674 148.131 38.1208 147.852C38.6071 147.556 38.9984 147.127 39.2483 146.615C39.4717 146.262 39.615 145.864 39.6682 145.449C39.6915 145.146 39.7071 144.722 39.7071 144.182C39.5088 142.821 38.8867 141.899 37.8409 141.425C37.4476 141.225 37.0145 141.116 36.5735 141.106C36.2228 141.101 35.8747 141.167 35.5505 141.301C35.2263 141.434 34.9328 141.633 34.6879 141.884C34.1329 142.468 33.7729 143.209 33.6576 144.007C33.6576 144.139 33.6343 144.255 33.6265 144.353C33.6188 144.45 33.6032 144.59 33.576 144.749Z" fill="white"/>
<path d="M52.5419 133.128C53.1833 133.13 53.8187 133.252 54.4158 133.486C55.0132 133.713 55.5572 134.061 56.0137 134.509C56.4437 134.922 56.7758 135.427 56.9856 135.986L59.3183 142.731L61.2428 137.117C62.181 134.38 63.6675 133.012 65.7021 133.012C66.2567 133.029 66.8057 133.129 67.3311 133.307C68.0327 133.525 68.6582 133.938 69.135 134.497C69.7373 135.28 70.1882 136.169 70.4647 137.117L72.3697 142.731L74.7296 135.986C74.9321 135.429 75.2607 134.926 75.6899 134.516C76.1425 134.072 76.679 133.721 77.2683 133.486C77.8682 133.247 78.5083 133.126 79.1539 133.128C79.7881 133.175 80.4073 133.344 80.9773 133.626C81.7273 133.98 82.3581 134.545 82.7929 135.251C83.2416 135.985 83.4721 136.832 83.4577 137.693C83.4599 138.477 83.276 139.252 82.9212 139.951L76.7007 152.668C75.6976 154.742 74.2099 155.779 72.2375 155.779C71.3715 155.744 70.5358 155.45 69.8387 154.935C69.0919 154.371 68.5148 153.613 68.1708 152.742L65.8109 146.911L63.4511 152.742C63.2345 153.329 62.9116 153.871 62.4985 154.34C62.1101 154.777 61.6381 155.131 61.1106 155.382C60.5878 155.627 60.0197 155.759 59.4427 155.771C58.5301 155.792 57.6321 155.539 56.8651 155.044C56.0339 154.435 55.3771 153.619 54.9601 152.676L48.7396 139.959C48.3831 139.258 48.1866 138.487 48.1642 137.7C48.1579 136.849 48.3924 136.014 48.8407 135.29C49.2766 134.567 49.9182 133.99 50.6835 133.634C51.2638 133.345 51.8953 133.173 52.5419 133.128Z" fill="white"/>
<path d="M85.4547 154.511C84.5798 153.592 84.0961 152.37 84.1056 151.101V131.273C84.1056 129.718 84.5423 128.468 85.4158 127.522C85.8438 127.059 86.3663 126.694 86.9479 126.451C87.5296 126.208 88.1566 126.093 88.7865 126.114H97.5069C99.5381 126.078 101.545 126.56 103.339 127.514C104.988 128.391 106.362 129.709 107.308 131.32C108.251 132.949 108.737 134.803 108.715 136.685C108.648 139.505 107.741 141.838 105.994 143.683C104.247 145.529 101.892 146.633 98.9298 146.996C98.3383 147.076 97.7422 147.116 97.1453 147.116H93.4752V151.183C93.4952 151.824 93.3799 152.462 93.1367 153.056C92.8935 153.649 92.528 154.185 92.0639 154.627C91.6412 155.06 91.1343 155.401 90.5746 155.629C90.0149 155.858 89.4143 155.97 88.8098 155.957C88.1806 155.964 87.5568 155.839 86.9789 155.59C86.401 155.34 85.8818 154.973 85.4547 154.511ZM93.4869 138.901H97.2386C97.832 138.897 98.4006 138.662 98.8253 138.248C99.25 137.833 99.4978 137.271 99.5169 136.677C99.52 136.387 99.4637 136.1 99.3514 135.832C99.239 135.565 99.0731 135.323 98.8637 135.122C98.4274 134.702 97.8446 134.468 97.2386 134.469H93.4869V138.901Z" fill="white"/>
<path d="M111.373 154.705C110.938 154.284 110.594 153.778 110.362 153.218C110.13 152.658 110.015 152.057 110.024 151.451V127.926C110.021 127.143 110.235 126.375 110.642 125.706C111.051 125.018 111.633 124.449 112.33 124.056C113.027 123.662 113.815 123.458 114.615 123.463C115.404 123.472 116.175 123.695 116.847 124.108C117.516 124.512 118.07 125.083 118.453 125.765C118.843 126.447 119.046 127.221 119.04 128.008V151.401C119.063 152.002 118.963 152.602 118.747 153.163C118.53 153.725 118.2 154.236 117.779 154.665C117.357 155.094 116.852 155.433 116.295 155.66C115.737 155.887 115.139 155.997 114.538 155.985C113.952 155.99 113.371 155.88 112.828 155.66C112.285 155.441 111.791 155.116 111.373 154.705Z" fill="white"/>
<path d="M129.683 133.303C130.341 133.155 131.011 133.07 131.685 133.046C132.611 133.019 133.533 133.178 134.395 133.516C135.258 133.853 136.043 134.361 136.704 135.009V135.126L140.452 133.124C140.789 132.908 141.184 132.798 141.584 132.809C141.892 132.803 142.197 132.866 142.478 132.992C142.759 133.119 143.009 133.306 143.209 133.54C143.752 134.074 144.181 134.714 144.468 135.42C144.755 136.126 144.894 136.883 144.877 137.645V151.4C144.899 152.004 144.798 152.606 144.579 153.168C144.361 153.731 144.029 154.244 143.605 154.674C143.188 155.093 142.69 155.422 142.141 155.64C141.592 155.859 141.004 155.963 140.413 155.945L136.704 153.842V154.04C135.471 155.336 133.811 155.984 131.724 155.984C130.941 155.974 130.16 155.895 129.391 155.747C128.101 155.482 126.879 154.952 125.803 154.192C124.597 153.35 123.565 152.282 122.767 151.046C122.186 150.076 121.745 149.029 121.456 147.936C121.149 146.705 121.003 145.438 121.021 144.169C121.098 142.41 121.547 140.687 122.339 139.115C123.083 137.624 124.144 136.314 125.449 135.278C126.68 134.287 128.133 133.61 129.683 133.303ZM130.017 144.748C130.003 145.631 130.29 146.492 130.83 147.19C131.09 147.532 131.427 147.808 131.813 147.997C132.199 148.186 132.624 148.283 133.054 148.278C133.587 148.278 134.109 148.13 134.562 147.851C135.049 147.555 135.44 147.126 135.69 146.614C135.913 146.261 136.056 145.863 136.11 145.448C136.133 145.145 136.148 144.721 136.148 144.181C135.95 142.82 135.328 141.898 134.282 141.424C133.889 141.224 133.456 141.115 133.015 141.105C132.664 141.1 132.316 141.166 131.992 141.3C131.668 141.433 131.374 141.632 131.129 141.883C130.573 142.466 130.212 143.208 130.099 144.006C130.099 144.138 130.076 144.254 130.068 144.352C130.06 144.449 130.045 144.589 130.017 144.748Z" fill="white"/>
<path d="M149.161 151.253C147.694 149.31 146.895 146.945 146.883 144.511C146.906 143.242 147.161 141.987 147.637 140.81C148.115 139.581 148.791 138.438 149.639 137.428C150.169 136.827 150.753 136.276 151.385 135.783C152.432 134.996 153.606 134.395 154.857 134.006C156.22 133.602 157.637 133.406 159.059 133.423C159.708 133.414 160.357 133.44 161.003 133.501C165.529 133.962 167.79 135.814 167.788 139.057C167.657 139.983 167.182 140.825 166.458 141.417C165.694 142.023 164.739 142.339 163.764 142.307C163.53 142.304 163.297 142.278 163.068 142.229L162.869 142.19L161.82 141.953L161.283 141.833L160.432 141.654C160.071 141.591 159.705 141.565 159.339 141.576C158.41 141.528 157.5 141.845 156.801 142.458C156.481 142.761 156.23 143.13 156.066 143.538C155.901 143.947 155.827 144.386 155.848 144.826C155.867 145.355 156.016 145.87 156.284 146.327C156.573 146.763 156.96 147.125 157.415 147.384C157.965 147.693 158.588 147.851 159.219 147.843C159.652 147.837 160.083 147.797 160.51 147.723H160.626L162.057 147.384C162.569 147.277 163.089 147.212 163.612 147.19C164.185 147.161 164.757 147.251 165.293 147.456C165.828 147.661 166.315 147.976 166.722 148.38C167.484 149.173 167.865 150.263 167.865 151.649C167.751 152.512 167.353 153.312 166.734 153.924C165.931 154.656 164.954 155.171 163.896 155.42C162.38 155.81 160.818 155.99 159.254 155.957C157.236 155.956 155.24 155.533 153.395 154.717C151.707 153.948 150.248 152.755 149.161 151.253Z" fill="white"/>
<path d="M192.9 143.124C192.9 144.446 192.612 145.375 192.044 145.919C191.477 146.463 190.532 146.732 189.21 146.732H178.635C178.866 147.004 179.112 147.263 179.37 147.509C179.706 147.772 180.076 147.989 180.47 148.154C180.929 148.321 181.405 148.434 181.889 148.493C182.606 148.586 183.328 148.629 184.051 148.621C185.105 148.539 186.147 148.346 187.161 148.046C187.829 147.857 188.514 147.737 189.206 147.688C189.674 147.665 190.142 147.736 190.583 147.896C191.024 148.057 191.428 148.303 191.772 148.621C192.085 148.916 192.332 149.273 192.498 149.67C192.664 150.066 192.745 150.493 192.736 150.923C192.745 151.184 192.717 151.446 192.655 151.7C192.516 152.19 192.284 152.648 191.97 153.049C191.628 153.474 191.212 153.833 190.742 154.111C190.057 154.5 189.336 154.822 188.588 155.071C187.445 155.415 186.274 155.661 185.089 155.806C184.202 155.915 183.308 155.968 182.414 155.965C180.564 155.987 178.724 155.695 176.971 155.102C175.411 154.576 173.972 153.743 172.737 152.653C171.581 151.621 170.666 150.347 170.059 148.92C169.443 147.443 169.134 145.856 169.149 144.255C169.188 142.776 169.528 141.321 170.148 139.978C170.753 138.645 171.615 137.445 172.687 136.448C173.793 135.436 175.082 134.644 176.485 134.116C178.006 133.539 179.621 133.25 181.248 133.264C183.364 133.261 185.445 133.797 187.297 134.819C188.371 135.439 189.338 136.226 190.163 137.152C190.955 138.034 191.61 139.03 192.106 140.107C192.561 141.052 192.831 142.077 192.9 143.124ZM178.717 142.307H183.553C183.556 142.177 183.543 142.046 183.514 141.918C183.317 140.623 182.399 139.968 180.758 139.955C179.794 140.192 179.137 140.861 178.814 141.961C178.764 142.071 178.731 142.188 178.717 142.307Z" fill="white"/>
<path d="M196.562 154.429C194.815 153.346 193.943 152.18 193.946 150.93C193.938 150.584 193.999 150.239 194.125 149.916C194.338 149.221 194.786 148.621 195.392 148.221C196.067 147.79 196.855 147.574 197.655 147.598C198.332 147.628 199 147.759 199.638 147.987L200.45 148.228L201.026 148.427C201.806 148.763 202.626 148.996 203.467 149.119H204.202C204.343 149.137 204.486 149.113 204.613 149.049C204.74 148.986 204.844 148.885 204.913 148.761C204.927 148.587 204.894 148.413 204.817 148.256C204.741 148.1 204.623 147.967 204.478 147.871C204.455 147.85 204.428 147.833 204.4 147.82L204.291 147.762L204.202 147.711L203.813 147.571L203.001 147.373L201.947 147.058L201.169 146.86C200.13 146.593 199.118 146.231 198.145 145.779C197.442 145.456 196.803 145.008 196.259 144.457C195.78 143.932 195.394 143.328 195.12 142.673C194.823 141.948 194.668 141.173 194.665 140.39C194.672 139.099 195.096 137.844 195.874 136.814C196.765 135.627 197.961 134.704 199.334 134.143C200.996 133.451 202.784 133.113 204.583 133.151C205.98 133.134 207.374 133.301 208.727 133.649C210.643 134.167 211.939 134.888 212.615 135.811C212.97 136.308 213.151 136.907 213.132 137.517C213.131 138.166 212.915 138.796 212.518 139.31C212.11 139.858 211.518 140.242 210.85 140.39C210.533 140.471 210.206 140.512 209.878 140.511C209.194 140.487 208.515 140.379 207.857 140.192L206.624 139.897L206.029 139.737L205.376 139.617C205.227 139.576 205.075 139.55 204.921 139.539C204.478 139.525 204.034 139.538 203.592 139.578L203.51 139.66L203.393 139.776C203.314 139.841 203.264 139.935 203.253 140.037C203.253 140.208 203.393 140.39 203.669 140.589C203.718 140.613 203.765 140.64 203.809 140.67C203.854 140.7 203.901 140.726 203.949 140.748L204.338 140.888L204.933 141.086L206.36 141.561L207.371 141.86L208.265 142.179C209.222 142.498 210.129 142.951 210.959 143.524C211.803 144.096 212.495 144.864 212.976 145.763C213.457 146.661 213.712 147.664 213.719 148.683C213.719 150.757 212.799 152.528 210.959 153.998C209.256 155.374 206.975 156.062 204.116 156.062C203.747 156.062 203.152 156.035 202.332 155.984C199.901 155.78 197.978 155.261 196.562 154.429Z" fill="white"/>
</svg>
