<svg width="159" height="116" viewBox="0 0 159 116" fill="none" xmlns="http://www.w3.org/2000/svg">
<path d="M71.429 23.9559C76.3616 25.7621 82.2868 21.9655 84.661 15.4723C87.0352 8.97905 84.9629 2.25558 80.0303 0.449354C75.0977 -1.35687 69.1725 2.4449 66.7932 8.933C64.4139 15.4211 66.4964 22.1497 71.429 23.9559Z" fill="white"/>
<path d="M52.6753 34.3066C57.833 33.8563 61.5426 27.9925 60.9542 21.2025C60.3658 14.4125 55.7095 9.27017 50.5467 9.71533C45.3838 10.1605 41.6793 16.009 42.2882 22.8194C42.8971 29.6299 47.5124 34.7518 52.6753 34.3066Z" fill="white"/>
<path d="M92.8749 34.0768C97.4032 36.7376 103.912 34.0768 107.417 28.1055C110.922 22.1342 110.083 15.1601 105.549 12.4942C101.016 9.82836 94.5071 12.4942 91.0073 18.4706C87.5074 24.447 88.3414 31.4161 92.8749 34.0768Z" fill="white"/>
<path d="M117.135 41.1385C114.198 36.8762 107.264 36.5334 101.651 40.4068C96.0382 44.2802 93.8636 50.8604 96.8006 55.1278C99.7377 59.3952 106.666 59.733 112.284 55.8647C117.902 51.9964 120.062 45.4111 117.135 41.1385Z" fill="white"/>
<path fill-rule="evenodd" clip-rule="evenodd" d="M80.2409 32.7413C82.0401 33.5962 83.5979 34.8859 84.7736 36.494C85.9493 38.1021 86.7057 39.9777 86.9746 41.9515C87.1945 43.6924 87.2902 45.4468 87.2611 47.2013C87.2611 49.3555 87.2611 51.3459 87.87 53.1982C88.1463 54.068 88.9548 55.0198 89.9167 56.1557C92.5775 59.2821 96.3997 63.7797 93.2734 71.6391C90.2647 79.1966 81.0186 82.1439 73.6658 78.6747C71.0352 77.3752 68.5857 75.7376 66.3795 73.8035L65.7092 73.256C71.9721 73.1128 78.8184 71.8233 79.8929 65.4939C79.939 65.2227 79.9953 64.931 80.0567 64.6291C80.379 62.9815 80.7781 60.9297 79.8929 59.717C79.2687 58.8625 77.7132 58.9392 76.127 59.016C74.6892 59.0825 73.2309 59.1541 72.4275 58.535C71.3325 57.481 71.0665 56.2273 70.8004 54.9533C70.3297 52.7275 69.8487 50.4147 64.9519 48.9206C55.1379 45.9221 47.0431 52.3693 42.6376 61.4311C39.9922 57.2763 39.4345 51.9651 41.9366 47.4162C46.03 40.0071 51.9143 40.0992 56.0231 40.1606C57.507 40.1606 58.7555 40.2067 59.6049 39.8638C61.4111 39.1373 62.9512 37.8836 64.6244 36.5226C65.9595 35.3836 67.3736 34.3406 68.856 33.4013C70.5505 32.3568 72.4779 31.7496 74.4651 31.6344C76.4524 31.5192 78.4371 31.8995 80.2409 32.7413Z" fill="white"/>
<path d="M1.00001 114.847C0.350532 114.164 -0.00800132 113.255 0.000135528 112.312V97.5743C0.000135528 96.4184 0.323789 95.4888 0.971106 94.7856C1.29004 94.442 1.679 94.1708 2.11173 93.9903C2.54445 93.8098 3.01086 93.7243 3.47946 93.7395H9.96707C11.4769 93.7125 12.9687 94.0705 14.3018 94.7798C15.5262 95.4333 16.5463 96.4123 17.2494 97.609C17.9503 98.8201 18.3116 100.198 18.2955 101.597C18.2473 103.693 17.573 105.427 16.2726 106.799C14.9722 108.17 13.2229 108.991 11.0247 109.261C10.5851 109.32 10.142 109.35 9.69832 109.35H6.97034V112.373C6.98567 112.85 6.90045 113.325 6.72023 113.767C6.54 114.209 6.2688 114.609 5.92423 114.939C5.60999 115.26 5.23323 115.514 4.81722 115.684C4.40121 115.854 3.95477 115.937 3.50547 115.927C3.03544 115.933 2.56952 115.839 2.1379 115.653C1.70629 115.467 1.31861 115.192 1.00001 114.847ZM6.97324 103.244H9.77056C10.2117 103.24 10.6343 103.066 10.9503 102.758C11.2662 102.45 11.4513 102.032 11.4669 101.591C11.4694 101.375 11.4273 101.161 11.3433 100.962C11.2592 100.763 11.1351 100.584 10.9785 100.435C10.6542 100.123 10.221 99.9485 9.77056 99.9497H6.98479L6.97324 103.244Z" fill="white"/>
<path d="M24.7091 99.0829C25.1983 98.9737 25.6965 98.9099 26.1974 98.8922C26.8854 98.8719 27.5705 98.9906 28.2115 99.2414C28.8526 99.4922 29.4364 99.8697 29.9281 100.352V100.438L32.7139 98.9528C32.9645 98.7925 33.2574 98.711 33.5548 98.7188C33.7838 98.7146 34.0108 98.7611 34.2197 98.8551C34.4285 98.949 34.614 99.088 34.7627 99.2621C35.1669 99.6591 35.4854 100.135 35.6986 100.66C35.9118 101.184 36.0152 101.747 36.0025 102.314V112.535C36.0192 112.984 35.944 113.431 35.7815 113.849C35.619 114.268 35.3726 114.648 35.0575 114.968C34.7476 115.279 34.3772 115.524 33.9691 115.686C33.5611 115.849 33.124 115.926 32.685 115.913L29.9281 114.35V114.497C29.013 115.46 27.7791 115.942 26.2263 115.942C25.6442 115.935 25.064 115.876 24.4924 115.766C23.533 115.569 22.6249 115.175 21.8251 114.61C20.9283 113.984 20.1618 113.19 19.5682 112.272C19.1367 111.551 18.8089 110.773 18.5943 109.96C18.366 109.045 18.2572 108.103 18.2706 107.16C18.3277 105.852 18.6616 104.572 19.2503 103.403C19.8031 102.295 20.5922 101.321 21.5621 100.551C22.4773 99.8148 23.557 99.3111 24.7091 99.0829ZM24.9576 107.59C24.9471 108.246 25.1601 108.886 25.5616 109.405C25.7554 109.659 26.0057 109.865 26.2926 110.005C26.5795 110.145 26.8952 110.217 27.2146 110.214C27.6106 110.214 27.9988 110.104 28.3358 109.897C28.6973 109.677 28.9881 109.358 29.1739 108.978C29.3399 108.715 29.4464 108.419 29.486 108.111C29.5033 107.885 29.5149 107.57 29.5149 107.169C29.3675 106.157 28.9051 105.472 28.1278 105.12C27.8354 104.971 27.5135 104.89 27.1857 104.883C26.925 104.879 26.6663 104.928 26.4253 105.027C26.1843 105.127 25.9661 105.274 25.7841 105.461C25.3716 105.895 25.104 106.446 25.0183 107.039C25.0183 107.137 25.001 107.223 24.9952 107.296C24.9894 107.368 24.9779 107.472 24.9576 107.59Z" fill="white"/>
<path d="M39.0548 98.9529C39.5316 98.9544 40.0039 99.0445 40.4477 99.2188C40.8918 99.3875 41.2961 99.6463 41.6354 99.9788C41.955 100.286 42.2019 100.662 42.3578 101.077L44.0917 106.091L45.5222 101.918C46.2196 99.8834 47.3245 98.8662 48.8368 98.8662C49.249 98.879 49.6571 98.9531 50.0476 99.0858C50.5692 99.248 51.0341 99.5546 51.3885 99.9701C51.8361 100.552 52.1713 101.213 52.3768 101.918L53.7928 106.091L55.5469 101.077C55.6974 100.663 55.9417 100.289 56.2607 99.9846C56.5971 99.654 56.9959 99.3937 57.434 99.2188C57.8799 99.0414 58.3556 98.9512 58.8355 98.9529C59.3069 98.9876 59.7672 99.1132 60.1908 99.3228C60.7483 99.5861 61.2172 100.006 61.5404 100.531C61.8739 101.077 62.0452 101.706 62.0345 102.346C62.0362 102.929 61.8995 103.504 61.6357 104.025L57.012 113.477C56.2665 115.018 55.1606 115.789 53.6945 115.789C53.0508 115.763 52.4297 115.545 51.9115 115.162C51.3564 114.743 50.9275 114.179 50.6718 113.532L48.9177 109.197L47.1636 113.532C47.0026 113.968 46.7626 114.371 46.4556 114.72C46.1668 115.044 45.8161 115.307 45.4239 115.494C45.0354 115.676 44.6131 115.774 44.1842 115.783C43.5058 115.799 42.8384 115.611 42.2683 115.243C41.6504 114.79 41.1622 114.183 40.8523 113.483L36.2286 104.03C35.9636 103.509 35.8175 102.936 35.8009 102.351C35.7962 101.719 35.9705 101.098 36.3037 100.56C36.6277 100.022 37.1046 99.5936 37.6735 99.3286C38.1048 99.114 38.5742 98.9864 39.0548 98.9529Z" fill="white"/>
<path d="M63.5185 114.847C62.8682 114.164 62.5087 113.255 62.5157 112.312V97.5744C62.5157 96.4184 62.8403 95.4889 63.4896 94.7857C63.8077 94.4418 64.1961 94.1704 64.6284 93.9899C65.0607 93.8094 65.5268 93.724 65.995 93.7396H72.4769C73.9867 93.7126 75.4785 94.0706 76.8116 94.7799C78.0376 95.4322 79.0589 96.4115 79.7621 97.609C80.463 98.8201 80.8243 100.198 80.8082 101.597C80.7581 103.693 80.0838 105.427 78.7853 106.799C77.4868 108.17 75.7366 108.991 73.5345 109.261C73.0949 109.32 72.6518 109.35 72.2081 109.35H69.4801V112.373C69.495 112.85 69.4093 113.324 69.2285 113.765C69.0478 114.206 68.7761 114.604 68.4311 114.933C68.1169 115.255 67.7401 115.508 67.3241 115.678C66.9081 115.848 66.4617 115.931 66.0124 115.922C65.5446 115.927 65.081 115.834 64.6515 115.649C64.2219 115.463 63.836 115.19 63.5185 114.847ZM69.4888 103.244H72.2775C72.7186 103.241 73.1412 103.067 73.4569 102.759C73.7725 102.45 73.9567 102.032 73.9709 101.591C73.9733 101.376 73.9314 101.162 73.8479 100.963C73.7644 100.764 73.641 100.585 73.4854 100.435C73.1611 100.123 72.7279 99.9486 72.2775 99.9498H69.4888V103.244Z" fill="white"/>
<path d="M82.7805 114.991C82.457 114.678 82.2012 114.302 82.0287 113.886C81.8563 113.47 81.7708 113.023 81.7777 112.572V95.0861C81.7757 94.5042 81.9347 93.9331 82.2372 93.436C82.5412 92.9246 82.9738 92.5016 83.4919 92.2091C84.01 91.9166 84.5956 91.7647 85.1906 91.7686C85.7767 91.7755 86.35 91.9413 86.8493 92.2483C87.3469 92.5486 87.7581 92.9728 88.0428 93.4794C88.3333 93.9868 88.4839 94.5622 88.4792 95.1468V112.535C88.4966 112.982 88.4225 113.428 88.2613 113.845C88.1 114.262 87.8552 114.642 87.5418 114.961C87.2283 115.28 86.8529 115.532 86.4387 115.7C86.0244 115.869 85.58 115.951 85.1328 115.942C84.6975 115.946 84.2656 115.864 83.862 115.701C83.4584 115.538 83.0908 115.296 82.7805 114.991Z" fill="white"/>
<path d="M96.3927 99.0824C96.8819 98.9731 97.3801 98.9092 97.881 98.8916C98.569 98.8713 99.2541 98.9901 99.8951 99.2409C100.536 99.4916 101.12 99.8692 101.612 100.351V100.438L104.397 98.9494C104.648 98.7891 104.941 98.7076 105.238 98.7154C105.467 98.7112 105.694 98.7577 105.903 98.8517C106.112 98.9456 106.298 99.0846 106.446 99.2586C106.85 99.6556 107.169 100.131 107.382 100.656C107.595 101.181 107.699 101.744 107.686 102.31V112.534C107.703 112.983 107.628 113.43 107.465 113.849C107.303 114.267 107.056 114.648 106.741 114.968C106.431 115.279 106.061 115.523 105.653 115.686C105.245 115.848 104.808 115.926 104.369 115.913L101.612 114.349V114.497C100.695 115.46 99.4607 115.941 97.9099 115.941C97.3278 115.934 96.7476 115.875 96.176 115.765C95.2166 115.568 94.3085 115.175 93.5087 114.609C92.6119 113.984 91.8454 113.19 91.2517 112.271C90.8203 111.55 90.4925 110.772 90.2779 109.96C90.0496 109.044 89.9408 108.103 89.9542 107.159C90.0113 105.852 90.3452 104.571 90.9339 103.403C91.4867 102.294 92.2758 101.321 93.2457 100.55C94.1609 99.8142 95.2406 99.3106 96.3927 99.0824ZM96.6412 107.59C96.6307 108.246 96.8437 108.886 97.2452 109.405C97.4387 109.659 97.6889 109.865 97.9759 110.005C98.2629 110.146 98.5787 110.217 98.8982 110.214C99.2942 110.214 99.6824 110.104 100.019 109.896C100.381 109.676 100.672 109.357 100.857 108.977C101.024 108.714 101.13 108.418 101.17 108.11C101.187 107.885 101.198 107.57 101.198 107.168C101.051 106.157 100.589 105.472 99.8114 105.119C99.519 104.971 99.1971 104.89 98.8693 104.882C98.6086 104.878 98.3499 104.927 98.1089 105.027C97.8679 105.126 97.6497 105.274 97.4677 105.46C97.0539 105.893 96.7861 106.445 96.7019 107.038C96.7019 107.136 96.6846 107.223 96.6788 107.295C96.673 107.367 96.6615 107.471 96.6412 107.59Z" fill="white"/>
<path d="M110.873 112.424C109.783 110.981 109.188 109.223 109.18 107.413C109.197 106.47 109.387 105.537 109.74 104.662C110.095 103.749 110.598 102.899 111.229 102.148C111.622 101.701 112.057 101.292 112.526 100.926C113.304 100.341 114.177 99.8944 115.107 99.6052C116.12 99.305 117.173 99.1588 118.231 99.1718C118.713 99.1649 119.195 99.1842 119.675 99.2296C123.039 99.5725 124.72 100.949 124.718 103.359C124.621 104.047 124.268 104.674 123.73 105.113C123.162 105.564 122.452 105.799 121.727 105.775C121.553 105.773 121.38 105.754 121.21 105.717L121.063 105.688L120.282 105.512L119.884 105.422L119.251 105.289C118.983 105.243 118.711 105.223 118.439 105.232C117.748 105.196 117.071 105.432 116.552 105.888C116.314 106.113 116.128 106.387 116.005 106.69C115.883 106.994 115.828 107.321 115.844 107.648C115.857 108.04 115.968 108.424 116.167 108.763C116.382 109.087 116.67 109.356 117.008 109.549C117.417 109.779 117.88 109.896 118.349 109.89C118.671 109.886 118.992 109.856 119.308 109.8H119.395L120.459 109.549C120.839 109.47 121.226 109.421 121.615 109.405C122.04 109.383 122.466 109.45 122.864 109.603C123.262 109.755 123.624 109.989 123.926 110.289C124.493 110.878 124.776 111.688 124.776 112.719C124.691 113.36 124.395 113.955 123.935 114.41C123.338 114.954 122.612 115.337 121.825 115.522C120.699 115.812 119.538 115.946 118.375 115.921C116.875 115.92 115.392 115.606 114.02 114.999C112.766 114.428 111.681 113.541 110.873 112.424Z" fill="white"/>
<path d="M143.381 106.382C143.381 107.365 143.167 108.055 142.745 108.46C142.323 108.864 141.621 109.064 140.638 109.064H132.778C132.95 109.266 133.132 109.459 133.324 109.642C133.574 109.837 133.849 109.999 134.142 110.122C134.483 110.245 134.837 110.33 135.197 110.373C135.73 110.442 136.266 110.474 136.804 110.468C137.587 110.407 138.362 110.264 139.115 110.041C139.612 109.9 140.121 109.811 140.635 109.775C140.983 109.758 141.331 109.811 141.659 109.93C141.986 110.049 142.287 110.232 142.543 110.468C142.775 110.688 142.959 110.953 143.082 111.248C143.206 111.542 143.266 111.86 143.259 112.179C143.266 112.374 143.245 112.568 143.199 112.757C143.096 113.121 142.923 113.462 142.69 113.76C142.435 114.075 142.126 114.343 141.777 114.549C141.268 114.838 140.732 115.077 140.176 115.263C139.326 115.518 138.456 115.701 137.575 115.809C136.916 115.89 136.252 115.929 135.587 115.927C134.212 115.944 132.844 115.727 131.541 115.286C130.382 114.894 129.312 114.275 128.394 113.465C127.534 112.698 126.854 111.751 126.403 110.691C125.946 109.593 125.716 108.413 125.727 107.223C125.756 106.124 126.009 105.042 126.47 104.044C126.919 103.053 127.56 102.162 128.357 101.42C129.179 100.668 130.137 100.079 131.18 99.6865C132.311 99.2576 133.511 99.043 134.72 99.0536C136.293 99.0515 137.84 99.4493 139.217 100.21C140.015 100.67 140.734 101.255 141.346 101.943C141.935 102.599 142.422 103.339 142.791 104.14C143.129 104.843 143.329 105.604 143.381 106.382ZM132.839 105.775H136.434C136.435 105.678 136.426 105.581 136.405 105.486C136.258 104.523 135.575 104.037 134.356 104.027C133.639 104.203 133.151 104.7 132.911 105.518C132.874 105.6 132.849 105.686 132.839 105.775Z" fill="white"/>
<path d="M146.105 114.786C144.807 113.981 144.159 113.114 144.161 112.185C144.155 111.927 144.2 111.671 144.294 111.431C144.452 110.914 144.785 110.469 145.236 110.171C145.737 109.851 146.323 109.69 146.917 109.708C147.42 109.73 147.917 109.828 148.391 109.997L148.995 110.177L149.423 110.324C150.003 110.574 150.613 110.747 151.238 110.838H151.784C151.889 110.852 151.995 110.834 152.089 110.787C152.184 110.74 152.261 110.665 152.313 110.573C152.323 110.443 152.298 110.314 152.241 110.198C152.184 110.081 152.097 109.982 151.989 109.911C151.972 109.896 151.952 109.883 151.931 109.873L151.85 109.83L151.784 109.792L151.495 109.688L150.891 109.541L150.108 109.307L149.53 109.159C148.757 108.961 148.005 108.692 147.282 108.356C146.759 108.116 146.284 107.783 145.88 107.374C145.524 106.983 145.237 106.535 145.033 106.047C144.812 105.509 144.697 104.933 144.695 104.351C144.7 103.391 145.015 102.458 145.594 101.692C146.256 100.81 147.145 100.124 148.166 99.7069C149.401 99.1923 150.73 98.9413 152.067 98.97C153.106 98.9568 154.142 99.0811 155.148 99.3399C156.571 99.7252 157.535 100.261 158.037 100.947C158.301 101.316 158.436 101.762 158.422 102.215C158.421 102.697 158.26 103.166 157.965 103.547C157.662 103.955 157.222 104.24 156.725 104.351C156.489 104.411 156.247 104.441 156.003 104.44C155.494 104.422 154.99 104.343 154.5 104.203L153.584 103.984L153.142 103.865L152.657 103.776C152.546 103.745 152.433 103.726 152.319 103.718C151.989 103.707 151.659 103.717 151.33 103.747L151.27 103.808L151.183 103.894C151.124 103.943 151.087 104.012 151.079 104.088C151.079 104.215 151.183 104.351 151.388 104.498C151.424 104.516 151.459 104.536 151.492 104.559C151.525 104.581 151.56 104.6 151.596 104.617L151.885 104.721L152.327 104.868L153.388 105.221L154.139 105.443L154.804 105.68C155.515 105.917 156.189 106.254 156.806 106.68C157.434 107.105 157.948 107.676 158.306 108.344C158.663 109.012 158.853 109.757 158.858 110.515C158.858 112.056 158.174 113.373 156.806 114.465C155.541 115.488 153.845 116 151.72 116C151.446 116 151.004 115.979 150.394 115.942C148.587 115.79 147.157 115.404 146.105 114.786Z" fill="white"/>
</svg>
