<svg width="375" height="490" viewBox="0 0 375 490" fill="none" xmlns="http://www.w3.org/2000/svg">
<g opacity="0.32" filter="url(#filter0_d_1931_50151)">
<path d="M340.242 115.457C340.242 101.324 344.433 87.5089 352.285 75.7579C360.137 64.007 371.297 54.8482 384.354 49.4398C397.411 44.0314 411.778 42.6164 425.639 45.3735C439.501 48.1307 452.233 54.9363 462.226 64.9297C472.22 74.923 479.025 87.6554 481.783 101.517C484.54 115.378 483.125 129.745 477.716 142.802C472.308 155.859 463.149 167.019 451.398 174.871C439.647 182.723 425.832 186.914 411.699 186.914C392.754 186.892 374.591 179.357 361.195 165.961C347.799 152.565 340.264 134.402 340.242 115.457ZM176.913 237.954C176.913 223.821 172.722 210.006 164.871 198.255C157.019 186.504 145.859 177.345 132.802 171.937C119.745 166.528 105.377 165.113 91.5161 167.87C77.6549 170.628 64.9226 177.433 54.9292 187.427C44.9358 197.42 38.1302 210.152 35.373 224.013C32.6159 237.875 34.031 252.242 39.4393 265.299C44.8477 278.356 54.0065 289.516 65.7575 297.368C77.5084 305.22 91.3238 309.411 105.457 309.411C124.402 309.389 142.564 301.854 155.961 288.458C169.357 275.062 176.892 256.899 176.913 237.954ZM227.954 186.914C242.086 186.914 255.902 182.723 267.653 174.871C279.404 167.019 288.562 155.859 293.971 142.802C299.379 129.745 300.794 115.378 298.037 101.517C295.28 87.6554 288.474 74.923 278.481 64.9297C268.488 54.9363 255.755 48.1307 241.894 45.3735C228.033 42.6164 213.665 44.0314 200.608 49.4398C187.551 54.8482 176.391 64.007 168.54 75.7579C160.688 87.5089 156.497 101.324 156.497 115.457C156.518 134.402 164.053 152.565 177.45 165.961C190.846 179.357 209.009 186.892 227.954 186.914ZM470.63 342.191C449.727 330.624 434.269 311.236 427.649 288.282C420.865 264.934 406.685 244.42 387.242 229.822C367.799 215.224 344.144 207.331 319.83 207.33C295.517 207.329 271.861 215.219 252.416 229.815C232.972 244.411 218.79 264.924 212.003 288.27C205.411 311.194 189.991 330.565 169.13 342.131C146.092 354.62 128.738 375.49 120.66 400.42C112.583 425.35 114.401 452.431 125.737 476.058C137.074 499.684 157.062 518.048 181.563 527.346C206.063 536.644 233.201 536.165 257.359 526.008C297.284 509.508 342.115 509.474 382.064 525.914C406.208 536.142 433.362 536.689 457.899 527.441C482.435 518.193 502.473 499.859 513.86 476.238C525.246 452.618 527.108 425.523 519.06 400.567C511.012 375.611 493.67 354.708 470.63 342.191ZM534.196 166.497C520.063 166.497 506.248 170.688 494.497 178.54C482.746 186.392 473.587 197.552 468.179 210.609C462.77 223.666 461.355 238.033 464.112 251.894C466.87 265.756 473.675 278.488 483.668 288.481C493.662 298.475 506.394 305.28 520.255 308.038C534.117 310.795 548.484 309.38 561.541 303.971C574.598 298.563 585.758 289.404 593.61 277.653C601.462 265.902 605.652 252.087 605.652 237.954C605.631 219.009 598.096 200.846 584.7 187.45C571.304 174.054 553.141 166.519 534.196 166.497Z" fill="#EDC73D"/>
<path d="M469.696 343.893L469.69 343.889C448.337 332.074 432.546 312.268 425.784 288.82M469.696 343.893L427.649 288.282M469.696 343.893L469.703 343.896C492.306 356.176 509.317 376.681 517.212 401.163C525.107 425.644 523.281 452.224 512.111 475.396C500.941 498.567 481.284 516.552 457.214 525.624C433.144 534.696 406.507 534.16 382.821 524.126L382.812 524.122L382.803 524.118C342.379 507.484 297.016 507.518 256.618 524.214L256.607 524.219C232.908 534.182 206.286 534.652 182.251 525.531C158.216 516.409 138.609 498.395 127.488 475.218C116.366 452.04 114.583 425.474 122.507 401.018C130.431 376.562 147.455 356.089 170.055 343.837L170.063 343.833L170.071 343.829C191.382 332.014 207.134 312.226 213.869 288.809M469.696 343.893L212.003 288.27M425.784 288.82C425.784 288.82 425.784 288.82 425.784 288.82L427.649 288.282M425.784 288.82C425.784 288.821 425.785 288.822 425.785 288.823L427.649 288.282M425.784 288.82C419.116 265.878 405.183 245.719 386.077 231.374C366.97 217.029 343.723 209.272 319.83 209.271C295.938 209.27 272.69 217.024 253.582 231.367C234.474 245.71 220.539 265.867 213.869 288.809M427.649 288.282C420.865 264.934 406.685 244.42 387.242 229.822C367.799 215.224 344.144 207.331 319.83 207.33C295.517 207.329 271.861 215.219 252.416 229.815C232.972 244.411 218.79 264.924 212.003 288.27M213.869 288.809C213.869 288.808 213.869 288.808 213.869 288.807L212.003 288.27M213.869 288.809C213.868 288.81 213.868 288.811 213.867 288.812L212.003 288.27M342.184 115.455C342.184 101.707 346.261 88.2676 353.899 76.8364C361.538 65.4047 372.394 56.4947 385.097 51.2333C397.799 45.9719 411.776 44.5952 425.261 47.2775C438.745 49.9597 451.132 56.5804 460.854 66.3023C470.576 76.0242 477.196 88.4107 479.879 101.895C482.561 115.38 481.184 129.357 475.923 142.059C470.661 154.762 461.751 165.618 450.32 173.257C438.888 180.895 425.449 184.972 411.701 184.972C393.27 184.952 375.6 177.621 362.568 164.588C349.535 151.556 342.204 133.886 342.184 115.455ZM163.256 199.333C170.895 210.764 174.971 224.204 174.972 237.952C174.951 256.383 167.62 274.053 154.588 287.085C141.555 300.118 123.885 307.449 105.454 307.469C91.7063 307.469 78.2671 303.392 66.8359 295.754C55.4042 288.115 46.4943 277.259 41.2328 264.556C35.9714 251.854 34.5947 237.877 37.277 224.392C39.9593 210.908 46.5799 198.521 56.3018 188.799C66.0237 179.077 78.4102 172.457 91.8948 169.774C105.379 167.092 119.357 168.469 132.059 173.73C144.761 178.992 155.618 187.902 163.256 199.333ZM266.574 173.257C255.143 180.895 241.704 184.972 227.956 184.972C209.525 184.952 191.855 177.621 178.822 164.588C165.79 151.556 158.459 133.886 158.438 115.455C158.439 101.707 162.516 88.2676 170.154 76.8364C177.792 65.4047 188.649 56.4947 201.351 51.2333C214.053 45.9719 228.031 44.5952 241.515 47.2775C255 49.9597 267.386 56.5804 277.108 66.3023C286.83 76.0242 293.451 88.4107 296.133 101.895C298.815 115.38 297.439 129.357 292.177 142.059C286.916 154.762 278.006 165.618 266.574 173.257ZM495.575 180.154C507.007 172.516 520.447 168.439 534.196 168.439C552.626 168.46 570.295 175.791 583.327 188.823C596.36 201.855 603.691 219.525 603.711 237.956C603.711 251.704 599.634 265.143 591.996 276.575C584.357 288.006 573.501 296.916 560.798 302.178C548.096 307.439 534.119 308.816 520.634 306.134C507.15 303.451 494.763 296.831 485.041 287.109C475.319 277.387 468.699 265 466.016 251.516C463.334 238.031 464.711 224.054 469.972 211.352C475.234 198.649 484.144 187.793 495.575 180.154Z" stroke="url(#paint0_linear_1931_50151)" stroke-width="3.88248"/>
</g>
<defs>
<filter id="filter0_d_1931_50151" x="-31.6909" y="0.206572" width="703.034" height="621.383" filterUnits="userSpaceOnUse" color-interpolation-filters="sRGB">
<feFlood flood-opacity="0" result="BackgroundImageFix"/>
<feColorMatrix in="SourceAlpha" type="matrix" values="0 0 0 0 0 0 0 0 0 0 0 0 0 0 0 0 0 0 127 0" result="hardAlpha"/>
<feOffset dy="21.897"/>
<feGaussianBlur stdDeviation="32.8454"/>
<feComposite in2="hardAlpha" operator="out"/>
<feColorMatrix type="matrix" values="0 0 0 0 0.579167 0 0 0 0 0.443543 0 0 0 0 0.0337847 0 0 0 0.72 0"/>
<feBlend mode="normal" in2="BackgroundImageFix" result="effect1_dropShadow_1931_50151"/>
<feBlend mode="normal" in="SourceGraphic" in2="effect1_dropShadow_1931_50151" result="shape"/>
</filter>
<linearGradient id="paint0_linear_1931_50151" x1="319.826" y1="44.0005" x2="319.826" y2="534.001" gradientUnits="userSpaceOnUse">
<stop stop-color="#EEBF30"/>
<stop offset="1" stop-color="#FDCE40"/>
</linearGradient>
</defs>
</svg>
