<svg width="325" height="319" viewBox="0 0 325 319" fill="none" xmlns="http://www.w3.org/2000/svg">
<g opacity="0.32" filter="url(#filter0_d_1931_51121)">
<path d="M179.158 93.1656C179.158 81.8594 182.51 70.8072 188.792 61.4064C195.073 52.0056 204.001 44.6786 214.447 40.3519C224.892 36.0253 236.386 34.8932 247.475 37.0989C258.564 39.3047 268.75 44.7491 276.745 52.7438C284.739 60.7385 290.184 70.9243 292.389 82.0133C294.595 93.1022 293.463 104.596 289.136 115.042C284.81 125.487 277.483 134.415 268.082 140.697C258.681 146.978 247.629 150.331 236.323 150.331C221.167 150.314 206.636 144.286 195.92 133.569C185.203 122.852 179.175 108.322 179.158 93.1656ZM48.4944 191.163C48.4944 179.857 45.1417 168.804 38.8603 159.404C32.5789 150.003 23.6509 142.676 13.2054 138.349C2.75981 134.023 -8.73419 132.891 -19.8231 135.096C-30.9121 137.302 -41.0979 142.746 -49.0926 150.741C-57.0873 158.736 -62.5318 168.922 -64.7375 180.011C-66.9432 191.1 -65.8112 202.594 -61.4845 213.039C-57.1578 223.485 -49.8308 232.413 -40.43 238.694C-31.0293 244.975 -19.977 248.328 -8.67078 248.328C6.48514 248.311 21.0154 242.283 31.7323 231.566C42.4492 220.849 48.4774 206.319 48.4944 191.163ZM89.3266 150.331C100.633 150.331 111.685 146.978 121.086 140.697C130.487 134.415 137.814 125.487 142.14 115.042C146.467 104.596 147.599 93.1022 145.393 82.0133C143.188 70.9243 137.743 60.7385 129.748 52.7438C121.754 44.7491 111.568 39.3047 100.479 37.0989C89.39 34.8932 77.896 36.0253 67.4505 40.3519C57.0049 44.6786 48.0769 52.0056 41.7955 61.4064C35.5141 70.8072 32.1615 81.8594 32.1615 93.1656C32.1785 108.322 38.2066 122.852 48.9235 133.569C59.6404 144.286 74.1707 150.314 89.3266 150.331ZM283.467 274.552C266.745 265.299 254.379 249.788 249.083 231.425C243.655 212.747 232.312 196.336 216.757 184.657C201.203 172.979 182.278 166.665 162.828 166.664C143.378 166.663 124.452 172.975 108.897 184.652C93.3413 196.328 81.9961 212.739 76.5665 231.416C71.2925 249.755 58.9569 265.252 42.2679 274.504C23.8372 284.496 9.95399 301.191 3.49213 321.135C-2.96974 341.079 -1.51547 362.744 7.5539 381.646C16.6233 400.547 32.6133 415.237 52.2139 422.676C71.8145 430.114 93.5249 429.731 112.851 421.606C144.791 408.406 180.655 408.379 212.615 421.53C231.93 429.713 253.653 430.15 273.283 422.752C292.912 415.353 308.942 400.686 318.051 381.79C327.16 362.894 328.65 341.218 322.211 321.253C315.773 301.288 301.9 284.566 283.467 274.552ZM334.32 133.998C323.014 133.998 311.962 137.351 302.561 143.632C293.16 149.913 285.833 158.841 281.506 169.287C277.18 179.732 276.048 191.226 278.253 202.315C280.459 213.404 285.903 223.59 293.898 231.585C301.893 239.579 312.079 245.024 323.168 247.23C334.257 249.435 345.751 248.303 356.196 243.977C366.642 239.65 375.57 232.323 381.851 222.922C388.132 213.521 391.485 202.469 391.485 191.163C391.468 176.007 385.44 161.477 374.723 150.76C364.006 140.043 349.476 134.015 334.32 133.998Z" fill="#593BF0"/>
<path d="M282.715 275.911L282.726 275.917C300.808 285.74 314.417 302.145 320.733 321.73C327.049 341.315 325.588 362.579 316.652 381.116C307.716 399.653 291.991 414.041 272.735 421.299C253.479 428.556 232.169 428.127 213.221 420.1L213.213 420.097L213.206 420.094C180.867 406.786 144.576 406.814 112.258 420.171L112.249 420.174C93.2905 428.145 71.9929 428.521 52.7649 421.224C33.5369 413.927 17.851 399.516 8.95406 380.974C0.0571213 362.432 -1.3695 341.179 4.96951 321.614C11.3085 302.049 24.9277 285.671 43.008 275.87L43.0144 275.866L43.0209 275.863C60.0685 266.411 72.6694 250.582 78.0578 231.85C83.3935 213.495 94.5425 197.369 109.829 185.894C125.116 174.419 143.714 168.216 162.828 168.217C181.942 168.218 200.54 174.423 215.825 185.899C231.109 197.375 242.256 213.502 247.591 231.855C253 250.614 265.633 266.459 282.715 275.911ZM180.711 93.1639C180.711 82.1655 183.972 71.4141 190.083 62.2692C196.194 53.1238 204.879 45.9959 215.041 41.7867C225.203 37.5776 236.384 36.4763 247.172 38.6221C257.96 40.7679 267.869 46.0644 275.646 53.8419C283.424 61.6194 288.72 71.5285 290.866 82.3162C293.012 93.1039 291.911 104.286 287.702 114.447C283.492 124.609 276.364 133.295 267.219 139.405C258.074 145.516 247.322 148.778 236.323 148.778C221.579 148.761 207.443 142.896 197.018 132.471C186.592 122.045 180.727 107.909 180.711 93.1639ZM37.569 160.267C43.6798 169.412 46.9414 180.164 46.9414 191.163C46.9244 205.907 41.0598 220.042 30.6342 230.468C20.2081 240.894 6.07212 246.759 -8.67252 246.775C-19.671 246.775 -30.4223 243.513 -39.5672 237.403C-48.7126 231.292 -55.8405 222.607 -60.0497 212.445C-64.2589 202.283 -65.3602 191.101 -63.2143 180.314C-61.0685 169.526 -55.772 159.617 -47.9945 151.839C-40.217 144.062 -30.3079 138.765 -19.5202 136.619C-8.73246 134.474 2.44928 135.575 12.6111 139.784C22.7729 143.993 31.4583 151.121 37.569 160.267ZM120.223 139.405C111.078 145.516 100.326 148.778 89.3266 148.778C74.5826 148.761 60.4473 142.896 50.0216 132.471C39.596 122.045 33.7315 107.91 33.7145 93.1656C33.7145 82.1666 36.976 71.4146 43.0868 62.2692C49.1975 53.1238 57.883 45.9959 68.0448 41.7867C78.2065 37.5776 89.3883 36.4763 100.176 38.6221C110.964 40.7679 120.873 46.0644 128.65 53.8419C136.428 61.6194 141.724 71.5285 143.87 82.3162C146.016 93.1039 144.915 104.286 140.706 114.447C136.496 124.609 129.368 133.295 120.223 139.405ZM303.424 144.923C312.569 138.812 323.321 135.551 334.32 135.551C349.064 135.568 363.199 141.432 373.625 151.858C384.051 162.284 389.916 176.42 389.932 191.165C389.932 202.163 386.67 212.915 380.56 222.059C374.449 231.205 365.764 238.333 355.602 242.542C345.44 246.751 334.258 247.852 323.471 245.707C312.683 243.561 302.774 238.264 294.996 230.487C287.219 222.709 281.922 212.8 279.776 202.012C277.631 191.225 278.732 180.043 282.941 169.881C287.15 159.719 294.278 151.034 303.424 144.923Z" stroke="url(#paint0_linear_1931_51121)" stroke-width="3.10598"/>
</g>
<defs>
<filter id="filter0_d_1931_51121" x="-118.389" y="0.965424" width="562.425" height="497.105" filterUnits="userSpaceOnUse" color-interpolation-filters="sRGB">
<feFlood flood-opacity="0" result="BackgroundImageFix"/>
<feColorMatrix in="SourceAlpha" type="matrix" values="0 0 0 0 0 0 0 0 0 0 0 0 0 0 0 0 0 0 127 0" result="hardAlpha"/>
<feOffset dy="17.5175"/>
<feGaussianBlur stdDeviation="26.2763"/>
<feComposite in2="hardAlpha" operator="out"/>
<feColorMatrix type="matrix" values="0 0 0 0 0.166075 0 0 0 0 0.0666667 0 0 0 0 0.666667 0 0 0 0.72 0"/>
<feBlend mode="normal" in2="BackgroundImageFix" result="effect1_dropShadow_1931_51121"/>
<feBlend mode="normal" in="SourceGraphic" in2="effect1_dropShadow_1931_51121" result="shape"/>
</filter>
<linearGradient id="paint0_linear_1931_51121" x1="162.825" y1="36.0005" x2="162.825" y2="428" gradientUnits="userSpaceOnUse">
<stop stop-color="#5A39FF"/>
<stop offset="1" stop-color="#7155FE"/>
</linearGradient>
</defs>
</svg>
