<svg width="375" height="216" viewBox="0 0 375 216" fill="none" xmlns="http://www.w3.org/2000/svg">
<g opacity="0.25" filter="url(#filter0_d_1931_49878)">
<path d="M252.703 73.273C252.703 85.8771 248.965 98.1981 241.963 108.678C234.96 119.158 225.007 127.326 213.363 132.149C201.718 136.973 188.904 138.235 176.543 135.776C164.181 133.317 152.825 127.248 143.913 118.335C135.001 109.423 128.931 98.0675 126.472 85.7056C124.013 73.3437 125.275 60.5302 130.099 48.8855C134.922 37.2409 143.09 27.288 153.57 20.2855C164.05 13.2831 176.371 9.54554 188.975 9.54554C205.871 9.56449 222.069 16.2847 234.016 28.2318C245.963 40.1789 252.684 56.3772 252.703 73.273ZM398.365 -35.974C398.365 -23.3699 402.103 -11.0489 409.105 -0.568965C416.108 9.91096 426.061 18.0791 437.705 22.9024C449.35 27.7258 462.164 28.9878 474.525 26.5289C486.887 24.07 498.243 18.0005 507.155 9.08807C516.067 0.175628 522.137 -11.1795 524.596 -23.5414C527.055 -35.9033 525.793 -48.7168 520.969 -60.3615C516.146 -72.0061 507.978 -81.959 497.498 -88.9614C487.018 -95.9639 474.697 -99.7015 462.093 -99.7015C445.197 -99.6825 428.999 -92.9623 417.052 -81.0152C405.105 -69.0681 398.384 -52.8698 398.365 -35.974ZM352.846 9.54556C340.242 9.54555 327.921 13.2831 317.441 20.2856C306.961 27.288 298.793 37.2409 293.969 48.8856C289.146 60.5302 287.884 73.3437 290.343 85.7056C292.802 98.0675 298.871 109.423 307.784 118.335C316.696 127.248 328.051 133.317 340.413 135.776C352.775 138.235 365.589 136.973 377.233 132.149C388.878 127.326 398.831 119.158 405.833 108.678C412.836 98.1982 416.573 85.8771 416.573 73.273C416.554 56.3773 409.834 40.1789 397.887 28.2318C385.94 16.2847 369.742 9.56451 352.846 9.54556ZM136.419 -128.936C155.06 -118.621 168.847 -101.329 174.75 -80.8581C180.801 -60.0361 193.447 -41.7406 210.786 -28.7216C228.126 -15.7026 249.223 -8.66351 270.907 -8.66238C292.59 -8.66124 313.688 -15.6981 331.029 -28.7153C348.37 -41.7325 361.018 -60.0267 367.071 -80.848C372.95 -101.292 386.702 -118.568 405.307 -128.883C425.853 -140.021 441.33 -158.633 448.534 -180.867C455.737 -203.1 454.116 -227.252 444.006 -248.323C433.895 -269.394 416.07 -285.771 394.219 -294.064C372.368 -302.356 348.166 -301.929 326.621 -292.871C291.015 -278.156 251.033 -278.125 215.405 -292.787C193.872 -301.909 169.655 -302.396 147.772 -294.148C125.89 -285.901 108.02 -269.55 97.8648 -248.485C87.7101 -227.419 86.0494 -203.254 93.227 -180.998C100.405 -158.741 115.87 -140.1 136.419 -128.936ZM79.7281 27.7534C92.3322 27.7534 104.653 24.0158 115.133 17.0134C125.613 10.0109 133.781 0.0580407 138.605 -11.5866C143.428 -23.2313 144.69 -36.0448 142.231 -48.4067C139.772 -60.7686 133.703 -72.1237 124.79 -81.0362C115.878 -89.9486 104.523 -96.0181 92.1607 -98.477C79.7988 -100.936 66.9854 -99.6739 55.3407 -94.8505C43.696 -90.0272 33.7432 -81.8591 26.7407 -71.3791C19.7382 -60.8992 16.0007 -48.5782 16.0007 -35.9741C16.0196 -19.0783 22.7398 -2.88 34.6869 9.0671C46.634 21.0142 62.8323 27.7344 79.7281 27.7534Z" fill="#593BF0"/>
<path d="M137.245 -130.457L137.257 -130.451C156.299 -119.914 170.382 -102.25 176.413 -81.3393M137.245 -130.457L174.75 -80.8581M137.245 -130.457C117.087 -141.409 101.916 -159.696 94.8747 -181.529C87.8336 -203.363 89.4626 -227.068 99.4243 -247.733C109.386 -268.398 126.917 -284.437 148.383 -292.528C169.849 -300.619 193.606 -300.141 214.729 -291.192L214.737 -291.189L214.746 -291.186C250.797 -276.35 291.253 -276.381 327.282 -291.271L327.292 -291.275C348.427 -300.161 372.169 -300.58 393.605 -292.445C415.04 -284.31 432.527 -268.245 442.445 -247.574C452.363 -226.904 453.953 -203.211 446.887 -181.4C439.82 -159.59 424.637 -141.331 404.482 -130.405L404.474 -130.401L404.467 -130.397C385.462 -119.86 371.414 -102.212 365.407 -81.328M137.245 -130.457L367.071 -80.848M176.413 -81.3393C176.413 -81.3388 176.414 -81.3383 176.414 -81.3378L174.75 -80.8581M176.413 -81.3393C176.413 -81.34 176.413 -81.3406 176.413 -81.3412L174.75 -80.8581M176.413 -81.3393C182.36 -60.8781 194.786 -42.8996 211.826 -30.1061C228.866 -17.3122 249.598 -10.3948 270.907 -10.3936C292.215 -10.3925 312.948 -17.3078 329.99 -30.0999C347.03 -42.8914 359.459 -60.868 365.407 -81.328M174.75 -80.8581C180.801 -60.0361 193.447 -41.7406 210.786 -28.7216C228.126 -15.7026 249.223 -8.66351 270.907 -8.66238C292.59 -8.66124 313.688 -15.6981 331.029 -28.7153C348.37 -41.7325 361.018 -60.0267 367.071 -80.848M365.407 -81.328C365.407 -81.3275 365.407 -81.327 365.407 -81.3265L367.071 -80.848M365.407 -81.328C365.408 -81.3291 365.408 -81.3302 365.408 -81.3313L367.071 -80.848M250.971 73.2749C250.971 85.536 247.335 97.5215 240.523 107.716C233.711 117.911 224.028 125.858 212.7 130.55C201.372 135.242 188.906 136.47 176.88 134.078C164.854 131.686 153.808 125.781 145.137 117.111C136.467 108.441 130.562 97.3939 128.17 85.3678C125.778 73.3418 127.006 60.8764 131.698 49.5481C136.391 38.2198 144.337 28.5373 154.532 21.725C164.727 14.9132 176.712 11.2772 188.973 11.2768C205.411 11.2952 221.169 17.8331 232.792 29.456C244.415 41.0789 250.953 56.8377 250.971 73.2749ZM410.545 -1.5308C403.733 -11.7255 400.097 -23.7111 400.097 -35.9721C400.115 -52.4094 406.653 -68.1681 418.276 -79.791C429.899 -91.4139 445.658 -97.9518 462.095 -97.9702C474.356 -97.9698 486.341 -94.3338 496.536 -87.5219C506.731 -80.7097 514.678 -71.0273 519.37 -59.6989C524.062 -48.3706 525.29 -35.9052 522.898 -23.8792C520.506 -11.8531 514.601 -0.806443 505.931 7.86387C497.26 16.5342 486.214 22.4388 474.188 24.8309C462.162 27.223 449.696 25.9953 438.368 21.303C427.04 16.6106 417.357 8.6644 410.545 -1.5308ZM318.403 21.7251C328.597 14.9132 340.583 11.2772 352.844 11.2768C369.281 11.2953 385.04 17.8331 396.663 29.456C408.286 41.0789 414.824 56.8377 414.842 73.2749C414.842 85.536 411.206 97.5215 404.394 107.716C397.581 117.911 387.899 125.858 376.571 130.55C365.242 135.242 352.777 136.47 340.751 134.078C328.725 131.686 317.678 125.781 309.008 117.111C300.338 108.441 294.433 97.3939 292.041 85.3678C289.649 73.3418 290.876 60.8764 295.569 49.5481C300.261 38.2198 308.207 28.5373 318.403 21.7251ZM114.171 15.5739C103.977 22.3857 91.9911 26.0217 79.7301 26.0221C63.2928 26.0037 47.534 19.4658 35.9111 7.84291C24.2882 -3.78 17.7503 -19.5388 17.7319 -35.976C17.7323 -48.237 21.3683 -60.2226 28.1802 -70.4173C34.9924 -80.6125 44.6749 -88.5587 56.0032 -93.251C67.3316 -97.9434 79.7969 -99.1712 91.823 -96.779C103.849 -94.3869 114.896 -88.4823 123.566 -79.812C132.236 -71.1417 138.141 -60.095 140.533 -48.0689C142.925 -36.0428 141.697 -23.5775 137.005 -12.2492C132.313 -0.920841 124.367 8.76164 114.171 15.5739Z" stroke="url(#paint0_linear_1931_49878)" stroke-width="3.46254"/>
</g>
<defs>
<filter id="filter0_d_1931_49878" x="-42.5854" y="-339.056" width="626.991" height="554.171" filterUnits="userSpaceOnUse" color-interpolation-filters="sRGB">
<feFlood flood-opacity="0" result="BackgroundImageFix"/>
<feColorMatrix in="SourceAlpha" type="matrix" values="0 0 0 0 0 0 0 0 0 0 0 0 0 0 0 0 0 0 127 0" result="hardAlpha"/>
<feOffset dy="19.5285"/>
<feGaussianBlur stdDeviation="29.2927"/>
<feComposite in2="hardAlpha" operator="out"/>
<feColorMatrix type="matrix" values="0 0 0 0 0.166075 0 0 0 0 0.0666667 0 0 0 0 0.666667 0 0 0 0.72 0"/>
<feBlend mode="normal" in2="BackgroundImageFix" result="effect1_dropShadow_1931_49878"/>
<feBlend mode="normal" in="SourceGraphic" in2="effect1_dropShadow_1931_49878" result="shape"/>
</filter>
<linearGradient id="paint0_linear_1931_49878" x1="270.91" y1="137" x2="270.911" y2="-300" gradientUnits="userSpaceOnUse">
<stop stop-color="#5A39FF"/>
<stop offset="1" stop-color="#7155FE"/>
</linearGradient>
</defs>
</svg>
