<svg width="375" height="490" viewBox="0 0 375 490" fill="none" xmlns="http://www.w3.org/2000/svg">
<g opacity="0.32" filter="url(#filter0_d_1931_50045)">
<path d="M340.242 115.457C340.242 101.324 344.433 87.5084 352.285 75.7574C360.137 64.0065 371.297 54.8477 384.354 49.4393C397.411 44.031 411.778 42.6159 425.639 45.373C439.501 48.1302 452.233 54.9358 462.226 64.9292C472.22 74.9225 479.025 87.6549 481.783 101.516C484.54 115.377 483.125 129.745 477.716 142.802C472.308 155.859 463.149 167.019 451.398 174.871C439.647 182.722 425.832 186.913 411.699 186.913C392.754 186.892 374.591 179.357 361.195 165.961C347.799 152.564 340.264 134.402 340.242 115.457ZM176.913 237.953C176.913 223.821 172.722 210.005 164.871 198.254C157.019 186.503 145.859 177.345 132.802 171.936C119.745 166.528 105.377 165.113 91.5161 167.87C77.6549 170.627 64.9226 177.433 54.9292 187.426C44.9358 197.419 38.1302 210.152 35.373 224.013C32.6159 237.874 34.031 252.242 39.4393 265.299C44.8477 278.356 54.0065 289.516 65.7575 297.367C77.5084 305.219 91.3238 309.41 105.457 309.41C124.402 309.389 142.564 301.854 155.961 288.457C169.357 275.061 176.892 256.898 176.913 237.953ZM227.954 186.913C242.086 186.913 255.902 182.722 267.653 174.871C279.404 167.019 288.562 155.859 293.971 142.802C299.379 129.745 300.794 115.377 298.037 101.516C295.28 87.6549 288.474 74.9225 278.481 64.9292C268.488 54.9358 255.755 48.1302 241.894 45.373C228.033 42.6159 213.665 44.031 200.608 49.4393C187.551 54.8477 176.391 64.0065 168.54 75.7574C160.688 87.5084 156.497 101.324 156.497 115.457C156.518 134.402 164.053 152.564 177.45 165.961C190.846 179.357 209.009 186.892 227.954 186.913ZM470.63 342.19C449.727 330.624 434.269 311.235 427.649 288.281C420.865 264.934 406.685 244.419 387.242 229.821C367.799 215.223 344.144 207.331 319.83 207.329C295.517 207.328 271.861 215.218 252.416 229.814C232.972 244.41 218.79 264.923 212.003 288.27C205.411 311.194 189.991 330.565 169.13 342.13C146.092 354.62 128.738 375.489 120.66 400.419C112.583 425.349 114.401 452.43 125.737 476.057C137.074 499.684 157.062 518.047 181.563 527.345C206.063 536.643 233.201 536.164 257.359 526.008C297.284 509.508 342.115 509.474 382.064 525.913C406.208 536.141 433.362 536.688 457.899 527.44C482.435 518.192 502.473 499.858 513.86 476.238C525.246 452.618 527.108 425.522 519.06 400.566C511.012 375.611 493.67 354.708 470.63 342.19ZM534.196 166.497C520.063 166.497 506.248 170.688 494.497 178.54C482.746 186.391 473.587 197.551 468.179 210.608C462.77 223.665 461.355 238.033 464.112 251.894C466.87 265.755 473.675 278.488 483.668 288.481C493.662 298.474 506.394 305.28 520.255 308.037C534.117 310.794 548.484 309.379 561.541 303.971C574.598 298.562 585.758 289.404 593.61 277.653C601.462 265.902 605.652 252.086 605.652 237.953C605.631 219.009 598.096 200.846 584.7 187.45C571.304 174.053 553.141 166.518 534.196 166.497Z" fill="#33DCA3"/>
<path d="M469.696 343.892L469.69 343.889C448.337 332.073 432.546 312.268 425.784 288.82M469.696 343.892L427.649 288.281M469.696 343.892L469.703 343.896C492.306 356.175 509.317 376.681 517.212 401.162C525.107 425.643 523.281 452.224 512.111 475.395C500.941 498.566 481.284 516.551 457.214 525.624C433.144 534.696 406.507 534.16 382.821 524.126L382.812 524.122L382.803 524.118C342.379 507.483 297.016 507.518 256.618 524.214L256.607 524.218C232.908 534.182 206.286 534.652 182.251 525.53C158.216 516.409 138.609 498.395 127.488 475.217C116.366 452.04 114.583 425.473 122.507 401.017C130.431 376.562 147.455 356.089 170.055 343.837L170.063 343.833L170.071 343.828C191.382 332.013 207.134 312.225 213.869 288.808M469.696 343.892L212.003 288.27M425.784 288.82C425.784 288.82 425.784 288.819 425.784 288.819L427.649 288.281M425.784 288.82C425.784 288.821 425.785 288.822 425.785 288.823L427.649 288.281M425.784 288.82C419.116 265.877 405.183 245.719 386.077 231.374C366.97 217.028 343.723 209.272 319.83 209.271C295.938 209.269 272.69 217.023 253.582 231.367C234.474 245.71 220.539 265.867 213.869 288.808M427.649 288.281C420.865 264.934 406.685 244.419 387.242 229.821C367.799 215.223 344.144 207.331 319.83 207.329C295.517 207.328 271.861 215.218 252.416 229.814C232.972 244.41 218.79 264.923 212.003 288.27M213.869 288.808C213.869 288.808 213.869 288.807 213.869 288.807L212.003 288.27M213.869 288.808C213.868 288.809 213.868 288.811 213.867 288.812L212.003 288.27M342.184 115.454C342.184 101.706 346.261 88.2671 353.899 76.8359C361.538 65.4042 372.394 56.4943 385.097 51.2328C397.799 45.9714 411.776 44.5947 425.261 47.277C438.745 49.9593 451.132 56.5799 460.854 66.3018C470.576 76.0237 477.196 88.4102 479.879 101.895C482.561 115.379 481.184 129.357 475.923 142.059C470.661 154.761 461.751 165.618 450.32 173.256C438.888 180.894 425.449 184.971 411.701 184.972C393.27 184.951 375.6 177.62 362.568 164.588C349.535 151.555 342.204 133.885 342.184 115.454ZM163.256 199.333C170.895 210.764 174.971 224.203 174.972 237.951C174.951 256.382 167.62 274.052 154.588 287.085C141.555 300.117 123.885 307.448 105.454 307.469C91.7063 307.468 78.2671 303.391 66.8359 295.753C55.4042 288.115 46.4943 277.258 41.2328 264.556C35.9714 251.854 34.5947 237.876 37.277 224.392C39.9593 210.907 46.5799 198.521 56.3018 188.799C66.0237 179.077 78.4102 172.456 91.8948 169.774C105.379 167.092 119.357 168.468 132.059 173.73C144.761 178.991 155.618 187.901 163.256 199.333ZM266.574 173.256C255.143 180.894 241.704 184.971 227.956 184.972C209.525 184.951 191.855 177.62 178.822 164.588C165.79 151.555 158.459 133.885 158.438 115.454C158.439 101.706 162.516 88.2671 170.154 76.8359C177.792 65.4042 188.649 56.4943 201.351 51.2328C214.053 45.9714 228.031 44.5947 241.515 47.277C255 49.9593 267.386 56.5799 277.108 66.3018C286.83 76.0237 293.451 88.4102 296.133 101.895C298.815 115.379 297.439 129.357 292.177 142.059C286.916 154.761 278.006 165.618 266.574 173.256ZM495.575 180.154C507.007 172.515 520.447 168.438 534.196 168.438C552.626 168.459 570.295 175.79 583.327 188.822C596.36 201.855 603.691 219.525 603.711 237.956C603.711 251.704 599.634 265.143 591.996 276.574C584.357 288.006 573.501 296.916 560.798 302.177C548.096 307.439 534.119 308.815 520.634 306.133C507.15 303.451 494.763 296.83 485.041 287.108C475.319 277.386 468.699 265 466.016 251.515C463.334 238.031 464.711 224.053 469.972 211.351C475.234 198.649 484.144 187.792 495.575 180.154Z" stroke="url(#paint0_linear_1931_50045)" stroke-width="3.88248"/>
</g>
<defs>
<filter id="filter0_d_1931_50045" x="-31.6909" y="0.206083" width="703.034" height="621.383" filterUnits="userSpaceOnUse" color-interpolation-filters="sRGB">
<feFlood flood-opacity="0" result="BackgroundImageFix"/>
<feColorMatrix in="SourceAlpha" type="matrix" values="0 0 0 0 0 0 0 0 0 0 0 0 0 0 0 0 0 0 127 0" result="hardAlpha"/>
<feOffset dy="21.897"/>
<feGaussianBlur stdDeviation="32.8454"/>
<feComposite in2="hardAlpha" operator="out"/>
<feColorMatrix type="matrix" values="0 0 0 0 0.0444444 0 0 0 0 0.533333 0 0 0 0 0.36746 0 0 0 0.72 0"/>
<feBlend mode="normal" in2="BackgroundImageFix" result="effect1_dropShadow_1931_50045"/>
<feBlend mode="normal" in="SourceGraphic" in2="effect1_dropShadow_1931_50045" result="shape"/>
</filter>
<linearGradient id="paint0_linear_1931_50045" x1="319.826" y1="44" x2="319.826" y2="534.001" gradientUnits="userSpaceOnUse">
<stop stop-color="#33DBA2"/>
<stop offset="1" stop-color="#34DDA4"/>
</linearGradient>
</defs>
</svg>
