<svg width="375" height="519" viewBox="0 0 375 519" fill="none" xmlns="http://www.w3.org/2000/svg">
<g opacity="0.32" filter="url(#filter0_d_1931_49877)">
<path d="M208.242 115.457C208.242 101.324 212.433 87.5089 220.285 75.7579C228.137 64.007 239.297 54.8482 252.354 49.4398C265.411 44.0314 279.778 42.6164 293.639 45.3735C307.501 48.1307 320.233 54.9363 330.226 64.9297C340.22 74.923 347.025 87.6554 349.783 101.517C352.54 115.378 351.125 129.745 345.716 142.802C340.308 155.859 331.149 167.019 319.398 174.871C307.647 182.723 293.832 186.914 279.699 186.914C260.754 186.892 242.591 179.357 229.195 165.961C215.799 152.565 208.264 134.402 208.242 115.457ZM44.9131 237.954C44.9131 223.821 40.7223 210.006 32.8705 198.255C25.0188 186.504 13.8588 177.345 0.801826 171.937C-12.2551 166.528 -26.6227 165.113 -40.4839 167.87C-54.3451 170.628 -67.0774 177.433 -77.0708 187.427C-87.0642 197.42 -93.8698 210.152 -96.627 224.013C-99.3841 237.875 -97.969 252.242 -92.5607 265.299C-87.1523 278.356 -77.9935 289.516 -66.2425 297.368C-54.4916 305.22 -40.6762 309.411 -26.5434 309.411C-7.59848 309.389 10.5644 301.854 23.9605 288.458C37.3566 275.062 44.8919 256.899 44.9131 237.954ZM95.9536 186.914C110.086 186.914 123.902 182.723 135.653 174.871C147.404 167.019 156.562 155.859 161.971 142.802C167.379 129.745 168.794 115.378 166.037 101.517C163.28 87.6554 156.474 74.923 146.481 64.9297C136.488 54.9363 123.755 48.1307 109.894 45.3735C96.0328 42.6164 81.6653 44.0314 68.6083 49.4398C55.5513 54.8482 44.3913 64.007 36.5396 75.7579C28.6878 87.5089 24.497 101.324 24.497 115.457C24.5182 134.402 32.0535 152.565 45.4496 165.961C58.8457 179.357 77.0086 186.892 95.9536 186.914ZM338.63 342.191C317.727 330.624 302.269 311.236 295.649 288.282C288.865 264.934 274.685 244.42 255.242 229.822C235.799 215.224 212.144 207.331 187.83 207.33C163.517 207.329 139.861 215.219 120.416 229.815C100.972 244.411 86.7904 264.924 80.0034 288.27C73.4109 311.194 57.9914 330.565 37.13 342.131C14.0916 354.62 -3.26241 375.49 -11.3398 400.42C-19.4171 425.35 -17.5993 452.431 -6.26253 476.058C5.0742 499.684 25.0617 518.048 49.5626 527.346C74.0634 536.644 101.201 536.165 125.359 526.008C165.284 509.508 210.115 509.474 250.064 525.914C274.208 536.142 301.362 536.689 325.899 527.441C350.435 518.193 370.473 499.859 381.86 476.238C393.246 452.618 395.108 425.523 387.06 400.567C379.012 375.611 361.67 354.708 338.63 342.191ZM402.196 166.497C388.063 166.497 374.248 170.688 362.497 178.54C350.746 186.392 341.587 197.552 336.179 210.609C330.77 223.666 329.355 238.033 332.112 251.894C334.87 265.756 341.675 278.488 351.668 288.481C361.662 298.475 374.394 305.28 388.255 308.038C402.117 310.795 416.484 309.38 429.541 303.971C442.598 298.563 453.758 289.404 461.61 277.653C469.462 265.902 473.652 252.087 473.652 237.954C473.631 219.009 466.096 200.846 452.7 187.45C439.304 174.054 421.141 166.519 402.196 166.497Z" fill="#593BF0"/>
<path d="M337.696 343.893L337.69 343.889C316.337 332.074 300.546 312.268 293.784 288.82M337.696 343.893L295.649 288.282M337.696 343.893L337.703 343.896C360.306 356.176 377.317 376.681 385.212 401.163C393.107 425.644 391.281 452.224 380.111 475.396C368.941 498.567 349.284 516.552 325.214 525.624C301.144 534.696 274.507 534.16 250.821 524.126L250.812 524.122L250.803 524.118C210.379 507.484 165.016 507.518 124.618 524.214L124.607 524.219C100.908 534.182 74.2864 534.652 50.2514 525.531C26.2164 516.409 6.60885 498.395 -4.51234 475.218C-15.6335 452.04 -17.4168 425.474 -9.49303 401.018C-1.56925 376.562 15.4548 356.089 38.0552 343.837L38.0632 343.833L38.0713 343.829C59.3819 332.014 75.1336 312.226 81.8685 288.809M337.696 343.893L80.0034 288.27M293.784 288.82C293.784 288.82 293.784 288.82 293.784 288.82L295.649 288.282M293.784 288.82C293.784 288.821 293.785 288.822 293.785 288.823L295.649 288.282M293.784 288.82C287.116 265.878 273.183 245.719 254.077 231.374C234.97 217.029 211.723 209.272 187.83 209.271C163.938 209.27 140.69 217.024 121.582 231.367C102.474 245.71 88.5386 265.867 81.8685 288.809M295.649 288.282C288.865 264.934 274.685 244.42 255.242 229.822C235.799 215.224 212.144 207.331 187.83 207.33C163.517 207.329 139.861 215.219 120.416 229.815C100.972 244.411 86.7904 264.924 80.0034 288.27M81.8685 288.809C81.8687 288.808 81.8689 288.808 81.869 288.807L80.0034 288.27M81.8685 288.809C81.8682 288.81 81.8678 288.811 81.8675 288.812L80.0034 288.27M210.184 115.455C210.184 101.707 214.261 88.2676 221.899 76.8364C229.538 65.4047 240.394 56.4947 253.097 51.2333C265.799 45.9719 279.776 44.5952 293.261 47.2775C306.745 49.9597 319.132 56.5804 328.854 66.3023C338.576 76.0242 345.196 88.4107 347.879 101.895C350.561 115.38 349.184 129.357 343.923 142.059C338.661 154.762 329.751 165.618 318.32 173.257C306.888 180.895 293.449 184.972 279.701 184.972C261.27 184.952 243.6 177.621 230.568 164.588C217.535 151.556 210.204 133.886 210.184 115.455ZM31.2565 199.333C38.8945 210.764 42.9715 224.204 42.9719 237.952C42.9512 256.383 35.6204 274.053 22.5879 287.085C9.55528 300.118 -8.11475 307.449 -26.5456 307.469C-40.2937 307.469 -53.7329 303.392 -65.1641 295.754C-76.5958 288.115 -85.5057 277.259 -90.7672 264.556C-96.0286 251.854 -97.4053 237.877 -94.723 224.392C-92.0407 210.908 -85.4201 198.521 -75.6982 188.799C-65.9763 179.077 -53.5898 172.457 -40.1052 169.774C-26.6205 167.092 -12.6433 168.469 0.0589447 173.73C12.7612 178.992 23.618 187.902 31.2565 199.333ZM134.574 173.257C123.143 180.895 109.704 184.972 95.9557 184.972C77.5249 184.952 59.8548 177.621 46.8223 164.588C33.7897 151.556 26.4589 133.886 26.4382 115.455C26.4386 101.707 30.5156 88.2676 38.1537 76.8364C45.7921 65.4047 56.6489 56.4947 69.3512 51.2333C82.0535 45.9719 96.0307 44.5952 109.515 47.2775C123 49.9597 135.386 56.5804 145.108 66.3023C154.83 76.0242 161.451 88.4107 164.133 101.895C166.815 115.38 165.439 129.357 160.177 142.059C154.916 154.762 146.006 165.618 134.574 173.257ZM363.575 180.154C375.007 172.516 388.447 168.439 402.196 168.439C420.626 168.46 438.295 175.791 451.327 188.823C464.36 201.855 471.691 219.525 471.711 237.956C471.711 251.704 467.634 265.143 459.996 276.575C452.357 288.006 441.501 296.916 428.798 302.178C416.096 307.439 402.119 308.816 388.634 306.134C375.15 303.451 362.763 296.831 353.041 287.109C343.319 277.387 336.699 265 334.016 251.516C331.334 238.031 332.711 224.054 337.972 211.352C343.234 198.649 352.144 187.793 363.575 180.154Z" stroke="url(#paint0_linear_1931_49877)" stroke-width="3.88248"/>
</g>
<defs>
<filter id="filter0_d_1931_49877" x="-163.691" y="0.206572" width="703.034" height="621.383" filterUnits="userSpaceOnUse" color-interpolation-filters="sRGB">
<feFlood flood-opacity="0" result="BackgroundImageFix"/>
<feColorMatrix in="SourceAlpha" type="matrix" values="0 0 0 0 0 0 0 0 0 0 0 0 0 0 0 0 0 0 127 0" result="hardAlpha"/>
<feOffset dy="21.897"/>
<feGaussianBlur stdDeviation="32.8454"/>
<feComposite in2="hardAlpha" operator="out"/>
<feColorMatrix type="matrix" values="0 0 0 0 0.166075 0 0 0 0 0.0666667 0 0 0 0 0.666667 0 0 0 0.72 0"/>
<feBlend mode="normal" in2="BackgroundImageFix" result="effect1_dropShadow_1931_49877"/>
<feBlend mode="normal" in="SourceGraphic" in2="effect1_dropShadow_1931_49877" result="shape"/>
</filter>
<linearGradient id="paint0_linear_1931_49877" x1="187.826" y1="44.0005" x2="187.826" y2="534.001" gradientUnits="userSpaceOnUse">
<stop stop-color="#5A39FF"/>
<stop offset="1" stop-color="#7155FE"/>
</linearGradient>
</defs>
</svg>
