<svg width="67" height="67" viewBox="0 0 67 67" fill="none" xmlns="http://www.w3.org/2000/svg">
<g id="Group 1000004140">
<g id="Ellipse 1994" filter="url(#filter0_d_1956_18727)">
<circle cx="33.5" cy="33.5" r="33.5" fill="#0EBE2C"/>
</g>
<g id="Group 1000004139">
<path id="Vector" d="M33.8448 60.3448C48.4809 60.3448 60.3458 48.4799 60.3458 33.8438C60.3458 19.2077 48.4809 7.34277 33.8448 7.34277C19.2087 7.34277 7.34375 19.2077 7.34375 33.8438C7.34375 48.4799 19.2087 60.3448 33.8448 60.3448Z" fill="url(#paint0_linear_1956_18727)"/>
<path id="Vector_2" d="M33.8437 55.3134C45.7006 55.3134 55.3124 45.7015 55.3124 33.8447C55.3124 21.9878 45.7006 12.376 33.8437 12.376C21.9869 12.376 12.375 21.9878 12.375 33.8447C12.375 45.7015 21.9869 55.3134 33.8437 55.3134Z" fill="url(#paint1_linear_1956_18727)"/>
<g id="Group 1000003090">
<g id="Group">
<g id="Group_2">
<path id="Vector_3" d="M38.4791 29.4299C37.0704 27.7292 35.2899 26.7925 33.4654 26.7925C31.6408 26.7925 29.8603 27.7292 28.4517 29.4299C27.1856 30.9587 26.4297 32.8854 26.4297 34.5838C26.4297 35.4088 26.6819 36.0372 27.1793 36.4517C27.6703 36.8608 28.3184 36.9991 29.0416 36.9991C29.811 36.9991 30.6654 36.8424 31.5049 36.6884C32.2385 36.5538 32.9314 36.4267 33.4654 36.4267C33.9263 36.4267 34.5762 36.5474 35.2642 36.6751C36.8719 36.9736 38.6942 37.3118 39.7469 36.4366C40.2473 36.0205 40.5011 35.3971 40.5011 34.5838C40.5011 32.8854 39.7452 30.9587 38.4791 29.4299Z" fill="#0EBE2C"/>
</g>
</g>
<g id="Group_3">
<g id="Group_4">
<path id="Vector_4" d="M38.6277 20.1947C38.1123 19.4348 37.3742 18.999 36.6028 18.999C35.8313 18.999 35.0934 19.4349 34.578 20.1947C34.1045 20.8928 33.8438 21.8095 33.8438 22.776C33.8438 23.7425 34.1045 24.6593 34.578 25.3573C35.0934 26.1172 35.8314 26.553 36.6028 26.553C37.3743 26.553 38.1123 26.1172 38.6277 25.3573C39.1011 24.6593 39.3619 23.7425 39.3619 22.776C39.3619 21.8095 39.1012 20.8927 38.6277 20.1947Z" fill="#0EBE2C"/>
</g>
</g>
<g id="Group_5">
<g id="Group_6">
<path id="Vector_5" d="M32.362 20.1947C31.8466 19.4348 31.1087 18.999 30.3372 18.999C29.5657 18.999 28.8277 19.4349 28.3123 20.1947C27.8389 20.8928 27.5781 21.8095 27.5781 22.776C27.5781 23.7425 27.8389 24.6593 28.3123 25.3573C28.8277 26.1172 29.5657 26.553 30.3372 26.553C31.1087 26.553 31.8466 26.1172 32.362 25.3573C32.8355 24.6593 33.0963 23.7426 33.0963 22.776C33.0962 21.8095 32.8355 20.8927 32.362 20.1947Z" fill="#0EBE2C"/>
</g>
</g>
<g id="Group_7">
<g id="Group_8">
<path id="Vector_6" d="M43.8164 26.122C43.6086 25.4152 43.1633 24.9017 42.5624 24.676C42.0789 24.4944 41.5331 24.5252 41.0256 24.7627C40.3261 25.09 39.7544 25.7659 39.4571 26.617C39.2142 27.3125 39.1839 28.0476 39.3719 28.687C39.5796 29.3938 40.025 29.9073 40.6259 30.133C40.8338 30.2111 41.0532 30.2499 41.2761 30.2499C41.5717 30.2499 41.8734 30.1817 42.1627 30.0463C42.8622 29.719 43.4339 29.0431 43.7312 28.1921V28.192C43.9741 27.4966 44.0044 26.7614 43.8164 26.122Z" fill="#0EBE2C"/>
</g>
</g>
<g id="Group_9">
<g id="Group_10">
<path id="Vector_7" d="M27.4812 26.6169C27.1839 25.7658 26.6122 25.09 25.9128 24.7627C25.4052 24.5252 24.8593 24.4944 24.3759 24.676C23.775 24.9017 23.3296 25.4153 23.1219 26.122C22.9339 26.7614 22.9642 27.4966 23.2071 28.192V28.1921C23.5045 29.0432 24.0762 29.719 24.7756 30.0463C25.0649 30.1817 25.3667 30.2499 25.6622 30.2499C25.8851 30.2499 26.1046 30.2111 26.3125 30.133C26.9134 29.9073 27.3587 29.3937 27.5665 28.687C27.7544 28.0476 27.7241 27.3124 27.4812 26.6169Z" fill="#0EBE2C"/>
</g>
</g>
</g>
<path id="My Wishlist" d="M19.496 40.5116H20.3177L21.7463 43.9999H21.7989L23.2275 40.5116H24.0492V44.999H23.405V41.7518H23.3634L22.0399 44.9925H21.5053L20.1818 41.7496H20.1402V44.999H19.496V40.5116ZM24.9015 46.2611C24.8036 46.2611 24.7145 46.2531 24.6341 46.237C24.5538 46.2224 24.4939 46.2063 24.4545 46.1888L24.6122 45.652C24.732 45.6841 24.8386 45.698 24.9321 45.6936C25.0256 45.6892 25.1082 45.6542 25.1797 45.5884C25.2528 45.5227 25.317 45.4153 25.3726 45.2663L25.4536 45.0428L24.2222 41.6335H24.9234L25.7757 44.2453H25.8108L26.6631 41.6335H27.3665L25.9795 45.4482C25.9152 45.6235 25.8334 45.7718 25.7341 45.893C25.6348 46.0157 25.5164 46.1077 25.3791 46.1691C25.2418 46.2304 25.0826 46.2611 24.9015 46.2611ZM29.5591 44.999L28.3146 40.5116H29.0267L29.9009 43.9867H29.9426L30.8519 40.5116H31.5574L32.4667 43.9889H32.5084L33.3804 40.5116H34.0947L32.848 44.999H32.1666L31.2222 41.6378H31.1871L30.2427 44.999H29.5591ZM34.1659 44.999V41.6335H34.821V44.999H34.1659ZM34.4968 41.1142C34.3828 41.1142 34.2849 41.0762 34.2031 41.0002C34.1228 40.9228 34.0826 40.8308 34.0826 40.7241C34.0826 40.616 34.1228 40.524 34.2031 40.4481C34.2849 40.3706 34.3828 40.3319 34.4968 40.3319C34.6107 40.3319 34.7078 40.3706 34.7882 40.4481C34.87 40.524 34.9109 40.616 34.9109 40.7241C34.9109 40.8308 34.87 40.9228 34.7882 41.0002C34.7078 41.0762 34.6107 41.1142 34.4968 41.1142ZM37.7308 42.4551L37.137 42.5603C37.1122 42.4843 37.0727 42.412 37.0187 42.3434C36.9661 42.2747 36.8945 42.2185 36.8039 42.1747C36.7134 42.1308 36.6002 42.1089 36.4643 42.1089C36.2788 42.1089 36.124 42.1506 35.9998 42.2338C35.8756 42.3156 35.8136 42.4215 35.8136 42.5515C35.8136 42.664 35.8552 42.7546 35.9384 42.8232C36.0217 42.8919 36.1561 42.9481 36.3416 42.992L36.8763 43.1147C37.1859 43.1862 37.4167 43.2965 37.5686 43.4455C37.7206 43.5945 37.7965 43.7881 37.7965 44.0262C37.7965 44.2277 37.7381 44.4074 37.6212 44.5652C37.5058 44.7215 37.3444 44.8442 37.137 44.9333C36.931 45.0224 36.6922 45.0669 36.4205 45.0669C36.0436 45.0669 35.7361 44.9866 35.498 44.8259C35.2599 44.6638 35.1139 44.4337 35.0598 44.1357L35.693 44.0393C35.7325 44.2044 35.8136 44.3293 35.9363 44.414C36.059 44.4973 36.2189 44.5389 36.4161 44.5389C36.6308 44.5389 36.8025 44.4943 36.931 44.4052C37.0596 44.3147 37.1238 44.2044 37.1238 44.0744C37.1238 43.9692 37.0844 43.8808 37.0055 43.8092C36.9281 43.7377 36.8091 43.6836 36.6484 43.6471L36.0787 43.5222C35.7646 43.4506 35.5324 43.3367 35.3819 43.1804C35.2329 43.0241 35.1584 42.8262 35.1584 42.5866C35.1584 42.3879 35.2139 42.2141 35.3249 42.0651C35.436 41.9161 35.5893 41.8 35.7851 41.7167C35.9808 41.632 36.205 41.5896 36.4577 41.5896C36.8215 41.5896 37.1078 41.6685 37.3167 41.8263C37.5256 41.9826 37.6636 42.1922 37.7308 42.4551ZM38.6784 43.0007V44.999H38.0232V40.5116H38.6696V42.1812H38.7113C38.7901 42.0001 38.9106 41.8562 39.0728 41.7496C39.2349 41.6429 39.4467 41.5896 39.7082 41.5896C39.939 41.5896 40.1406 41.6371 40.313 41.7321C40.4868 41.827 40.6212 41.9687 40.7161 42.1571C40.8125 42.3441 40.8608 42.5778 40.8608 42.8583V44.999H40.2056V42.9372C40.2056 42.6903 40.1421 42.4989 40.015 42.3631C39.8879 42.2258 39.7111 42.1571 39.4847 42.1571C39.3299 42.1571 39.1911 42.19 39.0684 42.2557C38.9472 42.3215 38.8515 42.4179 38.7814 42.545C38.7127 42.6706 38.6784 42.8225 38.6784 43.0007ZM41.8965 40.5116V44.999H41.2414V40.5116H41.8965ZM42.2843 44.999V41.6335H42.9395V44.999H42.2843ZM42.6152 41.1142C42.5012 41.1142 42.4034 41.0762 42.3216 41.0002C42.2412 40.9228 42.201 40.8308 42.201 40.7241C42.201 40.616 42.2412 40.524 42.3216 40.4481C42.4034 40.3706 42.5012 40.3319 42.6152 40.3319C42.7291 40.3319 42.8262 40.3706 42.9066 40.4481C42.9884 40.524 43.0293 40.616 43.0293 40.7241C43.0293 40.8308 42.9884 40.9228 42.9066 41.0002C42.8262 41.0762 42.7291 41.1142 42.6152 41.1142ZM45.8492 42.4551L45.2554 42.5603C45.2306 42.4843 45.1911 42.412 45.1371 42.3434C45.0845 42.2747 45.0129 42.2185 44.9224 42.1747C44.8318 42.1308 44.7186 42.1089 44.5827 42.1089C44.3972 42.1089 44.2424 42.1506 44.1182 42.2338C43.994 42.3156 43.932 42.4215 43.932 42.5515C43.932 42.664 43.9736 42.7546 44.0569 42.8232C44.1401 42.8919 44.2745 42.9481 44.46 42.992L44.9947 43.1147C45.3043 43.1862 45.5351 43.2965 45.6871 43.4455C45.839 43.5945 45.9149 43.7881 45.9149 44.0262C45.9149 44.2277 45.8565 44.4074 45.7396 44.5652C45.6242 44.7215 45.4628 44.8442 45.2554 44.9333C45.0494 45.0224 44.8106 45.0669 44.5389 45.0669C44.162 45.0669 43.8545 44.9866 43.6164 44.8259C43.3783 44.6638 43.2323 44.4337 43.1782 44.1357L43.8115 44.0393C43.8509 44.2044 43.932 44.3293 44.0547 44.414C44.1774 44.4973 44.3373 44.5389 44.5345 44.5389C44.7493 44.5389 44.9209 44.4943 45.0494 44.4052C45.178 44.3147 45.2423 44.2044 45.2423 44.0744C45.2423 43.9692 45.2028 43.8808 45.1239 43.8092C45.0465 43.7377 44.9275 43.6836 44.7668 43.6471L44.1971 43.5222C43.883 43.4506 43.6508 43.3367 43.5003 43.1804C43.3513 43.0241 43.2768 42.8262 43.2768 42.5866C43.2768 42.3879 43.3323 42.2141 43.4433 42.0651C43.5544 41.9161 43.7077 41.8 43.9035 41.7167C44.0992 41.632 44.3234 41.5896 44.5762 41.5896C44.9399 41.5896 45.2262 41.6685 45.4351 41.8263C45.644 41.9826 45.782 42.1922 45.8492 42.4551ZM47.7127 41.6335V42.1593H45.8743V41.6335H47.7127ZM46.3673 40.8271H47.0225V44.0108C47.0225 44.1379 47.0415 44.2336 47.0795 44.2979C47.1174 44.3607 47.1664 44.4038 47.2263 44.4271C47.2876 44.4491 47.3541 44.46 47.4256 44.46C47.4782 44.46 47.5243 44.4564 47.5637 44.4491C47.6031 44.4417 47.6338 44.4359 47.6557 44.4315L47.774 44.9727C47.7361 44.9873 47.682 45.0019 47.6119 45.0166C47.5418 45.0326 47.4541 45.0414 47.349 45.0428C47.1766 45.0458 47.0159 45.0151 46.8669 44.9508C46.7179 44.8865 46.5974 44.7872 46.5054 44.6528C46.4133 44.5184 46.3673 44.3497 46.3673 44.1467V40.8271Z" fill="#0EBE2C"/>
</g>
</g>
<defs>
<filter id="filter0_d_1956_18727" x="-22.9452" y="-16.5205" width="112.89" height="112.89" filterUnits="userSpaceOnUse" color-interpolation-filters="sRGB">
<feFlood flood-opacity="0" result="BackgroundImageFix"/>
<feColorMatrix in="SourceAlpha" type="matrix" values="0 0 0 0 0 0 0 0 0 0 0 0 0 0 0 0 0 0 127 0" result="hardAlpha"/>
<feOffset dy="6.42466"/>
<feGaussianBlur stdDeviation="11.4726"/>
<feComposite in2="hardAlpha" operator="out"/>
<feColorMatrix type="matrix" values="0 0 0 0 0.054902 0 0 0 0 0.745098 0 0 0 0 0.172549 0 0 0 0.25 0"/>
<feBlend mode="normal" in2="BackgroundImageFix" result="effect1_dropShadow_1956_18727"/>
<feBlend mode="normal" in="SourceGraphic" in2="effect1_dropShadow_1956_18727" result="shape"/>
</filter>
<linearGradient id="paint0_linear_1956_18727" x1="49.8246" y1="49.8236" x2="-3.03075" y2="-3.03174" gradientUnits="userSpaceOnUse">
<stop stop-color="#2BD747"/>
<stop offset="1" stop-color="#34DA4F"/>
</linearGradient>
<linearGradient id="paint1_linear_1956_18727" x1="28.5882" y1="25.83" x2="41.2745" y2="45.1767" gradientUnits="userSpaceOnUse">
<stop stop-color="#F1FFF4"/>
<stop offset="0.035" stop-color="#F0FFF3"/>
<stop offset="1" stop-color="#DBFFE1"/>
</linearGradient>
</defs>
</svg>
