<svg width="27" height="25" viewBox="0 0 27 25" fill="none" xmlns="http://www.w3.org/2000/svg">
<mask id="path-1-inside-1_1931_43625" fill="white">
<path fill-rule="evenodd" clip-rule="evenodd" d="M13.434 1.28389C13.1166 1.75896 12.9472 2.31748 12.9472 2.88884C12.948 3.65475 13.2527 4.38904 13.7942 4.93062C14.3358 5.47219 15.0701 5.77683 15.836 5.77769C16.4074 5.77769 16.9659 5.60826 17.441 5.29083C17.916 4.9734 18.2863 4.52222 18.5049 3.99436C18.7236 3.46649 18.7808 2.88564 18.6693 2.32526C18.5579 1.76488 18.2827 1.25014 17.8787 0.846124C17.4747 0.442112 16.96 0.166976 16.3996 0.0555096C15.8392 -0.055957 15.2584 0.00125169 14.7305 0.219901C14.2026 0.438551 13.7515 0.808821 13.434 1.28389ZM5.85723 6.23619C6.17466 6.71126 6.34409 7.26979 6.34409 7.84115C6.34323 8.60705 6.0386 9.34134 5.49702 9.88292C4.95544 10.4245 4.22116 10.7291 3.45525 10.73C2.88389 10.73 2.32536 10.5606 1.8503 10.2431C1.37523 9.9257 1.00496 9.47452 0.786308 8.94666C0.567658 8.41879 0.510449 7.83794 0.621916 7.27756C0.733382 6.71718 1.00852 6.20244 1.41253 5.79843C1.81654 5.39441 2.33128 5.11928 2.89166 5.00781C3.45205 4.89634 4.0329 4.95355 4.56076 5.1722C5.08863 5.39085 5.5398 5.76112 5.85723 6.23619ZM10.0125 5.29083C9.53744 5.60826 8.97891 5.77769 8.40755 5.77769C7.64165 5.77683 6.90736 5.47219 6.36578 4.93062C5.8242 4.38904 5.51957 3.65475 5.51871 2.88884C5.51871 2.31748 5.68814 1.75896 6.00557 1.28389C6.323 0.808821 6.77417 0.438551 7.30204 0.219901C7.82991 0.00125169 8.41076 -0.055957 8.97114 0.0555096C9.53152 0.166976 10.0463 0.442112 10.4503 0.846124C10.8543 1.25014 11.1294 1.76488 11.2409 2.32526C11.3524 2.88564 11.2951 3.46649 11.0765 3.99436C10.8578 4.52222 10.4876 4.9734 10.0125 5.29083ZM16.4808 9.87579C16.7485 10.8038 17.3734 11.5876 18.2185 12.0552C19.1499 12.5613 19.851 13.4063 20.1764 14.4153C20.5018 15.4242 20.4265 16.5196 19.9661 17.4745C19.5058 18.4294 18.6957 19.1706 17.7038 19.5445C16.7118 19.9184 15.614 19.8963 14.6379 19.4828C13.6362 19.0706 12.5587 18.9146 11.4996 19.0146C11.4996 19.4513 11.5001 19.8008 11.5226 20.0959C11.5452 20.3942 11.5881 20.597 11.6528 20.7444C11.7542 20.9755 11.954 21.1809 12.6603 21.3222C13.3863 21.4674 14.5096 21.5156 16.2756 21.5234C17.1554 21.5274 18.1757 21.5215 19.3678 21.5147C19.8435 21.5119 20.3465 21.5091 20.8789 21.5066C21.1103 20.2696 22.1958 19.3333 23.5 19.3333C24.9728 19.3333 26.1667 20.5272 26.1667 22C26.1667 23.4728 24.9728 24.6667 23.5 24.6667C22.2005 24.6667 21.118 23.7371 20.8814 22.5066C20.3539 22.5091 19.8538 22.5119 19.3803 22.5146H19.3798C18.1795 22.5215 17.1491 22.5273 16.2711 22.5234C14.5214 22.5157 13.3008 22.4701 12.4642 22.3028C11.608 22.1316 11.0264 21.8057 10.7371 21.1462C10.6064 20.8483 10.5516 20.516 10.5254 20.1717C10.5031 19.8779 10.5 19.5464 10.4996 19.1874C10.1935 19.2648 9.89162 19.3646 9.59636 19.4866C8.61972 19.8972 7.52258 19.9166 6.53206 19.5407C5.54154 19.1648 4.73349 18.4224 4.27516 17.4672C3.81684 16.512 3.74335 15.4172 4.0699 14.4093C4.39645 13.4014 5.09804 12.5577 6.02944 12.0528C6.87282 11.5852 7.4962 10.8021 7.76272 9.87534C8.0371 8.93148 8.61043 8.10219 9.39653 7.5121C10.1826 6.92201 11.139 6.60302 12.1219 6.60307C13.1049 6.60312 14.0612 6.92222 14.8473 7.51238C15.6333 8.10255 16.2066 8.93191 16.4808 9.87579ZM19.1834 5.43916C19.6584 5.12173 20.2169 4.9523 20.7883 4.9523C21.5542 4.95316 22.2885 5.2578 22.8301 5.79937C23.3717 6.34095 23.6763 7.07524 23.6771 7.84115C23.6771 8.4125 23.5077 8.97103 23.1903 9.4461C22.8729 9.92117 22.4217 10.2914 21.8938 10.5101C21.366 10.7287 20.7851 10.7859 20.2247 10.6745C19.6643 10.563 19.1496 10.2879 18.7456 9.88387C18.3416 9.47985 18.0664 8.96511 17.955 8.40473C17.8435 7.84435 17.9007 7.2635 18.1194 6.73563C18.338 6.20777 18.7083 5.75659 19.1834 5.43916Z"/>
</mask>
<path fill-rule="evenodd" clip-rule="evenodd" d="M13.434 1.28389C13.1166 1.75896 12.9472 2.31748 12.9472 2.88884C12.948 3.65475 13.2527 4.38904 13.7942 4.93062C14.3358 5.47219 15.0701 5.77683 15.836 5.77769C16.4074 5.77769 16.9659 5.60826 17.441 5.29083C17.916 4.9734 18.2863 4.52222 18.5049 3.99436C18.7236 3.46649 18.7808 2.88564 18.6693 2.32526C18.5579 1.76488 18.2827 1.25014 17.8787 0.846124C17.4747 0.442112 16.96 0.166976 16.3996 0.0555096C15.8392 -0.055957 15.2584 0.00125169 14.7305 0.219901C14.2026 0.438551 13.7515 0.808821 13.434 1.28389ZM5.85723 6.23619C6.17466 6.71126 6.34409 7.26979 6.34409 7.84115C6.34323 8.60705 6.0386 9.34134 5.49702 9.88292C4.95544 10.4245 4.22116 10.7291 3.45525 10.73C2.88389 10.73 2.32536 10.5606 1.8503 10.2431C1.37523 9.9257 1.00496 9.47452 0.786308 8.94666C0.567658 8.41879 0.510449 7.83794 0.621916 7.27756C0.733382 6.71718 1.00852 6.20244 1.41253 5.79843C1.81654 5.39441 2.33128 5.11928 2.89166 5.00781C3.45205 4.89634 4.0329 4.95355 4.56076 5.1722C5.08863 5.39085 5.5398 5.76112 5.85723 6.23619ZM10.0125 5.29083C9.53744 5.60826 8.97891 5.77769 8.40755 5.77769C7.64165 5.77683 6.90736 5.47219 6.36578 4.93062C5.8242 4.38904 5.51957 3.65475 5.51871 2.88884C5.51871 2.31748 5.68814 1.75896 6.00557 1.28389C6.323 0.808821 6.77417 0.438551 7.30204 0.219901C7.82991 0.00125169 8.41076 -0.055957 8.97114 0.0555096C9.53152 0.166976 10.0463 0.442112 10.4503 0.846124C10.8543 1.25014 11.1294 1.76488 11.2409 2.32526C11.3524 2.88564 11.2951 3.46649 11.0765 3.99436C10.8578 4.52222 10.4876 4.9734 10.0125 5.29083ZM16.4808 9.87579C16.7485 10.8038 17.3734 11.5876 18.2185 12.0552C19.1499 12.5613 19.851 13.4063 20.1764 14.4153C20.5018 15.4242 20.4265 16.5196 19.9661 17.4745C19.5058 18.4294 18.6957 19.1706 17.7038 19.5445C16.7118 19.9184 15.614 19.8963 14.6379 19.4828C13.6362 19.0706 12.5587 18.9146 11.4996 19.0146C11.4996 19.4513 11.5001 19.8008 11.5226 20.0959C11.5452 20.3942 11.5881 20.597 11.6528 20.7444C11.7542 20.9755 11.954 21.1809 12.6603 21.3222C13.3863 21.4674 14.5096 21.5156 16.2756 21.5234C17.1554 21.5274 18.1757 21.5215 19.3678 21.5147C19.8435 21.5119 20.3465 21.5091 20.8789 21.5066C21.1103 20.2696 22.1958 19.3333 23.5 19.3333C24.9728 19.3333 26.1667 20.5272 26.1667 22C26.1667 23.4728 24.9728 24.6667 23.5 24.6667C22.2005 24.6667 21.118 23.7371 20.8814 22.5066C20.3539 22.5091 19.8538 22.5119 19.3803 22.5146H19.3798C18.1795 22.5215 17.1491 22.5273 16.2711 22.5234C14.5214 22.5157 13.3008 22.4701 12.4642 22.3028C11.608 22.1316 11.0264 21.8057 10.7371 21.1462C10.6064 20.8483 10.5516 20.516 10.5254 20.1717C10.5031 19.8779 10.5 19.5464 10.4996 19.1874C10.1935 19.2648 9.89162 19.3646 9.59636 19.4866C8.61972 19.8972 7.52258 19.9166 6.53206 19.5407C5.54154 19.1648 4.73349 18.4224 4.27516 17.4672C3.81684 16.512 3.74335 15.4172 4.0699 14.4093C4.39645 13.4014 5.09804 12.5577 6.02944 12.0528C6.87282 11.5852 7.4962 10.8021 7.76272 9.87534C8.0371 8.93148 8.61043 8.10219 9.39653 7.5121C10.1826 6.92201 11.139 6.60302 12.1219 6.60307C13.1049 6.60312 14.0612 6.92222 14.8473 7.51238C15.6333 8.10255 16.2066 8.93191 16.4808 9.87579ZM19.1834 5.43916C19.6584 5.12173 20.2169 4.9523 20.7883 4.9523C21.5542 4.95316 22.2885 5.2578 22.8301 5.79937C23.3717 6.34095 23.6763 7.07524 23.6771 7.84115C23.6771 8.4125 23.5077 8.97103 23.1903 9.4461C22.8729 9.92117 22.4217 10.2914 21.8938 10.5101C21.366 10.7287 20.7851 10.7859 20.2247 10.6745C19.6643 10.563 19.1496 10.2879 18.7456 9.88387C18.3416 9.47985 18.0664 8.96511 17.955 8.40473C17.8435 7.84435 17.9007 7.2635 18.1194 6.73563C18.338 6.20777 18.7083 5.75659 19.1834 5.43916Z" fill="white"/>
<path d="M12.9472 2.88884H11.4472L11.4472 2.89053L12.9472 2.88884ZM13.434 1.28389L12.1868 0.450533L12.1868 0.450535L13.434 1.28389ZM13.7942 4.93062L14.8549 3.86996L14.8549 3.86995L13.7942 4.93062ZM15.836 5.77769L15.8343 7.27769H15.836V5.77769ZM18.5049 3.99436L17.1191 3.42033L17.1191 3.42033L18.5049 3.99436ZM18.6693 2.32526L17.1982 2.61789V2.6179L18.6693 2.32526ZM17.8787 0.846124L16.8181 1.90678L16.8181 1.90678L17.8787 0.846124ZM14.7305 0.219901L15.3045 1.60572L14.7305 0.219901ZM6.34409 7.84115L7.84409 7.84283V7.84115H6.34409ZM5.49702 9.88292L4.43636 8.82226L4.43636 8.82226L5.49702 9.88292ZM3.45525 10.73V12.23L3.45693 12.23L3.45525 10.73ZM1.8503 10.2431L1.01694 11.4903L1.01694 11.4903L1.8503 10.2431ZM0.786308 8.94666L-0.599512 9.52068L-0.599512 9.52068L0.786308 8.94666ZM0.621916 7.27756L-0.849262 6.98492H-0.849262L0.621916 7.27756ZM1.41253 5.79843L0.35187 4.73776L0.351869 4.73777L1.41253 5.79843ZM2.89166 5.00781L3.1843 6.47899L3.1843 6.47899L2.89166 5.00781ZM4.56076 5.1722L5.13479 3.78638V3.78638L4.56076 5.1722ZM8.40755 5.77769L8.40587 7.27769H8.40755V5.77769ZM10.0125 5.29083L10.8459 6.53803L10.8459 6.53803L10.0125 5.29083ZM6.36578 4.93062L7.42644 3.86996L7.42644 3.86995L6.36578 4.93062ZM5.51871 2.88884H4.01871L4.01871 2.89053L5.51871 2.88884ZM6.00557 1.28389L4.75836 0.450534V0.450534L6.00557 1.28389ZM7.30204 0.219901L7.87607 1.60572L7.30204 0.219901ZM8.97114 0.0555096L9.26377 -1.41567L9.26377 -1.41567L8.97114 0.0555096ZM10.4503 0.846124L11.5109 -0.214536L11.5109 -0.214537L10.4503 0.846124ZM11.2409 2.32526L9.76971 2.61789L11.2409 2.32526ZM11.0765 3.99436L12.4623 4.56838L12.4623 4.56838L11.0765 3.99436ZM18.2185 12.0552L17.4922 13.3677L17.5024 13.3733L18.2185 12.0552ZM16.4808 9.87579L17.9221 9.46014L17.9213 9.45722L16.4808 9.87579ZM19.9661 17.4745L21.3173 18.1259V18.1259L19.9661 17.4745ZM17.7038 19.5445L17.1747 18.1409L17.1747 18.1409L17.7038 19.5445ZM14.6379 19.4828L15.223 18.1016L15.2159 18.0986L15.2087 18.0956L14.6379 19.4828ZM11.4996 19.0146L11.3584 17.5213L9.99953 17.6497L9.99956 19.0147L11.4996 19.0146ZM11.5226 20.0959L10.0269 20.2096V20.2096L11.5226 20.0959ZM11.6528 20.7444L13.0265 20.1419L13.0265 20.1418L11.6528 20.7444ZM12.6603 21.3222L12.3662 22.7931H12.3662L12.6603 21.3222ZM16.2756 21.5234L16.2689 23.0234H16.2689L16.2756 21.5234ZM19.3678 21.5147L19.3592 20.0147H19.3592L19.3678 21.5147ZM20.8789 21.5066L20.8859 23.0066L22.1254 23.0008L22.3533 21.7824L20.8789 21.5066ZM20.8814 22.5066L22.3544 22.2233L22.1193 21.0008L20.8744 21.0066L20.8814 22.5066ZM19.3803 22.5146V24.0146L19.3888 24.0146L19.3803 22.5146ZM19.3798 22.5146V21.0146L19.3713 21.0146L19.3798 22.5146ZM16.2711 22.5234L16.2778 21.0234H16.2778L16.2711 22.5234ZM12.4642 22.3028L12.7584 20.8319L12.4642 22.3028ZM10.7371 21.1462L12.1107 20.5436L12.1107 20.5436L10.7371 21.1462ZM10.5254 20.1717L9.02975 20.2854V20.2854L10.5254 20.1717ZM10.4996 19.1874L11.9996 19.1856L11.9974 17.261L10.1316 17.7332L10.4996 19.1874ZM9.59636 19.4866L9.02343 18.1003L9.015 18.1038L9.59636 19.4866ZM6.53206 19.5407L7.06428 18.1383L7.06427 18.1383L6.53206 19.5407ZM6.02944 12.0528L6.74431 13.3715L6.75054 13.3681L6.75674 13.3647L6.02944 12.0528ZM7.76272 9.87534L6.32234 9.45661L6.32115 9.46077L7.76272 9.87534ZM9.39653 7.5121L10.297 8.71172L9.39653 7.5121ZM14.8473 7.51238L13.9466 8.71191L13.9466 8.71191L14.8473 7.51238ZM20.7883 4.9523L20.79 3.4523H20.7883V4.9523ZM19.1834 5.43916L20.0167 6.68637L20.0167 6.68636L19.1834 5.43916ZM22.8301 5.79937L23.8907 4.73871L23.8907 4.73871L22.8301 5.79937ZM23.6771 7.84115H25.1771V7.83946L23.6771 7.84115ZM18.7456 9.88387L17.6849 10.9445L17.6849 10.9445L18.7456 9.88387ZM17.955 8.40473L16.4838 8.69736L16.4838 8.69737L17.955 8.40473ZM18.1194 6.73563L16.7335 6.1616L16.7335 6.16161L18.1194 6.73563ZM14.4472 2.88884C14.4472 2.61416 14.5286 2.34564 14.6812 2.11724L12.1868 0.450535C11.7046 1.17227 11.4472 2.02081 11.4472 2.88884H14.4472ZM14.8549 3.86995C14.5942 3.60927 14.4476 3.25583 14.4472 2.88716L11.4472 2.89053C11.4485 4.05367 11.9111 5.16881 12.7336 5.99128L14.8549 3.86995ZM15.8377 4.27769C15.469 4.27727 15.1156 4.13064 14.8549 3.86996L12.7336 5.99128C13.556 6.81375 14.6712 7.27638 15.8343 7.27769L15.8377 4.27769ZM16.6076 4.04362C16.3792 4.19623 16.1107 4.27769 15.836 4.27769V7.27769C16.704 7.27769 17.5526 7.02029 18.2743 6.53803L16.6076 4.04362ZM17.1191 3.42033C17.014 3.67411 16.836 3.89102 16.6076 4.04362L18.2743 6.53803C18.9961 6.05578 19.5586 5.37034 19.8908 4.56838L17.1191 3.42033ZM17.1982 2.6179C17.2517 2.8873 17.2242 3.16655 17.1191 3.42033L19.8908 4.56838C20.2229 3.76643 20.3099 2.88398 20.1405 2.03262L17.1982 2.6179ZM16.8181 1.90678C17.0123 2.10102 17.1446 2.34848 17.1982 2.61789L20.1405 2.03263C19.9712 1.18127 19.5532 0.399254 18.9394 -0.214537L16.8181 1.90678ZM16.107 1.52669C16.3764 1.58028 16.6238 1.71255 16.8181 1.90678L18.9394 -0.214535C18.3256 -0.828328 17.5436 -1.24632 16.6922 -1.41567L16.107 1.52669ZM15.3045 1.60572C15.5583 1.5006 15.8375 1.4731 16.107 1.52669L16.6922 -1.41567C15.8409 -1.58501 14.9584 -1.4981 14.1565 -1.16592L15.3045 1.60572ZM14.6812 2.11724C14.8338 1.88885 15.0507 1.71084 15.3045 1.60572L14.1565 -1.16592C13.3545 -0.833737 12.6691 -0.271207 12.1868 0.450533L14.6812 2.11724ZM7.84409 7.84115C7.84409 6.97311 7.58669 6.12458 7.10444 5.40283L4.61003 7.06955C4.76264 7.29794 4.84409 7.56646 4.84409 7.84115H7.84409ZM6.55768 10.9436C7.38015 10.1211 7.84279 9.00597 7.84409 7.84283L4.84409 7.83946C4.84368 8.20813 4.69705 8.56157 4.43636 8.82226L6.55768 10.9436ZM3.45693 12.23C4.62008 12.2287 5.73521 11.766 6.55768 10.9436L4.43636 8.82226C4.17568 9.08294 3.82223 9.22958 3.45357 9.22999L3.45693 12.23ZM1.01694 11.4903C1.73868 11.9726 2.58722 12.23 3.45525 12.23V9.22999C3.18057 9.22999 2.91205 9.14853 2.68365 8.99592L1.01694 11.4903ZM-0.599512 9.52068C-0.26733 10.3226 0.295198 11.0081 1.01694 11.4903L2.68365 8.99593C2.45526 8.84332 2.27724 8.62641 2.17213 8.37263L-0.599512 9.52068ZM-0.849262 6.98492C-1.01861 7.83628 -0.931693 8.71873 -0.599512 9.52068L2.17213 8.37263C2.06701 8.11885 2.03951 7.8396 2.09309 7.57019L-0.849262 6.98492ZM0.351869 4.73777C-0.26192 5.35156 -0.679917 6.13357 -0.849262 6.98492L2.09309 7.57019C2.14668 7.30079 2.27896 7.05332 2.47319 6.85909L0.351869 4.73777ZM2.59903 3.53663C1.74768 3.70598 0.96566 4.12397 0.35187 4.73776L2.47319 6.85909C2.66742 6.66485 2.91489 6.53258 3.1843 6.47899L2.59903 3.53663ZM5.13479 3.78638C4.33283 3.4542 3.45038 3.36729 2.59903 3.53663L3.1843 6.47899C3.45371 6.4254 3.73296 6.4529 3.98674 6.55802L5.13479 3.78638ZM7.10444 5.40283C6.62219 4.68109 5.93674 4.11856 5.13479 3.78638L3.98674 6.55802C4.24051 6.66314 4.45742 6.84115 4.61003 7.06955L7.10444 5.40283ZM8.40755 7.27769C9.27558 7.27769 10.1241 7.02029 10.8459 6.53803L9.17915 4.04362C8.95076 4.19623 8.68224 4.27769 8.40755 4.27769V7.27769ZM5.30512 5.99128C6.12759 6.81375 7.24272 7.27638 8.40587 7.27769L8.40924 4.27769C8.04057 4.27727 7.68712 4.13064 7.42644 3.86996L5.30512 5.99128ZM4.01871 2.89053C4.02001 4.05367 4.48265 5.16881 5.30512 5.99128L7.42644 3.86995C7.16576 3.60927 7.01912 3.25583 7.01871 2.88716L4.01871 2.89053ZM4.75836 0.450534C4.27611 1.17228 4.01871 2.02081 4.01871 2.88884H7.01871C7.01871 2.61416 7.10016 2.34564 7.25277 2.11724L4.75836 0.450534ZM6.72801 -1.16592C5.92606 -0.833737 5.24061 -0.271209 4.75836 0.450534L7.25277 2.11724C7.40538 1.88885 7.62229 1.71084 7.87607 1.60572L6.72801 -1.16592ZM9.26377 -1.41567C8.41242 -1.58501 7.52997 -1.4981 6.72801 -1.16592L7.87607 1.60572C8.12984 1.5006 8.40909 1.4731 8.6785 1.52669L9.26377 -1.41567ZM11.5109 -0.214537C10.8971 -0.828327 10.1151 -1.24632 9.26377 -1.41567L8.6785 1.52669C8.94791 1.58028 9.19538 1.71255 9.38961 1.90679L11.5109 -0.214537ZM12.7121 2.03262C12.5427 1.18127 12.1247 0.399254 11.5109 -0.214536L9.38961 1.90678C9.58385 2.10102 9.71612 2.34849 9.76971 2.61789L12.7121 2.03262ZM12.4623 4.56838C12.7945 3.76642 12.8814 2.88398 12.7121 2.03262L9.76971 2.61789C9.8233 2.8873 9.79579 3.16655 9.69067 3.42033L12.4623 4.56838ZM10.8459 6.53803C11.5676 6.05578 12.1301 5.37034 12.4623 4.56838L9.69068 3.42033C9.58556 3.67411 9.40755 3.89102 9.17915 4.04362L10.8459 6.53803ZM18.9447 10.7428C18.4474 10.4676 18.0796 10.0063 17.9221 9.46014L15.0396 10.2914C15.4173 11.6013 16.2994 12.7077 17.4922 13.3677L18.9447 10.7428ZM21.604 13.9549C21.1604 12.5793 20.2045 11.4271 18.9345 10.7372L17.5024 13.3733C18.0954 13.6954 18.5417 14.2334 18.7488 14.8756L21.604 13.9549ZM21.3173 18.1259C21.945 16.8239 22.0476 15.3304 21.604 13.9549L18.7488 14.8756C18.9559 15.5179 18.908 16.2152 18.615 16.8231L21.3173 18.1259ZM18.2328 20.9481C19.5853 20.4384 20.6897 19.4278 21.3173 18.1259L18.615 16.8231C18.3219 17.431 17.8062 17.9029 17.1747 18.1409L18.2328 20.9481ZM14.0528 20.8639C15.3836 21.4277 16.8804 21.4579 18.2328 20.9481L17.1747 18.1409C16.5433 18.3789 15.8444 18.3648 15.223 18.1016L14.0528 20.8639ZM11.6407 20.508C12.4596 20.4306 13.2927 20.5512 14.0671 20.8699L15.2087 18.0956C13.9798 17.5899 12.6577 17.3985 11.3584 17.5213L11.6407 20.508ZM9.99956 19.0147C9.99957 19.4341 9.99922 19.846 10.0269 20.2096L13.0182 19.9822C13.001 19.7557 12.9996 19.4685 12.9996 19.0146L9.99956 19.0147ZM10.0269 20.2096C10.0547 20.5762 10.1153 20.9736 10.2792 21.347L13.0265 20.1418C13.0464 20.1873 13.0476 20.2059 13.0418 20.1778C13.036 20.149 13.0263 20.0884 13.0182 19.9822L10.0269 20.2096ZM10.2792 21.347C10.4302 21.6913 10.6827 22.046 11.1134 22.3254C11.489 22.5691 11.9235 22.7045 12.3662 22.7931L12.9545 19.8513C12.8306 19.8266 12.7589 19.8048 12.7237 19.7922C12.6891 19.7799 12.7042 19.7815 12.7461 19.8086C12.7925 19.8388 12.8551 19.8895 12.916 19.9641C12.9761 20.0379 13.0104 20.1053 13.0265 20.1419L10.2792 21.347ZM12.3662 22.7931C13.2583 22.9715 14.5277 23.0157 16.2689 23.0234L16.2823 20.0235C14.4916 20.0155 13.5144 19.9633 12.9545 19.8513L12.3662 22.7931ZM16.2689 23.0234C17.158 23.0274 18.1867 23.0215 19.3764 23.0147L19.3592 20.0147C18.1647 20.0215 17.1528 20.0273 16.2823 20.0235L16.2689 23.0234ZM19.3764 23.0147C19.8522 23.0119 20.3544 23.009 20.8859 23.0066L20.8719 20.0066C20.3386 20.0091 19.8348 20.012 19.3592 20.0147L19.3764 23.0147ZM22.3533 21.7824C22.4544 21.2421 22.9311 20.8333 23.5 20.8333V17.8333C21.4606 17.8333 19.7662 19.297 19.4045 21.2308L22.3533 21.7824ZM23.5 20.8333C24.1443 20.8333 24.6667 21.3557 24.6667 22H27.6667C27.6667 19.6988 25.8012 17.8333 23.5 17.8333V20.8333ZM24.6667 22C24.6667 22.6443 24.1443 23.1667 23.5 23.1667V26.1667C25.8012 26.1667 27.6667 24.3012 27.6667 22H24.6667ZM23.5 23.1667C22.9331 23.1667 22.4578 22.7609 22.3544 22.2233L19.4084 22.7899C19.7783 24.7133 21.4678 26.1667 23.5 26.1667V23.1667ZM20.8744 21.0066C20.346 21.0091 19.8452 21.0119 19.3717 21.0146L19.3888 24.0146C19.8625 24.0119 20.3617 24.0091 20.8884 24.0066L20.8744 21.0066ZM19.3803 21.0146H19.3798V24.0146H19.3803V21.0146ZM19.3713 21.0146C18.1685 21.0215 17.1465 21.0273 16.2778 21.0234L16.2645 24.0234C17.1517 24.0274 18.1905 24.0214 19.3884 24.0146L19.3713 21.0146ZM16.2778 21.0234C14.5042 21.0156 13.4292 20.9661 12.7584 20.8319L12.1701 23.7737C13.1725 23.9741 14.5385 24.0157 16.2645 24.0234L16.2778 21.0234ZM12.7584 20.8319C12.433 20.7668 12.2725 20.6929 12.1985 20.6454C12.1501 20.6143 12.1328 20.5939 12.1107 20.5436L9.36343 21.7488C9.93588 23.0537 11.0932 23.5583 12.1701 23.7737L12.7584 20.8319ZM12.1107 20.5436C12.0789 20.4711 12.042 20.3329 12.0211 20.058L9.02975 20.2854C9.0612 20.6991 9.13385 21.2254 9.36343 21.7488L12.1107 20.5436ZM12.0211 20.058C12.0036 19.8272 12 19.5479 11.9996 19.1856L8.99963 19.1891C9.00004 19.545 9.00262 19.9286 9.02975 20.2854L12.0211 20.058ZM10.1693 20.8729C10.3976 20.7785 10.631 20.7014 10.8676 20.6415L10.1316 17.7332C9.756 17.8283 9.38561 17.9506 9.02344 18.1003L10.1693 20.8729ZM5.99984 20.9431C7.35032 21.4556 8.84616 21.4292 10.1777 20.8694L9.015 18.1038C8.39327 18.3652 7.69484 18.3776 7.06428 18.1383L5.99984 20.9431ZM2.92279 18.1161C3.54766 19.4184 4.64937 20.4306 5.99985 20.9431L7.06427 18.1383C6.43371 17.899 5.91931 17.4264 5.62754 16.8183L2.92279 18.1161ZM2.64293 13.947C2.19771 15.3211 2.29791 16.8138 2.92279 18.1161L5.62754 16.8183C5.33578 16.2102 5.28899 15.5132 5.49687 14.8716L2.64293 13.947ZM5.31457 10.7341C4.0447 11.4225 3.08815 12.5728 2.64293 13.947L5.49687 14.8716C5.70475 14.23 6.15138 13.6929 6.74431 13.3715L5.31457 10.7341ZM6.32115 9.46077C6.16446 10.0056 5.79797 10.466 5.30213 10.7409L6.75674 13.3647C7.94767 12.7044 8.82794 11.5986 9.20429 10.2899L6.32115 9.46077ZM8.49603 6.31248C7.45018 7.09755 6.6874 8.20087 6.32235 9.45661L9.20309 10.2941C9.38681 9.66209 9.77069 9.10682 10.297 8.71172L8.49603 6.31248ZM12.122 5.10307C10.8143 5.10301 9.54188 5.5274 8.49603 6.31248L10.297 8.71172C10.8234 8.31662 11.4637 8.10304 12.1219 8.10307L12.122 5.10307ZM15.7479 6.31285C14.7021 5.52767 13.4298 5.10314 12.122 5.10307L12.1219 8.10307C12.78 8.10311 13.4203 8.31676 13.9466 8.71191L15.7479 6.31285ZM17.9213 9.45722C17.5563 8.20144 16.7937 7.09803 15.7479 6.31285L13.9466 8.71191C14.4729 9.10707 14.8568 9.66237 15.0404 10.2944L17.9213 9.45722ZM20.7883 3.4523C19.9203 3.4523 19.0717 3.7097 18.35 4.19196L20.0167 6.68636C20.2451 6.53376 20.5136 6.4523 20.7883 6.4523V3.4523ZM23.8907 4.73871C23.0683 3.91624 21.9531 3.45361 20.79 3.4523L20.7866 6.4523C21.1553 6.45272 21.5087 6.59935 21.7694 6.86004L23.8907 4.73871ZM25.1771 7.83946C25.1758 6.67632 24.7132 5.56118 23.8907 4.73871L21.7694 6.86003C22.0301 7.12072 22.1767 7.47416 22.1771 7.84283L25.1771 7.83946ZM24.4375 10.2795C24.9197 9.55771 25.1771 8.70918 25.1771 7.84115H22.1771C22.1771 8.11583 22.0957 8.38435 21.9431 8.61274L24.4375 10.2795ZM22.4678 11.8959C23.2698 11.5637 23.9552 11.0012 24.4375 10.2795L21.9431 8.61274C21.7905 8.84114 21.5736 9.01915 21.3198 9.12427L22.4678 11.8959ZM19.9321 12.1457C20.7834 12.315 21.6659 12.2281 22.4678 11.8959L21.3198 9.12427C21.066 9.22939 20.7868 9.25689 20.5174 9.2033L19.9321 12.1457ZM17.6849 10.9445C18.2987 11.5583 19.0807 11.9763 19.9321 12.1457L20.5174 9.2033C20.2479 9.14971 20.0005 9.01744 19.8062 8.8232L17.6849 10.9445ZM16.4838 8.69737C16.6531 9.54872 17.0711 10.3307 17.6849 10.9445L19.8062 8.82321C19.612 8.62897 19.4797 8.3815 19.4261 8.11209L16.4838 8.69737ZM16.7335 6.16161C16.4014 6.96356 16.3145 7.84601 16.4838 8.69736L19.4261 8.1121C19.3726 7.84269 19.4001 7.56344 19.5052 7.30966L16.7335 6.16161ZM18.35 4.19195C17.6283 4.67421 17.0657 5.35965 16.7335 6.1616L19.5052 7.30966C19.6103 7.05588 19.7883 6.83897 20.0167 6.68637L18.35 4.19195Z" fill="#B9BCBE" mask="url(#path-1-inside-1_1931_43625)"/>
</svg>
