<svg width="375" height="200" viewBox="0 0 375 200" fill="none" xmlns="http://www.w3.org/2000/svg">
<g opacity="0.2" filter="url(#filter0_d_2141_66381)">
<path d="M180.628 99.3044C180.628 108.168 177.968 116.833 172.985 124.203C168.001 131.573 160.918 137.318 152.631 140.71C144.344 144.102 135.225 144.989 126.427 143.26C117.629 141.531 109.548 137.262 103.205 130.995C96.8625 124.727 92.543 116.741 90.7931 108.048C89.0431 99.3541 89.9413 90.343 93.374 82.1538C96.8066 73.9647 102.62 66.9652 110.078 62.0407C117.536 57.1162 126.305 54.4878 135.275 54.4878C147.299 54.5011 158.827 59.2271 167.33 67.629C175.832 76.0308 180.615 87.4224 180.628 99.3044ZM284.293 22.4759C284.293 31.3398 286.953 40.0046 291.937 47.3747C296.92 54.7448 304.003 60.489 312.291 63.8811C320.578 67.2731 329.697 68.1607 338.495 66.4314C347.292 64.7021 355.374 60.4338 361.716 54.1661C368.059 47.8983 372.379 39.9128 374.129 31.2192C375.879 22.5256 374.98 13.5145 371.548 5.32532C368.115 -2.86385 362.302 -9.86325 354.844 -14.7878C347.385 -19.7123 338.617 -22.3407 329.647 -22.3407C317.622 -22.3274 306.094 -17.6014 297.592 -9.19953C289.089 -0.797676 284.307 10.5939 284.293 22.4759ZM251.898 54.4878C242.928 54.4878 234.159 57.1162 226.701 62.0407C219.243 66.9653 213.43 73.9647 209.997 82.1538C206.564 90.343 205.666 99.3541 207.416 108.048C209.166 116.741 213.486 124.727 219.828 130.995C226.171 137.262 234.252 141.531 243.05 143.26C251.848 144.989 260.967 144.102 269.254 140.71C277.541 137.318 284.624 131.573 289.608 124.203C294.591 116.833 297.251 108.168 297.251 99.3044C297.238 87.4224 292.455 76.0309 283.953 67.629C275.45 59.2271 263.922 54.5011 251.898 54.4878ZM97.8718 -42.9C111.139 -35.6457 120.95 -23.4854 125.151 -9.08901C129.458 5.55413 138.457 18.4205 150.798 27.5762C163.138 36.7319 178.152 41.6822 193.584 41.683C209.015 41.6838 224.03 36.735 236.372 27.5806C248.713 18.4262 257.714 5.56074 262.021 -9.08196C266.206 -23.4595 275.993 -35.6087 289.233 -42.8625C303.856 -50.6956 314.87 -63.7847 319.997 -79.4205C325.124 -95.0562 323.97 -112.041 316.774 -126.86C309.579 -141.678 296.893 -153.195 281.342 -159.027C265.792 -164.859 248.567 -164.558 233.234 -158.188C207.894 -147.84 179.44 -147.818 154.084 -158.129C138.76 -164.544 121.525 -164.887 105.952 -159.087C90.3787 -153.286 77.6608 -141.787 70.4338 -126.973C63.2069 -112.159 62.0251 -95.1648 67.1332 -79.5128C72.2414 -63.8609 83.2479 -50.7509 97.8718 -42.9ZM57.5264 67.2925C66.4964 67.2925 75.265 64.6641 82.7234 59.7396C90.1817 54.815 95.9947 47.8156 99.4274 39.6265C102.86 31.4373 103.758 22.4262 102.008 13.7326C100.258 5.03901 95.9388 -2.94654 89.5961 -9.21427C83.2533 -15.482 75.1721 -19.7504 66.3744 -21.4796C57.5767 -23.2089 48.4576 -22.3214 40.1704 -18.9293C31.8831 -15.5372 24.7999 -9.79298 19.8164 -2.42293C14.8329 4.94714 12.173 13.612 12.173 22.4759C12.1865 34.3579 16.9691 45.7494 25.4716 54.1513C33.9741 62.5532 45.5021 67.2792 57.5264 67.2925Z" fill="#593BF0"/>
<path d="M98.4559 -43.9682L98.4476 -43.9727C84.0973 -51.6767 73.3007 -64.5391 68.2907 -79.8906C63.2807 -95.2416 64.4396 -111.909 71.5281 -126.439C78.6168 -140.97 91.0937 -152.253 106.377 -157.946C121.66 -163.638 138.575 -163.301 153.614 -157.006L153.626 -157.001C179.276 -146.571 208.06 -146.592 233.695 -157.061L233.701 -157.064C248.749 -163.315 265.653 -163.61 280.915 -157.887C296.176 -152.164 308.621 -140.863 315.679 -126.328C322.737 -111.793 323.868 -95.135 318.84 -79.7998C313.812 -64.4643 303.007 -51.6223 288.658 -43.9358L288.648 -43.9303C275.127 -36.5229 265.129 -24.1139 260.853 -9.42388C256.62 4.96236 247.776 17.6052 235.646 26.6027C223.516 35.6008 208.755 40.4662 193.584 40.4654C178.412 40.4647 163.653 35.5977 151.523 26.5984C139.394 17.5995 130.551 4.95559 126.32 -9.43128C122.027 -24.1404 112.003 -36.5604 98.4559 -43.9682ZM179.411 99.3058C179.411 107.925 176.824 116.352 171.976 123.521C167.128 130.691 160.236 136.281 152.17 139.583C144.103 142.885 135.226 143.749 126.662 142.065C118.098 140.382 110.233 136.227 104.061 130.129C97.8897 124.03 93.6885 116.262 91.9866 107.807C90.2848 99.3529 91.1581 90.5894 94.4968 82.6245C97.8356 74.6594 103.491 67.8492 110.749 63.0568C118.007 58.2644 126.542 55.7055 135.274 55.7053C146.98 55.7183 158.201 60.3195 166.474 68.495C174.747 76.67 179.398 87.7509 179.411 99.3058ZM292.945 46.6927C288.098 39.5236 285.511 31.0966 285.511 22.4773C285.524 10.9224 290.175 -0.1585 298.448 -8.3335C306.721 -16.509 317.941 -21.1102 329.648 -21.1232C338.38 -21.1229 346.915 -18.5641 354.173 -13.7717C361.431 -8.97926 367.086 -2.16907 370.425 5.79599C373.763 13.7609 374.637 22.5244 372.935 30.9789C371.233 39.4336 367.032 47.2016 360.861 53.3C354.689 59.3986 346.824 63.5534 338.26 65.2367C329.695 66.9201 320.818 66.056 312.752 62.7543C304.685 59.4526 297.793 53.8624 292.945 46.6927ZM227.372 63.0568C234.63 58.2644 243.165 55.7056 251.897 55.7053C263.603 55.7183 274.824 60.3195 283.097 68.495C291.37 76.67 296.021 87.7509 296.034 99.3058C296.034 107.925 293.447 116.352 288.599 123.521C283.751 130.691 276.859 136.281 268.793 139.583C260.726 142.885 251.849 143.749 243.285 142.065C234.72 140.382 226.856 136.227 220.684 130.129C214.513 124.03 210.311 116.262 208.61 107.807C206.908 99.3529 207.781 90.5894 211.12 82.6245C214.459 74.6594 220.113 67.8492 227.372 63.0568ZM82.0525 58.7235C74.7943 63.5159 66.2597 66.0747 57.5277 66.075C45.8212 66.062 34.6008 61.4608 26.3273 53.2853C18.0545 45.1103 13.4036 34.0294 13.3905 22.4745C13.3908 13.8551 15.9774 5.42818 20.825 -1.74094C25.673 -8.9106 32.5651 -14.5008 40.6316 -17.8025C48.6982 -21.1042 57.5752 -21.9684 66.1395 -20.285C74.7038 -18.6016 82.5687 -14.4468 88.7403 -8.34825C94.9117 -2.24983 99.1128 5.51823 100.815 13.9728C102.517 22.4274 101.643 31.1909 98.3045 39.1558C94.9658 47.1208 89.3108 53.9311 82.0525 58.7235Z" stroke="url(#paint0_linear_2141_66381)" stroke-width="2.43505"/>
</g>
<defs>
<filter id="filter0_d_2141_66381" x="-29.0276" y="-190.67" width="445.228" height="389.725" filterUnits="userSpaceOnUse" color-interpolation-filters="sRGB">
<feFlood flood-opacity="0" result="BackgroundImageFix"/>
<feColorMatrix in="SourceAlpha" type="matrix" values="0 0 0 0 0 0 0 0 0 0 0 0 0 0 0 0 0 0 127 0" result="hardAlpha"/>
<feOffset dy="13.7335"/>
<feGaussianBlur stdDeviation="20.6002"/>
<feComposite in2="hardAlpha" operator="out"/>
<feColorMatrix type="matrix" values="0 0 0 0 0.166075 0 0 0 0 0.0666667 0 0 0 0 0.666667 0 0 0 0.72 0"/>
<feBlend mode="normal" in2="BackgroundImageFix" result="effect1_dropShadow_2141_66381"/>
<feBlend mode="normal" in="SourceGraphic" in2="effect1_dropShadow_2141_66381" result="shape"/>
</filter>
<linearGradient id="paint0_linear_2141_66381" x1="193.586" y1="144.121" x2="193.587" y2="-163.201" gradientUnits="userSpaceOnUse">
<stop stop-color="#5A39FF"/>
<stop offset="1" stop-color="#7155FE"/>
</linearGradient>
</defs>
</svg>
