<svg width="26" height="27" viewBox="0 0 26 27" fill="none" xmlns="http://www.w3.org/2000/svg">
<path d="M9.19499 12.1349C9.07416 12.1228 8.92916 12.1228 8.79624 12.1349C5.92047 12.0382 3.63672 9.68199 3.63672 6.78199C3.63672 3.82158 6.02922 1.41699 9.00166 1.41699C11.9621 1.41699 14.3667 3.82158 14.3667 6.78199C14.3546 9.68199 12.0708 12.0382 9.19499 12.1349Z" stroke="#B9BCBE" stroke-width="1.5" stroke-linecap="round" stroke-linejoin="round"/>
<path d="M9.00081 26.1045C9.41502 26.1045 9.75081 25.7687 9.75081 25.3545C9.75081 24.9403 9.41502 24.6045 9.00081 24.6045V26.1045ZM2.94703 23.687L2.52982 24.3102L2.53101 24.311L2.94703 23.687ZM2.94703 16.5941L3.36246 17.2185L3.3641 17.2174L2.94703 16.5941ZM11.6279 15.6517L12.2791 16.0238L13.0233 14.7214L12.3721 14.3493L11.6279 15.6517ZM9.00081 24.6045C6.91626 24.6045 4.88219 24.0757 3.36306 23.063L2.53101 24.311C4.34687 25.5216 6.68702 26.1045 9.00081 26.1045V24.6045ZM3.36424 23.0638C2.05751 22.189 1.50391 21.1138 1.50391 20.136C1.50391 19.1587 2.05695 18.0871 3.36246 17.2185L2.5316 15.9697C0.912943 17.0465 0.00390631 18.5426 0.00390631 20.136C0.00390631 21.7289 0.91239 23.2275 2.52982 24.3102L3.36424 23.0638ZM3.3641 17.2174C5.04937 16.0898 6.3314 15.2715 7.59766 14.9389C8.79334 14.6248 10.025 14.7357 11.6279 15.6517L12.3721 14.3493C10.475 13.2652 8.84164 13.0612 7.21656 13.4881C5.66206 13.8965 4.16761 14.875 2.52996 15.9707L3.3641 17.2174Z" fill="#B9BCBE"/>
<path d="M22.7014 14.4576C22.5593 14.039 22.2895 13.6755 21.93 13.4183C21.5705 13.1611 21.1394 13.0231 20.6973 13.0238H18.9998V8L18.2864 8.10191C16.6681 8.33309 15.4075 9.15316 14.54 10.5394C13.9146 11.5387 13.6239 12.641 13.4889 13.4654C12.5574 14.1821 11.747 15.169 11.0773 16.4029C10.5129 17.4427 10.0457 18.6614 9.68855 20.0252C9.08516 22.3295 9.00348 24.2408 9.00031 24.3211L9.00009 25.9082C9.00004 26.2533 9.27981 26.5331 9.62495 26.5331C9.97005 26.5331 10.2498 26.2534 10.2498 25.9083V24.3598C10.2654 24.0383 10.659 17.0024 14.4307 14.3233L14.6518 14.1662L14.6882 13.8974C14.8762 12.5058 15.5262 10.2073 17.7498 9.50074V14.2738H20.6973C20.8781 14.2732 21.0544 14.3294 21.2016 14.4343C21.3487 14.5392 21.4593 14.6876 21.5177 14.8587C22.016 16.3296 22.8722 18.1703 24.2067 19.0353L23.8054 20.5403C23.6657 21.077 23.3479 21.5504 22.9041 21.883C22.4603 22.2156 21.9167 22.3877 21.3624 22.3711C20.2425 22.3375 19.077 22.4836 17.898 22.8052L17.4373 22.9307V25.9081C17.4373 26.2533 17.7171 26.5331 18.0623 26.5331C18.4075 26.5331 18.6873 26.2533 18.6873 25.9081V23.8952C19.5511 23.6911 20.4375 23.5988 21.3248 23.6205C22.1604 23.6436 22.9793 23.3837 23.6487 22.8831C24.3182 22.3824 24.7989 21.6704 25.013 20.8623L25.6805 18.3592L25.1834 18.1461C24.2537 17.7477 23.3723 16.4377 22.7014 14.4576Z" fill="#B9BCBE"/>
</svg>
