<svg width="295" height="425" viewBox="0 0 295 425" fill="none" xmlns="http://www.w3.org/2000/svg">
<mask id="mask0_1931_51512" style="mask-type:alpha" maskUnits="userSpaceOnUse" x="0" y="0" width="295" height="425">
<rect width="295" height="425" rx="16" fill="url(#paint0_linear_1931_51512)"/>
</mask>
<g mask="url(#mask0_1931_51512)">
<g opacity="0.32" filter="url(#filter0_d_1931_51512)">
<path d="M164.158 270.165C164.158 258.859 167.51 247.807 173.792 238.406C180.073 229.005 189.001 221.678 199.447 217.351C209.892 213.025 221.386 211.893 232.475 214.098C243.564 216.304 253.75 221.749 261.745 229.743C269.739 237.738 275.184 247.924 277.389 259.013C279.595 270.102 278.463 281.596 274.136 292.041C269.81 302.487 262.483 311.415 253.082 317.696C243.681 323.978 232.629 327.33 221.323 327.33C206.167 327.313 191.636 321.285 180.92 310.568C170.203 299.851 164.175 285.321 164.158 270.165ZM33.4944 368.162C33.4944 356.856 30.1417 345.804 23.8603 336.403C17.5789 327.002 8.65093 319.675 -1.79463 315.349C-12.2402 311.022 -23.7342 309.89 -34.8231 312.096C-45.9121 314.302 -56.0979 319.746 -64.0926 327.741C-72.0873 335.735 -77.5318 345.921 -79.7375 357.01C-81.9432 368.099 -80.8112 379.593 -76.4845 390.039C-72.1578 400.484 -64.8308 409.412 -55.43 415.694C-46.0293 421.975 -34.977 425.328 -23.6708 425.328C-8.51486 425.311 6.01544 419.282 16.7323 408.566C27.4492 397.849 33.4774 383.318 33.4944 368.162ZM74.3266 327.33C85.6328 327.33 96.6851 323.978 106.086 317.696C115.487 311.415 122.814 302.487 127.14 292.041C131.467 281.596 132.599 270.102 130.393 259.013C128.188 247.924 122.743 237.738 114.748 229.743C106.754 221.749 96.5679 216.304 85.479 214.098C74.39 211.893 62.896 213.025 52.4505 217.351C42.0049 221.678 33.0769 229.005 26.7955 238.406C20.5141 247.807 17.1615 258.859 17.1615 270.165C17.1785 285.321 23.2066 299.851 33.9235 310.568C44.6404 321.285 59.1707 327.313 74.3266 327.33ZM268.467 451.552C251.745 442.298 239.379 426.788 234.083 408.425C228.655 389.747 217.312 373.335 201.757 361.657C186.203 349.978 167.278 343.664 147.828 343.663C128.378 343.662 109.452 349.974 93.8968 361.651C78.3413 373.328 66.9961 389.738 61.5665 408.416C56.2925 426.755 43.9569 442.251 27.2679 451.504C8.83719 461.495 -5.04601 478.191 -11.5079 498.135C-17.9697 518.079 -16.5155 539.744 -7.4461 558.645C1.62327 577.546 17.6133 592.237 37.2139 599.675C56.8145 607.114 78.5249 606.731 97.851 598.605C129.791 585.406 165.655 585.378 197.615 598.53C216.93 606.712 238.653 607.15 258.283 599.751C277.912 592.353 293.942 577.686 303.051 558.79C312.16 539.894 313.65 518.217 307.211 498.253C300.773 478.288 286.9 461.566 268.467 451.552ZM319.32 310.997C308.014 310.997 296.962 314.35 287.561 320.631C278.16 326.913 270.833 335.841 266.506 346.286C262.18 356.732 261.048 368.226 263.253 379.315C265.459 390.404 270.903 400.59 278.898 408.584C286.893 416.579 297.079 422.023 308.168 424.229C319.257 426.435 330.751 425.303 341.196 420.976C351.642 416.649 360.57 409.322 366.851 399.922C373.132 390.521 376.485 379.469 376.485 368.162C376.468 353.007 370.44 338.476 359.723 327.759C349.006 317.043 334.476 311.014 319.32 310.997Z" fill="#593BF0"/>
<path d="M267.715 452.91L267.726 452.916C285.808 462.74 299.417 479.144 305.733 498.729C312.049 518.314 310.588 539.578 301.652 558.115C292.716 576.652 276.991 591.04 257.735 598.298C238.479 605.556 217.169 605.127 198.221 597.1L198.213 597.097L198.206 597.094C165.867 583.786 129.576 583.814 97.2578 597.17L97.2491 597.174C78.2905 605.145 56.9929 605.52 37.7649 598.223C18.5369 590.926 2.85098 576.515 -6.04594 557.973C-14.9429 539.431 -16.3695 518.178 -10.0305 498.613C-3.6915 479.049 9.92774 462.67 28.008 452.869L28.0144 452.866L28.0209 452.862C45.0685 443.411 57.6694 427.582 63.0578 408.849C68.3935 390.495 79.5425 374.368 94.8291 362.893C110.116 351.418 128.714 345.215 147.828 345.216C166.942 345.217 185.54 351.422 200.825 362.899C216.109 374.375 227.256 390.501 232.591 408.855C238 427.613 250.633 443.458 267.715 452.91ZM165.711 270.163C165.711 259.165 168.972 248.414 175.083 239.269C181.194 230.123 189.879 222.995 200.041 218.786C210.203 214.577 221.384 213.476 232.172 215.622C242.96 217.767 252.869 223.064 260.646 230.841C268.424 238.619 273.72 248.528 275.866 259.316C278.012 270.103 276.911 281.285 272.702 291.447C268.492 301.609 261.364 310.294 252.219 316.405C243.074 322.516 232.322 325.777 221.323 325.777C206.579 325.76 192.443 319.896 182.018 309.47C171.592 299.044 165.727 284.908 165.711 270.163ZM22.569 337.266C28.6798 346.411 31.9414 357.163 31.9414 368.162C31.9244 382.907 26.0598 397.042 15.6342 407.467C5.20813 417.893 -8.92788 423.758 -23.6725 423.775C-34.671 423.774 -45.4223 420.513 -54.5672 414.402C-63.7126 408.292 -70.8405 399.606 -75.0497 389.444C-79.2589 379.283 -80.3602 368.101 -78.2143 357.313C-76.0685 346.525 -70.772 336.616 -62.9945 328.839C-55.217 321.061 -45.3079 315.765 -34.5202 313.619C-23.7325 311.473 -12.5507 312.574 -2.38894 316.784C7.77286 320.993 16.4583 328.121 22.569 337.266ZM105.223 316.405C96.0777 322.516 85.3256 325.777 74.3266 325.777C59.5826 325.76 45.4473 319.896 35.0216 309.47C24.596 299.044 18.7315 284.909 18.7145 270.165C18.7145 259.166 21.976 248.414 28.0868 239.269C34.1975 230.123 42.883 222.995 53.0448 218.786C63.2065 214.577 74.3883 213.476 85.176 215.622C95.9637 217.767 105.873 223.064 113.65 230.841C121.428 238.619 126.724 248.528 128.87 259.316C131.016 270.103 129.915 281.285 125.706 291.447C121.496 301.609 114.368 310.294 105.223 316.405ZM288.424 321.923C297.569 315.812 308.321 312.55 319.32 312.55C334.064 312.567 348.199 318.432 358.625 328.858C369.051 339.284 374.916 353.42 374.932 368.164C374.932 379.163 371.67 389.914 365.56 399.059C359.449 408.204 350.764 415.332 340.602 419.541C330.44 423.751 319.258 424.852 308.471 422.706C297.683 420.56 287.774 415.264 279.996 407.486C272.219 399.709 266.922 389.8 264.776 379.012C262.631 368.224 263.732 357.042 267.941 346.881C272.15 336.719 279.278 328.033 288.424 321.923Z" stroke="url(#paint1_linear_1931_51512)" stroke-width="3.10598"/>
</g>
<g opacity="0.25" filter="url(#filter1_d_1931_51512)">
<path d="M135.25 78.629C135.25 87.1088 132.736 95.3982 128.025 102.449C123.313 109.5 116.617 114.995 108.783 118.24C100.949 121.485 92.3279 122.334 84.0109 120.68C75.694 119.026 68.0544 114.942 62.0583 108.946C56.0621 102.95 51.9787 95.3104 50.3243 86.9934C48.67 78.6765 49.5191 70.0558 52.7642 62.2214C56.0093 54.3871 61.5046 47.6909 68.5554 42.9798C75.6061 38.2686 83.8956 35.754 92.3754 35.754C103.743 35.7668 114.641 40.2881 122.678 48.3259C130.716 56.3637 135.238 67.2617 135.25 78.629ZM233.25 5.12914C233.25 13.609 235.765 21.8984 240.476 28.9492C245.187 35.9999 251.883 41.4953 259.718 44.7404C267.552 47.9855 276.173 48.8346 284.49 47.1802C292.806 45.5259 300.446 41.4424 306.442 35.4463C312.438 29.4501 316.522 21.8105 318.176 13.4936C319.83 5.1767 318.981 -3.44401 315.736 -11.2784C312.491 -19.1127 306.996 -25.8089 299.945 -30.52C292.894 -35.2312 284.605 -37.7458 276.125 -37.7458C264.758 -37.733 253.86 -33.2118 245.822 -25.1739C237.784 -17.1361 233.263 -6.23809 233.25 5.12914ZM202.625 35.7541C194.145 35.7541 185.856 38.2686 178.805 42.9798C171.754 47.6909 166.259 54.3871 163.014 62.2215C159.769 70.0558 158.92 78.6765 160.574 86.9934C162.228 95.3104 166.312 102.95 172.308 108.946C178.304 114.942 185.944 119.026 194.261 120.68C202.578 122.334 211.198 121.485 219.033 118.24C226.867 114.995 233.563 109.5 238.274 102.449C242.986 95.3983 245.5 87.1088 245.5 78.629C245.487 67.2618 240.966 56.3638 232.928 48.3259C224.89 40.2881 213.992 35.7668 202.625 35.7541ZM57.0162 -57.4142C69.558 -50.4743 78.8332 -38.8408 82.8051 -25.0682C86.876 -11.0595 95.3838 1.24946 107.05 10.0085C118.716 18.7675 132.91 23.5033 147.498 23.504C162.086 23.5048 176.28 18.7705 187.947 10.0127C199.614 1.25489 208.123 -11.0532 212.196 -25.0615C216.151 -38.816 225.403 -50.4389 237.92 -57.3784C251.744 -64.8721 262.156 -77.3942 267.003 -92.3525C271.849 -107.311 270.758 -123.56 263.956 -137.736C257.154 -151.913 245.161 -162.931 230.46 -168.51C215.76 -174.089 199.476 -173.802 184.982 -167.707C161.026 -157.807 134.127 -157.787 110.157 -167.651C95.6698 -173.788 79.377 -174.116 64.6548 -168.567C49.9326 -163.018 37.9097 -152.017 31.0777 -137.845C24.2457 -123.672 23.1284 -107.415 27.9574 -92.4408C32.7864 -77.467 43.1915 -64.925 57.0162 -57.4142ZM18.8756 48.004C27.3554 48.004 35.6448 45.4895 42.6956 40.7783C49.7463 36.0671 55.2417 29.371 58.4868 21.5366C61.7319 13.7023 62.581 5.08155 60.9267 -3.23537C59.2723 -11.5523 55.1889 -19.1919 49.1927 -25.188C43.1966 -31.1842 35.557 -35.2676 27.24 -36.922C18.9231 -38.5763 10.3024 -37.7272 2.46806 -34.4821C-5.36632 -31.237 -12.0625 -25.7417 -16.7736 -18.6909C-21.4848 -11.6402 -23.9993 -3.35075 -23.9993 5.12911C-23.9866 16.4963 -19.4654 27.3943 -11.4275 35.4322C-3.38964 43.47 7.50834 47.9913 18.8756 48.004Z" fill="#593BF0"/>
<path d="M57.5722 -58.4377L57.5802 -58.4334C70.3914 -51.3444 79.8659 -39.4613 83.9237 -25.393M57.5722 -58.4377L82.8051 -25.0682M57.5722 -58.4377C44.0104 -65.8057 33.8031 -78.1092 29.066 -92.7983C24.3288 -107.487 25.4248 -123.436 32.1269 -137.339C38.829 -151.242 50.6233 -162.034 65.0656 -167.477C79.5079 -172.92 95.4909 -172.599 109.702 -166.578L109.713 -166.573C133.968 -156.593 161.187 -156.613 185.426 -166.631L185.433 -166.634C199.652 -172.612 215.626 -172.894 230.047 -167.421C244.469 -161.948 256.233 -151.139 262.906 -137.232C269.579 -123.326 270.649 -107.385 265.895 -92.7115C261.14 -78.0376 250.926 -65.7536 237.365 -58.4024L237.355 -58.3971C224.569 -51.3085 215.118 -39.4363 211.077 -25.3865M57.5722 -58.4377L212.196 -25.0615M83.9237 -25.393C83.9239 -25.3923 83.9241 -25.3917 83.9243 -25.391L82.8051 -25.0682M83.9237 -25.393C83.9237 -25.3931 83.9236 -25.3932 83.9236 -25.3932L82.8051 -25.0682M83.9237 -25.393C87.9241 -11.6266 96.2848 0.469478 107.749 9.07702C119.213 17.6846 133.162 22.3385 147.498 22.3393C161.834 22.34 175.783 17.6875 187.248 9.08115C198.713 0.474797 207.075 -11.6204 211.077 -25.3865M82.8051 -25.0682C86.876 -11.0595 95.3838 1.24946 107.05 10.0085C118.716 18.7675 132.91 23.5033 147.498 23.504C162.086 23.5048 176.28 18.7705 187.947 10.0127C199.614 1.25489 208.123 -11.0532 212.196 -25.0615M211.077 -25.3865C211.077 -25.3854 211.076 -25.3844 211.076 -25.3834L212.196 -25.0615M211.077 -25.3865C211.077 -25.3865 211.077 -25.3866 211.077 -25.3866L212.196 -25.0615M134.086 78.629C134.086 86.8784 131.639 94.9427 127.056 101.802C122.473 108.661 115.959 114.007 108.337 117.164C100.716 120.321 92.3292 121.147 84.2382 119.538C76.1472 117.928 68.7151 113.956 62.8819 108.122C57.0486 102.289 53.0761 94.8572 51.4667 86.7662C49.8573 78.6752 50.6834 70.2887 53.8403 62.6672C56.9972 55.0456 62.3433 48.5314 69.2025 43.9482C76.0613 39.3653 84.1251 36.9191 92.3741 36.9188C103.433 36.9312 114.035 41.3298 121.855 49.1495C129.674 56.9689 134.073 67.5707 134.086 78.629ZM241.444 28.302C236.861 21.4432 234.415 13.3795 234.415 5.13044C234.427 -5.92832 238.826 -16.5306 246.646 -24.3503C254.465 -32.1697 265.067 -36.5682 276.125 -36.581C284.375 -36.581 292.439 -34.1347 299.298 -29.5516C306.157 -24.9684 311.503 -18.4542 314.66 -10.8326C317.817 -3.21111 318.643 5.17542 317.034 13.2664C315.424 21.3574 311.452 28.7894 305.619 34.6227C299.785 40.4559 292.353 44.4284 284.262 46.0378C276.171 47.6472 267.785 46.8212 260.163 43.6643C252.542 40.5073 246.028 35.1612 241.444 28.302ZM179.452 43.9483C186.311 39.3653 194.375 36.9191 202.624 36.9188C213.683 36.9312 224.285 41.3298 232.105 49.1495C239.924 56.9693 244.323 67.5715 244.335 78.6303C244.335 86.8793 241.889 94.943 237.306 101.802C232.723 108.661 226.209 114.007 218.587 117.164C210.965 120.321 202.579 121.147 194.488 119.538C186.397 117.928 178.965 113.956 173.132 108.122C167.298 102.289 163.326 94.8572 161.717 86.7662C160.107 78.6752 160.933 70.2887 164.09 62.6672C167.247 55.0457 172.593 48.5314 179.452 43.9483ZM42.0485 39.8098C35.1896 44.3928 27.1259 46.839 18.8769 46.8392C7.81812 46.8268 -2.78414 42.4283 -10.6039 34.6085C-18.4236 26.7888 -22.8222 16.1866 -22.8346 5.12781C-22.8343 -3.12123 -20.388 -11.185 -15.8051 -18.0438C-11.222 -24.903 -4.70775 -30.2491 2.9138 -33.406C10.5353 -36.563 18.9219 -37.389 27.0128 -35.7796C35.1038 -34.1702 42.5358 -30.1977 48.3691 -24.3644C54.2024 -18.5311 58.1749 -11.0991 59.7843 -3.00813C61.3937 5.08284 60.5676 13.4694 57.4107 21.0909C54.2538 28.7124 48.9077 35.2267 42.0485 39.8098Z" stroke="url(#paint2_linear_1931_51512)" stroke-width="2.32954"/>
</g>
<ellipse cx="148" cy="47.5" rx="156.5" ry="172" transform="rotate(90 148 47.5)" fill="url(#paint3_radial_1931_51512)"/>
</g>
<defs>
<filter id="filter0_d_1931_51512" x="-133.389" y="177.965" width="562.425" height="497.105" filterUnits="userSpaceOnUse" color-interpolation-filters="sRGB">
<feFlood flood-opacity="0" result="BackgroundImageFix"/>
<feColorMatrix in="SourceAlpha" type="matrix" values="0 0 0 0 0 0 0 0 0 0 0 0 0 0 0 0 0 0 127 0" result="hardAlpha"/>
<feOffset dy="17.5175"/>
<feGaussianBlur stdDeviation="26.2763"/>
<feComposite in2="hardAlpha" operator="out"/>
<feColorMatrix type="matrix" values="0 0 0 0 0.166075 0 0 0 0 0.0666667 0 0 0 0 0.666667 0 0 0 0.72 0"/>
<feBlend mode="normal" in2="BackgroundImageFix" result="effect1_dropShadow_1931_51512"/>
<feBlend mode="normal" in="SourceGraphic" in2="effect1_dropShadow_1931_51512" result="shape"/>
</filter>
<filter id="filter1_d_1931_51512" x="-63.4154" y="-198.78" width="421.831" height="372.838" filterUnits="userSpaceOnUse" color-interpolation-filters="sRGB">
<feFlood flood-opacity="0" result="BackgroundImageFix"/>
<feColorMatrix in="SourceAlpha" type="matrix" values="0 0 0 0 0 0 0 0 0 0 0 0 0 0 0 0 0 0 127 0" result="hardAlpha"/>
<feOffset dy="13.1385"/>
<feGaussianBlur stdDeviation="19.7077"/>
<feComposite in2="hardAlpha" operator="out"/>
<feColorMatrix type="matrix" values="0 0 0 0 0.166075 0 0 0 0 0.0666667 0 0 0 0 0.666667 0 0 0 0.72 0"/>
<feBlend mode="normal" in2="BackgroundImageFix" result="effect1_dropShadow_1931_51512"/>
<feBlend mode="normal" in="SourceGraphic" in2="effect1_dropShadow_1931_51512" result="shape"/>
</filter>
<linearGradient id="paint0_linear_1931_51512" x1="103.84" y1="124.968" x2="277.37" y2="200.029" gradientUnits="userSpaceOnUse">
<stop stop-color="#5E3FF7"/>
<stop offset="0.59" stop-color="#7155FE"/>
<stop offset="0.995" stop-color="#7155FE"/>
</linearGradient>
<linearGradient id="paint1_linear_1931_51512" x1="147.825" y1="213" x2="147.825" y2="605" gradientUnits="userSpaceOnUse">
<stop stop-color="#5A39FF"/>
<stop offset="1" stop-color="#7155FE"/>
</linearGradient>
<linearGradient id="paint2_linear_1931_51512" x1="147.5" y1="121.504" x2="147.5" y2="-172.503" gradientUnits="userSpaceOnUse">
<stop stop-color="#5A39FF"/>
<stop offset="1" stop-color="#7155FE"/>
</linearGradient>
<radialGradient id="paint3_radial_1931_51512" cx="0" cy="0" r="1" gradientUnits="userSpaceOnUse" gradientTransform="translate(238.597 43.5713) rotate(123.863) scale(270.273 255.801)">
<stop stop-color="#DD4D11"/>
<stop offset="1" stop-color="#FF4B00" stop-opacity="0"/>
</radialGradient>
</defs>
</svg>
