<svg width="24" height="21" viewBox="0 0 24 21" fill="none" xmlns="http://www.w3.org/2000/svg">
<path d="M23.0199 5.25805C22.2654 3.98783 21.2055 2.77956 20.4899 2.14567C18.9276 0.761542 17.6244 0.795251 16.9865 0.938604C16.7185 0.998844 16.4724 1.09816 16.2557 1.23064C15.1427 0.40464 13.7886 0 12.1504 0C10.5122 0 9.15808 0.40464 8.04505 1.23068C7.82835 1.09821 7.5823 0.998844 7.3143 0.93865C6.67657 0.795343 5.37319 0.761589 3.81103 2.14567C3.09533 2.7796 2.03546 3.98787 1.28091 5.2581C0.259373 6.97783 0.0318409 8.369 0.604607 9.39308C1.30396 10.6434 2.36476 10.9633 3.22113 11.0422C3.01064 11.8597 2.88067 12.7342 2.88067 13.8239C2.88067 15.2682 3.20942 16.5108 3.85789 17.5171C4.42792 18.4019 5.24859 19.1104 6.29707 19.6229C8.23429 20.5698 10.5655 20.6793 12.1504 20.6793C13.7354 20.6793 16.0666 20.5698 18.0038 19.6229C19.0522 19.1104 19.873 18.4019 20.443 17.5171C21.0914 16.5107 21.4202 15.2682 21.4202 13.8239C21.4202 12.7343 21.2902 11.8598 21.0798 11.0422C21.9361 10.9633 22.997 10.6433 23.6963 9.39303C24.2689 8.36905 24.0414 6.97783 23.0199 5.25805ZM3.67133 9.61302C2.91345 9.59311 2.29716 9.44637 1.87113 8.68474C1.5821 8.16795 1.82172 7.18911 2.52863 5.99908C3.19951 4.86962 4.16247 3.77289 4.77329 3.23175C5.78205 2.33792 6.53826 2.2887 6.89405 2.33635C5.83525 3.62708 5.18627 5.30454 4.64355 6.93547C4.4188 7.61084 4.2022 8.18745 3.99263 8.74516C3.88058 9.04354 3.77278 9.33052 3.67133 9.61302ZM11.2037 14.3706C10.8284 13.9954 10.6319 13.6016 10.6319 13.4065C10.6319 13.2322 10.6618 13.2197 10.7727 13.173C11.0891 13.0399 11.7105 13.0245 12.1504 13.0245C12.5903 13.0245 13.2117 13.0399 13.528 13.173C13.639 13.2197 13.6689 13.2323 13.6689 13.4065C13.6689 13.6016 13.4725 13.9954 13.0971 14.3706C12.7279 14.7396 12.3338 14.9386 12.1503 14.9386C11.9669 14.9386 11.5729 14.7396 11.2037 14.3706ZM17.3665 18.3192C16.2529 18.8635 14.7787 19.1588 12.876 19.2172V16.2449C13.4457 16.025 13.9096 15.6102 14.1229 15.397C14.4227 15.0974 15.12 14.3036 15.12 13.4065C15.12 12.6727 14.7545 12.1147 14.0908 11.8355C13.6484 11.6494 13.0862 11.5734 12.1504 11.5734C11.2147 11.5734 10.6525 11.6494 10.21 11.8355C9.54637 12.1147 9.18081 12.6726 9.18081 13.4065C9.18081 14.3036 9.87818 15.0974 10.1779 15.397C10.3912 15.6102 10.8552 16.0251 11.4249 16.2449V19.2172C9.52211 19.1588 8.04792 18.8636 6.93429 18.3192C5.18303 17.4632 4.3317 15.9928 4.3317 13.8239C4.3317 11.9684 4.75926 10.8305 5.35097 9.25547C5.5553 8.71164 5.78682 8.09526 6.02032 7.39363C7.30291 3.53957 8.65967 1.45108 12.1504 1.45108C15.6411 1.45108 16.9979 3.53962 18.2804 7.39363C18.5139 8.0953 18.7455 8.71164 18.9498 9.25547C19.5415 10.8305 19.969 11.9684 19.969 13.8239C19.9691 15.9928 19.1178 17.4632 17.3665 18.3192ZM22.4298 8.68474C22.0037 9.44647 21.3874 9.59306 20.6295 9.61302C20.528 9.33048 20.4203 9.04354 20.3083 8.74516C20.0987 8.18749 19.8821 7.61084 19.6573 6.93547C19.1146 5.30454 18.4656 3.62708 17.4068 2.33635C17.7626 2.28879 18.5189 2.33792 19.5277 3.2318C20.1385 3.77284 21.1014 4.86953 21.7723 5.99899C22.4792 7.18911 22.7188 8.168 22.4298 8.68474Z" fill="#BDC0C2"/>
<path d="M9.73342 7.71191C9.20849 7.71191 8.78125 8.1435 8.78125 8.6764C8.78125 9.20925 9.20844 9.64121 9.73342 9.64121C10.2591 9.64121 10.6862 9.20921 10.6862 8.6764C10.6862 8.1435 10.2591 7.71191 9.73342 7.71191Z" fill="#BDC0C2"/>
<path d="M14.5577 7.70508C14.0276 7.70508 13.5977 8.14028 13.5977 8.67711C13.5977 9.21395 14.0276 9.64915 14.5577 9.64915C15.0871 9.64915 15.517 9.21395 15.517 8.67711C15.517 8.14028 15.0871 7.70508 14.5577 7.70508Z" fill="#BDC0C2"/>
</svg>
