<svg width="39" height="36" viewBox="0 0 39 36" fill="none" xmlns="http://www.w3.org/2000/svg">
<path opacity="0.6" d="M33.9566 32.0488C36.6907 30.558 38.3333 28.6465 38.3333 26.5625C38.3333 24.3535 36.488 22.3384 33.4529 20.8125C29.9433 19.048 24.8433 17.9375 19.1667 17.9375C13.4901 17.9375 8.38998 19.048 4.88043 20.8125C1.84546 22.3384 0 24.3535 0 26.5625C0 28.7715 1.84546 30.7866 4.88043 32.3125C8.38998 34.077 13.4901 35.1875 19.1667 35.1875C25.121 35.1875 30.4411 33.9656 33.9566 32.0488Z" fill="#FFEBB3"/>
<circle cx="20" cy="15" r="14" fill="url(#paint0_linear_2141_66556)"/>
<path d="M20 0C11.7268 0 5 6.72683 5 15C5 23.2732 11.7268 30 20 30C28.2732 30 35 23.2732 35 15C35 6.72683 28.2732 0 20 0ZM20 1.875C21.4936 1.875 22.9277 2.1238 24.2643 2.58135C24.7302 6.49174 23.0397 6.55057 21.4399 9.75C15.4168 21.7962 29.5369 11.3726 30.3327 12.9643C32.745 17.7889 27.1779 20.6182 29.8235 23.7117C28.7314 24.9428 27.4114 25.9666 25.9282 26.717C23.4312 24.5203 21.7077 24.5162 20.6419 28.1093C20.4292 28.1195 20.2153 28.125 20 28.125C18.4298 28.125 16.925 27.8503 15.5305 27.3467C17.963 25.0689 15.8815 17.7045 14.047 14.0357C13.0055 11.9527 18.2103 6.07658 16.8327 3.32139C16.5798 2.8155 16.1328 2.61767 15.564 2.6417C16.9491 2.14583 18.4423 1.875 20 1.875ZM7.22495 11.9732C8.96186 14.9046 13.4441 17.788 8.36841 20.7857C8.33234 20.825 8.30238 20.8681 8.27539 20.9127C7.37976 19.1367 6.875 17.1285 6.875 15C6.875 13.9578 6.99644 12.9447 7.22495 11.9732Z" fill="url(#paint1_linear_2141_66556)"/>
<defs>
<linearGradient id="paint0_linear_2141_66556" x1="20" y1="1" x2="20" y2="29" gradientUnits="userSpaceOnUse">
<stop stop-color="#FFF3D1"/>
<stop offset="1" stop-color="#FFFDF8"/>
</linearGradient>
<linearGradient id="paint1_linear_2141_66556" x1="20" y1="0" x2="20" y2="30" gradientUnits="userSpaceOnUse">
<stop stop-color="#FFC744"/>
<stop offset="1" stop-color="#D3A214"/>
</linearGradient>
</defs>
</svg>
