<svg width="16" height="15" viewBox="0 0 16 15" fill="none" xmlns="http://www.w3.org/2000/svg">
<path d="M6.51828 15C6.36108 15 6.21033 14.938 6.09918 14.8277C5.98803 14.7174 5.92559 14.5678 5.92559 14.4118V8.75588L0.431355 2.75882C0.215075 2.52228 0.0726223 2.22852 0.0212864 1.91319C-0.0300494 1.59786 0.0119387 1.27452 0.142155 0.982409C0.272371 0.690302 0.485216 0.441986 0.754858 0.267599C1.0245 0.0932118 1.33935 0.000251536 1.66119 0H14.3388C14.6607 0.000251536 14.9755 0.0932118 15.2451 0.267599C15.5148 0.441986 15.7276 0.690302 15.8578 0.982409C15.9881 1.27452 16.03 1.59786 15.9787 1.91319C15.9274 2.22852 15.7849 2.52228 15.5686 2.75882L10.0744 8.75588V12.0588C10.0744 12.1469 10.0544 12.2339 10.0159 12.3133C9.97742 12.3928 9.92146 12.4626 9.85215 12.5176L6.88871 14.8706C6.78364 14.9543 6.65298 14.9999 6.51828 15ZM1.66119 1.17647C1.56896 1.1767 1.47877 1.20345 1.40155 1.25349C1.32432 1.30353 1.26336 1.37472 1.22605 1.45843C1.18874 1.54214 1.17667 1.63479 1.19131 1.72516C1.20595 1.81554 1.24667 1.89976 1.30854 1.96765L6.95687 8.14412C7.05364 8.24974 7.10841 8.38668 7.11097 8.52941V13.1882L8.88903 11.7647V8.52941C8.88868 8.38261 8.94365 8.24099 9.04313 8.13235L14.6915 1.95588C14.7496 1.88769 14.7872 1.80456 14.7998 1.71608C14.8124 1.6276 14.7995 1.5374 14.7626 1.45588C14.7257 1.37437 14.6664 1.30488 14.5914 1.25543C14.5164 1.20599 14.4288 1.17861 14.3388 1.17647H1.66119Z" fill="#070707"/>
</svg>
