<svg width="23" height="23" viewBox="0 0 23 23" fill="none" xmlns="http://www.w3.org/2000/svg">
<path fill-rule="evenodd" clip-rule="evenodd" d="M7.68164 10.977C7.68164 13.4149 9.65797 15.3912 12.0959 15.3912C14.5338 15.3912 16.5101 13.4149 16.5101 10.977C16.5073 8.54026 14.5326 6.56561 12.0959 6.56274C9.65797 6.56274 7.68164 8.53907 7.68164 10.977ZM12.0959 13.8333C10.5184 13.8333 9.23961 12.5545 9.23961 10.9771C9.23961 9.39958 10.5184 8.12078 12.0959 8.12078C13.6734 8.12078 14.9522 9.39958 14.9522 10.9771C14.9522 12.5545 13.6734 13.8333 12.0959 13.8333Z" fill="#44433F"/>
<path fill-rule="evenodd" clip-rule="evenodd" d="M22.2218 10.1981H20.6223C20.2402 6.08748 16.9846 2.83191 12.874 2.44979V0.850274C12.874 0.420052 12.5253 0.0712891 12.095 0.0712891C11.6648 0.0712891 11.316 0.420052 11.316 0.850274V2.44979C7.20544 2.83191 3.94986 6.08748 3.56775 10.1981H1.44891C1.01869 10.1981 0.669922 10.5469 0.669922 10.9771C0.669922 11.4073 1.01869 11.7561 1.44891 11.7561H3.56775C3.94791 15.8705 7.20684 19.1294 11.3212 19.5096C11.3212 19.5096 11.3212 19.5096 11.3212 19.5511V21.6284C11.3212 22.0586 11.67 22.4074 12.1002 22.4074C12.5304 22.4074 12.8792 22.0586 12.8792 21.6284V19.5511C12.8792 19.5511 12.8792 19.5511 12.8792 19.5096C16.9896 19.1247 20.243 15.8669 20.6223 11.7561H22.2218C22.6521 11.7561 23.0008 11.4073 23.0008 10.9771C23.0008 10.5469 22.6521 10.1981 22.2218 10.1981ZM12.095 17.9879C8.22305 17.9879 5.08418 14.849 5.08418 10.977C5.08418 7.10505 8.22305 3.96617 12.095 3.96617C15.967 3.96617 19.1059 7.10505 19.1059 10.977C19.1059 14.849 15.967 17.9879 12.095 17.9879Z" fill="#44433F"/>
</svg>
