<svg width="28" height="28" viewBox="0 0 28 28" fill="none" xmlns="http://www.w3.org/2000/svg">
<rect x="0.456771" y="0.456771" width="26.438" height="26.438" rx="13.219" fill="url(#paint0_linear_1931_44840)" stroke="url(#paint1_linear_1931_44840)" stroke-width="0.913542"/>
<g filter="url(#filter0_d_1931_44840)">
<path d="M14.6583 9.05313C15.1495 8.77376 15.4808 8.24561 15.4808 7.64008C15.4808 6.74292 14.7535 6.01562 13.8564 6.01562C12.9592 6.01562 12.2319 6.74292 12.2319 7.64008C12.2319 8.24697 12.5647 8.77613 13.0578 9.05501L13.0505 9.06987C12.5179 10.1798 11.7789 11.77 10.6372 12.367C9.70049 12.8568 8.35457 12.6104 7.35558 12.4277C7.31156 11.7948 6.78425 11.2951 6.14021 11.2951C5.46734 11.2951 4.92188 11.8406 4.92188 12.5134C4.92188 13.1102 5.35085 13.6067 5.91724 13.7114L8.311 19.8914C8.6744 20.8296 9.57707 21.4479 10.5832 21.4479H17.1295C18.1356 21.4479 19.0383 20.8296 19.4017 19.8914L21.7955 13.7114C22.3618 13.6067 22.7908 13.1102 22.7908 12.5134C22.7908 11.8406 22.2453 11.2951 21.5725 11.2951C20.9408 11.2951 20.4214 11.7758 20.3602 12.3914C19.3375 12.524 18.0191 12.6932 17.0755 12.1998C15.9567 11.6148 15.2074 10.1342 14.6583 9.05313Z" fill="url(#paint2_linear_1931_44840)"/>
<path d="M19.4017 19.8914C19.0383 20.8296 18.1356 21.4479 17.1295 21.4479H10.5832C9.57707 21.4479 8.6744 20.8296 8.311 19.8914L5.91724 13.7114C5.35085 13.6067 4.92188 13.1102 4.92188 12.5134C4.92188 11.8406 5.46734 11.2951 6.14021 11.2951C6.78425 11.2951 7.31156 11.7948 7.35558 12.4277M19.4017 19.8914L13.0505 9.06987C13.0364 9.0991 13.0223 9.12867 13.008 9.15854C12.4787 10.2629 11.7489 11.7858 10.6372 12.367C9.70079 12.8567 8.35543 12.6106 7.35654 12.4278L7.35558 12.4277M19.4017 19.8914L21.7955 13.7114L19.4017 19.8914ZM7.35558 12.4277L7.60498 12.4103C7.60033 12.3436 7.59124 12.278 7.57797 12.2141M7.35558 12.4277L7.40057 12.1817C7.45884 12.1924 7.51802 12.2032 7.57797 12.2141M7.57797 12.2141C7.43966 11.5466 6.8486 11.0451 6.14021 11.0451C5.32927 11.0451 4.67188 11.7025 4.67188 12.5134C4.67188 13.1827 5.11941 13.747 5.73152 13.9241L8.07788 19.9817C8.47856 21.0161 9.47384 21.6979 10.5832 21.6979H17.1295C18.2389 21.6979 19.2341 21.0161 19.6349 19.9817L19.6349 19.9817L21.9812 13.9241C22.5933 13.747 23.0408 13.1827 23.0408 12.5134C23.0408 11.7025 22.3834 11.0451 21.5725 11.0451C20.8809 11.0451 20.3011 11.5232 20.1453 12.167C19.6812 12.2261 19.1802 12.2827 18.6894 12.2803C18.1323 12.2776 17.6126 12.1985 17.1914 11.9783L17.0755 12.1998L17.1914 11.9783C16.685 11.7135 16.246 11.236 15.8596 10.6713C15.5207 10.1761 15.2341 9.63214 14.9823 9.13877C15.4365 8.797 15.7308 8.25302 15.7308 7.64008C15.7308 6.60485 14.8916 5.76562 13.8564 5.76562C12.8211 5.76562 11.9819 6.60485 11.9819 7.64008C11.9819 8.25626 12.2793 8.80273 12.7376 9.14416M7.57797 12.2141C8.03466 12.2966 8.53655 12.38 9.02978 12.3998C9.58971 12.4222 10.1093 12.361 10.5214 12.1455L10.5214 12.1455C11.0353 11.8768 11.4767 11.373 11.8622 10.7753C12.205 10.2438 12.4897 9.66078 12.7376 9.14416M12.7376 9.14416C12.7532 9.11158 12.7687 9.07925 12.7841 9.04722C12.7979 9.01848 12.8115 8.98997 12.8251 8.96172L12.8261 8.95949L12.8262 8.95949L12.8335 8.94464L13.0578 9.05501L13.0496 9.06945L13.0496 9.06946L12.9347 9.27262C12.8662 9.23388 12.8004 9.19095 12.7376 9.14416Z" stroke="url(#paint3_linear_1931_44840)" stroke-width="0.5"/>
</g>
<path d="M14.13 14.1684C14.13 13.9929 14.182 13.8214 14.2795 13.6755C14.377 13.5296 14.5155 13.4159 14.6776 13.3488C14.8397 13.2816 15.0181 13.2641 15.1902 13.2983C15.3622 13.3325 15.5203 13.417 15.6444 13.5411C15.7684 13.6651 15.8529 13.8232 15.8872 13.9953C15.9214 14.1674 15.9038 14.3457 15.8367 14.5078C15.7695 14.6699 15.6558 14.8085 15.5099 14.906C15.3641 15.0034 15.1925 15.0555 15.0171 15.0555C14.7819 15.0552 14.5564 14.9616 14.3901 14.7953C14.2238 14.629 14.1303 14.4035 14.13 14.1684ZM12.1023 15.6891C12.1023 15.5136 12.0503 15.3421 11.9528 15.1963C11.8554 15.0504 11.7168 14.9367 11.5547 14.8695C11.3926 14.8024 11.2142 14.7848 11.0422 14.819C10.8701 14.8533 10.712 14.9378 10.588 15.0618C10.4639 15.1859 10.3794 15.344 10.3452 15.516C10.3109 15.6881 10.3285 15.8665 10.3957 16.0286C10.4628 16.1907 10.5765 16.3292 10.7224 16.4267C10.8683 16.5242 11.0398 16.5762 11.2152 16.5762C11.4504 16.5759 11.6759 16.4824 11.8422 16.3161C12.0085 16.1498 12.1021 15.9243 12.1023 15.6891ZM12.736 15.0555C12.9114 15.0555 13.0829 15.0034 13.2288 14.906C13.3747 14.8085 13.4884 14.6699 13.5556 14.5078C13.6227 14.3457 13.6403 14.1674 13.606 13.9953C13.5718 13.8232 13.4873 13.6651 13.3633 13.5411C13.2392 13.417 13.0811 13.3325 12.909 13.2983C12.737 13.2641 12.5586 13.2816 12.3965 13.3488C12.2344 13.4159 12.0959 13.5296 11.9984 13.6755C11.9009 13.8214 11.8489 13.9929 11.8489 14.1684C11.8491 14.4035 11.9427 14.629 12.109 14.7953C12.2753 14.9616 12.5008 15.0552 12.736 15.0555ZM15.7487 16.9832C15.4892 16.8396 15.2973 16.5989 15.2151 16.3139C15.1309 16.024 14.9549 15.7694 14.7135 15.5881C14.4721 15.4069 14.1784 15.3089 13.8766 15.3089C13.5747 15.3089 13.2811 15.4069 13.0397 15.5881C12.7983 15.7693 12.6222 16.0239 12.538 16.3138C12.4561 16.5983 12.2647 16.8388 12.0057 16.9824C11.7197 17.1375 11.5043 17.3965 11.404 17.706C11.3037 18.0155 11.3263 18.3517 11.467 18.6451C11.6077 18.9384 11.8559 19.1663 12.1601 19.2818C12.4642 19.3972 12.8011 19.3913 13.101 19.2652C13.5967 19.0603 14.1532 19.0599 14.6492 19.264C14.9489 19.391 15.286 19.3978 15.5906 19.283C15.8953 19.1681 16.144 18.9405 16.2854 18.6473C16.4267 18.3541 16.4498 18.0177 16.3499 17.7079C16.25 17.3981 16.0347 17.1386 15.7487 16.9832ZM16.5378 14.802C16.3624 14.802 16.1909 14.854 16.045 14.9515C15.8991 15.049 15.7854 15.1875 15.7183 15.3496C15.6511 15.5117 15.6336 15.6901 15.6678 15.8622C15.702 16.0342 15.7865 16.1923 15.9106 16.3164C16.0346 16.4404 16.1927 16.5249 16.3648 16.5592C16.5369 16.5934 16.7152 16.5758 16.8773 16.5087C17.0394 16.4415 17.178 16.3278 17.2754 16.1819C17.3729 16.0361 17.4249 15.8646 17.4249 15.6891C17.4247 15.4539 17.3311 15.2284 17.1648 15.0621C16.9985 14.8958 16.773 14.8023 16.5378 14.802Z" fill="#F8B758"/>
<defs>
<filter id="filter0_d_1931_44840" x="0.822985" y="3.86014" width="26.065" height="23.6304" filterUnits="userSpaceOnUse" color-interpolation-filters="sRGB">
<feFlood flood-opacity="0" result="BackgroundImageFix"/>
<feColorMatrix in="SourceAlpha" type="matrix" values="0 0 0 0 0 0 0 0 0 0 0 0 0 0 0 0 0 0 127 0" result="hardAlpha"/>
<feOffset dy="1.9434"/>
<feGaussianBlur stdDeviation="1.79944"/>
<feComposite in2="hardAlpha" operator="out"/>
<feColorMatrix type="matrix" values="0 0 0 0 0.829167 0 0 0 0 0.563898 0 0 0 0 0.176198 0 0 0 0.34 0"/>
<feBlend mode="normal" in2="BackgroundImageFix" result="effect1_dropShadow_1931_44840"/>
<feBlend mode="normal" in="SourceGraphic" in2="effect1_dropShadow_1931_44840" result="shape"/>
</filter>
<linearGradient id="paint0_linear_1931_44840" x1="13.6758" y1="0" x2="13.6758" y2="27.3516" gradientUnits="userSpaceOnUse">
<stop stop-color="#F8B758"/>
<stop offset="1" stop-color="#F4CB4A"/>
</linearGradient>
<linearGradient id="paint1_linear_1931_44840" x1="13.6758" y1="23.6806" x2="13.6758" y2="27.3516" gradientUnits="userSpaceOnUse">
<stop stop-color="#F8B758" stop-opacity="0"/>
<stop offset="0.925" stop-color="#E18C0F"/>
</linearGradient>
<linearGradient id="paint2_linear_1931_44840" x1="12.2607" y1="6.01562" x2="17.2384" y2="21.9062" gradientUnits="userSpaceOnUse">
<stop stop-color="#FFF8EE"/>
<stop offset="1" stop-color="#FFF2DE"/>
</linearGradient>
<linearGradient id="paint3_linear_1931_44840" x1="13.8564" y1="6.01562" x2="13.8564" y2="21.4479" gradientUnits="userSpaceOnUse">
<stop stop-color="#F8B758"/>
<stop offset="1" stop-color="#F09E25"/>
</linearGradient>
</defs>
</svg>
