<svg width="15" height="13" viewBox="0 0 15 13" fill="none" xmlns="http://www.w3.org/2000/svg">
<path d="M10.4009 7.00807C9.45467 5.86555 8.25858 5.23633 7.03294 5.23633C5.8073 5.23633 4.61118 5.86555 3.66496 7.00807C2.81442 8.03502 2.30664 9.32928 2.30664 10.4702C2.30664 11.0244 2.47607 11.4466 2.81021 11.725C3.14002 11.9998 3.57544 12.0928 4.06121 12.0927C4.57811 12.0927 5.15206 11.9875 5.71599 11.884C6.20877 11.7936 6.67421 11.7082 7.03297 11.7082C7.3426 11.7082 7.77918 11.7893 8.2413 11.8751C9.32133 12.0756 10.5455 12.3028 11.2526 11.7149C11.5888 11.4354 11.7593 11.0166 11.7593 10.4702C11.7593 9.32928 11.2515 8.03502 10.4009 7.00807Z" fill="#FFBE17"/>
<path d="M10.4978 0.803214C10.1516 0.292745 9.65583 0 9.13762 0C8.61937 0 8.12363 0.292772 7.7774 0.803214C7.45935 1.27215 7.28418 1.88796 7.28418 2.53724C7.28418 3.18651 7.45933 3.80233 7.7774 4.27126C8.12363 4.7817 8.6194 5.07448 9.13762 5.07448C9.65586 5.07448 10.1516 4.7817 10.4978 4.27126C10.8159 3.80233 10.991 3.18651 10.991 2.53724C10.991 1.88796 10.8159 1.27212 10.4978 0.803214Z" fill="#FFBE17"/>
<path d="M6.28787 0.803214C5.94164 0.292744 5.4459 0 4.92765 0C4.40941 0 3.91364 0.292772 3.56744 0.803214C3.24939 1.27215 3.07422 1.88796 3.07422 2.53724C3.07422 3.18651 3.24937 3.80233 3.56744 4.27126C3.91367 4.78173 4.40941 5.0745 4.92765 5.0745C5.4459 5.0745 5.94164 4.78173 6.28787 4.27126C6.60591 3.80233 6.78109 3.18654 6.78109 2.53724C6.78106 1.88796 6.60591 1.27212 6.28787 0.803214Z" fill="#FFBE17"/>
<path d="M13.9835 4.78624C13.844 4.31145 13.5448 3.96646 13.1412 3.81486C12.8164 3.69286 12.4497 3.71355 12.1088 3.87312C11.6389 4.09299 11.2549 4.54701 11.0552 5.11873C10.892 5.58594 10.8716 6.07976 10.9979 6.5093C11.1375 6.98409 11.4366 7.32908 11.8403 7.48069C11.98 7.53316 12.1273 7.55922 12.2771 7.55922C12.4756 7.55922 12.6783 7.51338 12.8727 7.42242C13.3426 7.20256 13.7266 6.74854 13.9263 6.17684V6.17681C14.0895 5.70963 14.1098 5.21578 13.9835 4.78624Z" fill="#FFBE17"/>
<path d="M3.0103 5.11869C2.81057 4.54697 2.42652 4.09298 1.95667 3.87311C1.61569 3.71354 1.24903 3.69288 0.924252 3.81485C0.520613 3.96648 0.22144 4.31147 0.0818668 4.78623C-0.0444114 5.21577 -0.0240564 5.70962 0.139141 6.1768V6.17683C0.338901 6.74855 0.722927 7.20254 1.19277 7.42241C1.38714 7.51336 1.58984 7.55921 1.78837 7.55921C1.93813 7.55921 2.08553 7.53312 2.22519 7.48068C2.62888 7.32904 2.92803 6.98405 3.0676 6.50929C3.19383 6.07978 3.17347 5.58593 3.0103 5.11869Z" fill="#FFBE17"/>
</svg>
