<svg width="20" height="17" viewBox="0 0 20 17" fill="none" xmlns="http://www.w3.org/2000/svg">
<path fill-rule="evenodd" clip-rule="evenodd" d="M14 3.27366C14 4.22037 13.4516 5.52202 12.642 6.54732C11.9055 7.48007 10.9527 8.18415 10 8.18415C9.0473 8.18415 8.0945 7.48007 7.35797 6.54732C6.54837 5.52202 6 4.22037 6 3.27366C6 1.46567 7.79086 0 10 0C12.2091 0 14 1.46567 14 3.27366ZM11.5 3.27366C11.5 3.95166 10.8284 4.50128 10 4.50128C9.1716 4.50128 8.5 3.95166 8.5 3.27366C8.5 2.59566 9.1716 2.04604 10 2.04604C10.8284 2.04604 11.5 2.59566 11.5 3.27366ZM4 4.91049H4.81429C5.09997 5.71805 5.55854 6.53027 6.09814 7.21359C6.52578 7.75522 7.05118 8.27712 7.66396 8.67618C8.2689 9.07009 9.0665 9.41177 10 9.41177C10.9335 9.41177 11.7311 9.07009 12.336 8.67618C12.9488 8.27712 13.4742 7.75522 13.9019 7.21359C14.4415 6.53027 14.9 5.71805 15.1857 4.91049H16C18.2091 4.91049 20 6.37616 20 8.18415V13.0946C20 14.9026 18.2091 16.3683 16 16.3683H4C1.79086 16.3683 0 14.9026 0 13.0946V8.18415C0 6.37616 1.79086 4.91049 4 4.91049ZM10.5 10.0256C10.9142 10.0256 11.25 10.3004 11.25 10.6394C11.25 10.9784 10.9142 11.2532 10.5 11.2532H9.5C9.0858 11.2532 8.75 10.9784 8.75 10.6394C8.75 10.3004 9.0858 10.0256 9.5 10.0256H10.5ZM16.75 10.6394C16.75 10.3004 16.4142 10.0256 16 10.0256H15C14.5858 10.0256 14.25 10.3004 14.25 10.6394C14.25 10.9784 14.5858 11.2532 15 11.2532H16C16.4142 11.2532 16.75 10.9784 16.75 10.6394ZM5 10.0256C5.41421 10.0256 5.75 10.3004 5.75 10.6394C5.75 10.9784 5.41421 11.2532 5 11.2532H4C3.58579 11.2532 3.25 10.9784 3.25 10.6394C3.25 10.3004 3.58579 10.0256 4 10.0256H5Z" fill="#BE230E"/>
</svg>
