<svg width="25" height="20" viewBox="0 0 25 20" fill="none" xmlns="http://www.w3.org/2000/svg">
<path d="M18.0455 11.5822C16.488 9.70169 14.5193 8.66602 12.5019 8.66602C10.4846 8.66602 8.51583 9.70169 6.95839 11.5822C5.55844 13.2725 4.72266 15.4028 4.72266 17.2808C4.72266 18.193 5.00154 18.8878 5.55152 19.3461C6.09436 19.7984 6.81104 19.9514 7.6106 19.9514C8.46139 19.9514 9.40609 19.7781 10.3343 19.6078C11.1454 19.459 11.9115 19.3185 12.502 19.3185C13.0116 19.3185 13.7302 19.4519 14.4909 19.5931C16.2685 19.9232 18.2834 20.2972 19.4474 19.3294C20.0007 18.8693 20.2813 18.1801 20.2813 17.2808C20.2813 15.4028 19.4455 13.2725 18.0455 11.5822Z" fill="#FFBE17"/>
<path d="M18.2036 1.37088C17.6337 0.530673 16.8177 0.0488281 15.9647 0.0488281C15.1117 0.0488281 14.2958 0.530718 13.7259 1.37088C13.2024 2.14273 12.9141 3.15634 12.9141 4.22501C12.9141 5.29369 13.2023 6.30729 13.7259 7.07914C14.2958 7.91931 15.1118 8.4012 15.9647 8.4012C16.8177 8.4012 17.6337 7.91931 18.2036 7.07914C18.7271 6.30729 19.0154 5.29369 19.0154 4.22501C19.0154 3.15634 18.7271 2.14269 18.2036 1.37088Z" fill="#FFBE17"/>
<path d="M11.2778 1.37088C10.7079 0.530673 9.89196 0.0488281 9.03895 0.0488281C8.18595 0.0488281 7.36993 0.530718 6.8001 1.37088C6.27661 2.14273 5.98828 3.15634 5.98828 4.22501C5.98828 5.29369 6.27657 6.30729 6.8001 7.07914C7.36997 7.91935 8.18595 8.40124 9.03895 8.40124C9.89196 8.40124 10.7079 7.91935 11.2778 7.07914C11.8013 6.30729 12.0896 5.29373 12.0896 4.22501C12.0896 3.15634 11.8013 2.14268 11.2778 1.37088Z" fill="#FFBE17"/>
<path d="M23.9396 7.92538C23.7099 7.1439 23.2175 6.57606 22.5531 6.32652C22.0185 6.12573 21.4151 6.15977 20.8539 6.42242C20.0805 6.78431 19.4484 7.53161 19.1196 8.47265C18.851 9.24164 18.8175 10.0545 19.0254 10.7615C19.2551 11.5429 19.7475 12.1108 20.4119 12.3603C20.6418 12.4467 20.8844 12.4896 21.1309 12.4896C21.4577 12.4896 21.7913 12.4141 22.1112 12.2644C22.8846 11.9025 23.5167 11.1552 23.8454 10.2142V10.2142C24.114 9.44524 24.1475 8.63239 23.9396 7.92538Z" fill="#FFBE17"/>
<path d="M5.88061 8.47258C5.55186 7.53154 4.91972 6.78429 4.14638 6.4224C3.58514 6.15975 2.98162 6.12575 2.44706 6.3265C1.78269 6.57608 1.29026 7.14392 1.06053 7.92536C0.852682 8.63237 0.886186 9.44522 1.1548 10.2142V10.2142C1.4836 11.1553 2.11569 11.9025 2.88903 12.2644C3.20896 12.4141 3.54259 12.4896 3.86935 12.4896C4.11586 12.4896 4.35848 12.4466 4.58835 12.3603C5.25281 12.1107 5.74519 11.5429 5.97492 10.7614C6.18268 10.0545 6.14918 9.24162 5.88061 8.47258Z" fill="#FFBE17"/>
</svg>
