<svg width="24" height="20" viewBox="0 0 24 20" fill="none" xmlns="http://www.w3.org/2000/svg">
<path d="M17.194 11.5822C15.6364 9.70169 13.6677 8.66602 11.6504 8.66602C9.63302 8.66602 7.66427 9.70169 6.10683 11.5822C4.70687 13.2725 3.87109 15.4028 3.87109 17.2808C3.87109 18.193 4.14997 18.8878 4.69996 19.3461C5.24279 19.7984 5.95948 19.9514 6.75904 19.9514C7.60983 19.9514 8.55453 19.7781 9.48273 19.6078C10.2938 19.459 11.0599 19.3185 11.6504 19.3185C12.1601 19.3185 12.8787 19.4519 13.6393 19.5931C15.417 19.9232 17.4319 20.2972 18.5958 19.3294C19.1491 18.8693 19.4297 18.1801 19.4297 17.2808C19.4297 15.4028 18.594 13.2725 17.194 11.5822Z" fill="#F0F0F0"/>
<path d="M17.352 1.37088C16.7822 0.530673 15.9661 0.0488281 15.1132 0.0488281C14.2602 0.0488281 13.4442 0.530718 12.8743 1.37088C12.3508 2.14273 12.0625 3.15634 12.0625 4.22501C12.0625 5.29369 12.3508 6.30729 12.8743 7.07914C13.4442 7.91931 14.2602 8.4012 15.1132 8.4012C15.9662 8.4012 16.7822 7.91931 17.352 7.07914C17.8755 6.30729 18.1638 5.29369 18.1638 4.22501C18.1638 3.15634 17.8756 2.14269 17.352 1.37088Z" fill="#F0F0F0"/>
<path d="M10.4262 1.37088C9.85637 0.530673 9.0404 0.0488281 8.18739 0.0488281C7.33439 0.0488281 6.51837 0.530718 5.94853 1.37088C5.42505 2.14273 5.13672 3.15634 5.13672 4.22501C5.13672 5.29369 5.425 6.30729 5.94853 7.07914C6.51841 7.91935 7.33439 8.40124 8.18739 8.40124C9.0404 8.40124 9.85637 7.91935 10.4262 7.07914C10.9497 6.30729 11.2381 5.29373 11.2381 4.22501C11.238 3.15634 10.9497 2.14268 10.4262 1.37088Z" fill="#F0F0F0"/>
<path d="M23.0881 7.92538C22.8583 7.1439 22.3659 6.57606 21.7016 6.32652C21.167 6.12573 20.5635 6.15977 20.0023 6.42242C19.2289 6.78431 18.5968 7.53161 18.2681 8.47265C17.9995 9.24164 17.966 10.0545 18.1738 10.7615C18.4035 11.5429 18.896 12.1108 19.5603 12.3603C19.7903 12.4467 20.0328 12.4896 20.2793 12.4896C20.6061 12.4896 20.9398 12.4141 21.2597 12.2644C22.033 11.9025 22.6652 11.1552 22.9939 10.2142V10.2142C23.2625 9.44524 23.296 8.63239 23.0881 7.92538Z" fill="#F0F0F0"/>
<path d="M5.02904 8.47258C4.70029 7.53154 4.06816 6.78429 3.29482 6.4224C2.73358 6.15975 2.13006 6.12575 1.5955 6.3265C0.931125 6.57608 0.4387 7.14392 0.208968 7.92536C0.00111948 8.63237 0.034623 9.44522 0.303239 10.2142V10.2142C0.632034 11.1553 1.26413 11.9025 2.03746 12.2644C2.3574 12.4141 2.69103 12.4896 3.01779 12.4896C3.2643 12.4896 3.50692 12.4466 3.73678 12.3603C4.40125 12.1107 4.89363 11.5429 5.12336 10.7614C5.33112 10.0545 5.29761 9.24162 5.02904 8.47258Z" fill="#F0F0F0"/>
</svg>
