<svg width="24" height="24" viewBox="0 0 24 24" fill="none" xmlns="http://www.w3.org/2000/svg">
<path d="M17.1183 13.5332C15.5608 11.6527 13.5921 10.617 11.5748 10.617C9.5574 10.617 7.58865 11.6527 6.03121 13.5332C4.63125 15.2235 3.79547 17.3538 3.79547 19.2317C3.79547 20.144 4.07435 20.8388 4.62433 21.2971C5.16717 21.7494 5.88386 21.9024 6.68342 21.9023C7.53421 21.9023 8.47891 21.7291 9.40711 21.5588C10.2182 21.41 10.9843 21.2695 11.5748 21.2695C12.0844 21.2695 12.803 21.4029 13.5637 21.5441C15.3413 21.8741 17.3563 22.2481 18.5202 21.2804C19.0735 20.8203 19.3541 20.131 19.3541 19.2317C19.3541 17.3538 18.5183 15.2235 17.1183 13.5332Z" fill="#F0F0F0"/>
<path d="M17.2776 3.32205C16.7077 2.48184 15.8917 1.99999 15.0387 1.99999C14.1857 1.99999 13.3697 2.48188 12.7999 3.32205C12.2764 4.09389 11.988 5.1075 11.988 6.17618C11.988 7.24485 12.2763 8.25846 12.7999 9.0303C13.3697 9.87047 14.1858 10.3524 15.0387 10.3524C15.8917 10.3524 16.7077 9.87047 17.2776 9.0303C17.8011 8.25846 18.0894 7.24485 18.0894 6.17618C18.0894 5.1075 17.8011 4.09385 17.2776 3.32205Z" fill="#F0F0F0"/>
<path d="M10.3497 3.32205C9.77984 2.48184 8.96386 1.99999 8.11085 1.99999C7.25785 1.99999 6.44183 2.48188 5.872 3.32205C5.34851 4.09389 5.06018 5.1075 5.06018 6.17618C5.06018 7.24485 5.34846 8.25846 5.872 9.0303C6.44187 9.87051 7.25785 10.3524 8.11085 10.3524C8.96386 10.3524 9.77984 9.87051 10.3497 9.0303C10.8732 8.25846 11.1615 7.2449 11.1615 6.17618C11.1615 5.1075 10.8732 4.09385 10.3497 3.32205Z" fill="#F0F0F0"/>
<path d="M23.0146 9.87738C22.7849 9.0959 22.2925 8.52806 21.6282 8.27852C21.0935 8.07773 20.4901 8.11178 19.9289 8.37442C19.1555 8.73632 18.5234 9.48361 18.1947 10.4246C17.926 11.1936 17.8925 12.0065 18.1004 12.7135C18.3301 13.4949 18.8225 14.0628 19.4869 14.3123C19.7168 14.3987 19.9594 14.4416 20.2059 14.4416C20.5327 14.4416 20.8663 14.3661 21.1862 14.2164C21.9596 13.8545 22.5918 13.1072 22.9205 12.1662V12.1662C23.189 11.3972 23.2225 10.5844 23.0146 9.87738Z" fill="#F0F0F0"/>
<path d="M4.95482 10.4246C4.62607 9.48355 3.99394 8.7363 3.2206 8.3744C2.65936 8.11176 2.05584 8.07776 1.52128 8.27851C0.856906 8.52809 0.364481 9.09593 0.134749 9.87736C-0.0730993 10.5844 -0.0395957 11.3972 0.22902 12.1662V12.1662C0.557816 13.1073 1.18991 13.8545 1.96325 14.2164C2.28318 14.3661 2.61681 14.4416 2.94357 14.4416C3.19008 14.4416 3.4327 14.3986 3.66257 14.3123C4.32703 14.0627 4.81941 13.4949 5.04914 12.7134C5.2569 12.0065 5.22339 11.1936 4.95482 10.4246Z" fill="#F0F0F0"/>
<mask id="mask0_11_55" style="mask-type:alpha" maskUnits="userSpaceOnUse" x="0" y="0" width="12" height="24">
<rect width="12" height="24" fill="#D9D9D9"/>
</mask>
<g mask="url(#mask0_11_55)">
<path d="M17.1183 13.5332C15.5608 11.6527 13.5921 10.617 11.5748 10.617C9.5574 10.617 7.58865 11.6527 6.03121 13.5332C4.63125 15.2235 3.79547 17.3538 3.79547 19.2317C3.79547 20.144 4.07435 20.8388 4.62433 21.2971C5.16717 21.7494 5.88386 21.9024 6.68342 21.9023C7.53421 21.9023 8.47891 21.7291 9.40711 21.5588C10.2182 21.41 10.9843 21.2695 11.5748 21.2695C12.0844 21.2695 12.803 21.4029 13.5637 21.5441C15.3413 21.8741 17.3563 22.2481 18.5202 21.2804C19.0735 20.8203 19.3541 20.131 19.3541 19.2317C19.3541 17.3538 18.5183 15.2235 17.1183 13.5332Z" fill="#FFBE17"/>
<path d="M17.2776 3.32205C16.7077 2.48184 15.8917 1.99999 15.0387 1.99999C14.1857 1.99999 13.3697 2.48188 12.7999 3.32205C12.2764 4.09389 11.988 5.1075 11.988 6.17618C11.988 7.24485 12.2763 8.25846 12.7999 9.0303C13.3697 9.87047 14.1858 10.3524 15.0387 10.3524C15.8917 10.3524 16.7077 9.87047 17.2776 9.0303C17.8011 8.25846 18.0894 7.24485 18.0894 6.17618C18.0894 5.1075 17.8011 4.09385 17.2776 3.32205Z" fill="#FFBE17"/>
<path d="M10.3497 3.32205C9.77984 2.48184 8.96386 1.99999 8.11085 1.99999C7.25785 1.99999 6.44183 2.48188 5.872 3.32205C5.34851 4.09389 5.06018 5.1075 5.06018 6.17618C5.06018 7.24485 5.34846 8.25846 5.872 9.0303C6.44187 9.87051 7.25785 10.3524 8.11085 10.3524C8.96386 10.3524 9.77984 9.87051 10.3497 9.0303C10.8732 8.25846 11.1615 7.2449 11.1615 6.17618C11.1615 5.1075 10.8732 4.09385 10.3497 3.32205Z" fill="#FFBE17"/>
<path d="M4.95482 10.4246C4.62607 9.48355 3.99394 8.7363 3.2206 8.3744C2.65936 8.11176 2.05584 8.07776 1.52128 8.27851C0.856906 8.52809 0.364481 9.09593 0.134749 9.87736C-0.0730993 10.5844 -0.0395957 11.3972 0.22902 12.1662V12.1662C0.557816 13.1073 1.18991 13.8545 1.96325 14.2164C2.28318 14.3661 2.61681 14.4416 2.94357 14.4416C3.19008 14.4416 3.4327 14.3986 3.66257 14.3123C4.32703 14.0627 4.81941 13.4949 5.04914 12.7134C5.2569 12.0065 5.22339 11.1936 4.95482 10.4246Z" fill="#FFBE17"/>
</g>
</svg>
