<svg width="18" height="18" viewBox="0 0 18 18" fill="none" xmlns="http://www.w3.org/2000/svg">
<path d="M14.6661 10.8883C14.1657 10.8901 13.6728 11.0105 13.2278 11.2397C12.783 11.4689 12.3988 11.8002 12.1068 12.2066L6.93929 9.66774C7.04 9.35185 7.09269 9.02268 7.09558 8.69126C7.09269 8.35975 7.04 8.03057 6.93929 7.71478L12.1068 5.17589C12.5524 5.7802 13.1991 6.2058 13.9305 6.37617C14.6619 6.54655 15.4301 6.45053 16.0971 6.10539C16.7641 5.76025 17.286 5.18861 17.569 4.49323C17.8521 3.79786 17.8778 3.02436 17.6414 2.31176C17.405 1.59918 16.9221 0.994229 16.2796 0.605677C15.6369 0.217135 14.8767 0.0704582 14.1356 0.19202C13.3945 0.313592 12.7211 0.695425 12.2364 1.26889C11.7517 1.84236 11.4876 2.56985 11.4914 3.32058C11.4937 3.48442 11.51 3.64777 11.5402 3.80882L6.19688 6.49414C5.90443 6.18451 5.55156 5.93809 5.16008 5.77014C4.76861 5.60219 4.34684 5.51626 3.92084 5.51766C3.07885 5.51766 2.27134 5.85202 1.67595 6.44718C1.08057 7.04238 0.746094 7.84953 0.746094 8.69126C0.746094 9.53289 1.08057 10.3401 1.67595 10.9353C2.27134 11.5305 3.07885 11.8648 3.92084 11.8648C4.34684 11.8662 4.76861 11.7803 5.16008 11.6123C5.55156 11.4444 5.90443 11.198 6.19688 10.8883L11.5402 13.5737C11.5094 13.7379 11.4931 13.9045 11.4914 14.0717C11.4914 14.6994 11.6776 15.3129 12.0264 15.8348C12.3752 16.3566 12.8711 16.7634 13.4512 17.0037C14.0313 17.2439 14.6696 17.3067 15.2854 17.1842C15.9013 17.0618 16.467 16.7595 16.911 16.3157C17.355 15.8718 17.6573 15.3063 17.7799 14.6908C17.9024 14.0752 17.8395 13.4371 17.5992 12.8571C17.3589 12.2773 16.952 11.7816 16.4299 11.4329C15.9078 11.0842 15.294 10.8981 14.6661 10.8981V10.8883ZM14.6661 1.61174C15.0042 1.61174 15.3348 1.71196 15.6158 1.89973C15.8969 2.0875 16.1161 2.35439 16.2455 2.66664C16.3748 2.97889 16.4087 3.32248 16.3428 3.65396C16.2767 3.98544 16.114 4.28993 15.8749 4.52891C15.6358 4.7679 15.3313 4.93065 14.9996 4.99659C14.668 5.06252 14.3243 5.02869 14.0119 4.89934C13.6995 4.77001 13.4326 4.55098 13.2447 4.26996C13.0569 3.98895 12.9566 3.65856 12.9566 3.32058C12.9592 2.86815 13.1401 2.435 13.4602 2.11508C13.7802 1.79517 14.2135 1.6143 14.6661 1.61174ZM3.92084 10.4001C3.58273 10.4001 3.25223 10.2998 2.9711 10.112C2.68998 9.92426 2.47087 9.65739 2.34149 9.34521C2.2121 9.03293 2.17824 8.68931 2.24421 8.35789C2.31017 8.02637 2.47298 7.72191 2.71205 7.48287C2.95113 7.24392 3.25572 7.08114 3.58733 7.01523C3.91894 6.94932 4.26266 6.9831 4.57503 7.11249C4.88739 7.24177 5.15438 7.4608 5.34221 7.74183C5.53005 8.02286 5.63031 8.3532 5.63031 8.69126C5.62775 9.14366 5.44682 9.57683 5.12679 9.89673C4.80675 10.2166 4.37343 10.3975 3.92084 10.4001ZM14.6661 15.7707C14.328 15.7707 13.9975 15.6705 13.7164 15.4827C13.4353 15.2949 13.2162 15.028 13.0868 14.7159C12.9574 14.4036 12.9235 14.06 12.9895 13.7285C13.0554 13.397 13.2182 13.0926 13.4574 12.8535C13.6964 12.6146 14.001 12.4518 14.3326 12.3859C14.6643 12.32 15.0079 12.3537 15.3203 12.4831C15.6327 12.6124 15.8997 12.8314 16.0875 13.1125C16.2754 13.3935 16.3756 13.7238 16.3756 14.0619C16.3731 14.5143 16.1921 14.9475 15.872 15.2674C15.552 15.5873 15.1187 15.7681 14.6661 15.7707Z" fill="#777777"/>
</svg>
