<svg width="12" height="11" viewBox="0 0 12 11" fill="none" xmlns="http://www.w3.org/2000/svg">
<path fill-rule="evenodd" clip-rule="evenodd" d="M8.77895 0.418965C8.95763 0.359413 9.15433 0.420861 9.26732 0.571513L11.0173 2.90485C11.1623 3.09815 11.1231 3.37237 10.9298 3.51735C10.7365 3.66232 10.4623 3.62315 10.3173 3.42985L9.35482 2.14651V10.1673C9.35482 10.409 9.15893 10.6048 8.91732 10.6048C8.6757 10.6048 8.47982 10.409 8.47982 10.1673V0.834013C8.47982 0.645701 8.60034 0.478512 8.77895 0.418965ZM0.896484 3.16735C0.896484 2.92572 1.09236 2.72985 1.33398 2.72985H6.58398C6.8256 2.72985 7.02148 2.92572 7.02148 3.16735C7.02148 3.40897 6.8256 3.60485 6.58398 3.60485H1.33398C1.09236 3.60485 0.896484 3.40897 0.896484 3.16735ZM2.06315 6.08398C2.06315 5.84237 2.25903 5.64648 2.50065 5.64648H6.58398C6.8256 5.64648 7.02148 5.84237 7.02148 6.08398C7.02148 6.32566 6.8256 6.52148 6.58398 6.52148H2.50065C2.25903 6.52148 2.06315 6.32566 2.06315 6.08398ZM3.22982 9.00065C3.22982 8.75903 3.4257 8.56315 3.66732 8.56315H6.58398C6.8256 8.56315 7.02148 8.75903 7.02148 9.00065C7.02148 9.24232 6.8256 9.43815 6.58398 9.43815H3.66732C3.4257 9.43815 3.22982 9.24232 3.22982 9.00065Z" fill="#1C274C"/>
</svg>
