<svg width="39" height="40" viewBox="0 0 39 40" fill="none" xmlns="http://www.w3.org/2000/svg">
<path opacity="0.6" d="M33.9566 36.0488C36.6907 34.558 38.3333 32.6465 38.3333 30.5625C38.3333 28.3535 36.488 26.3384 33.4529 24.8125C29.9433 23.048 24.8433 21.9375 19.1667 21.9375C13.4901 21.9375 8.38998 23.048 4.88043 24.8125C1.84546 26.3384 0 28.3535 0 30.5625C0 32.7715 1.84546 34.7866 4.88043 36.3125C8.38998 38.077 13.4901 39.1875 19.1667 39.1875C25.121 39.1875 30.4411 37.9656 33.9566 36.0488Z" fill="#A7F7DB"/>
<path d="M33.2229 13.5966C33.0471 12.9324 32.366 12.5364 31.7019 12.7122C31.5926 12.7446 30.9122 12.926 30.176 13.5525C29.8107 13.8659 29.4358 14.2996 29.1587 14.8681C28.8805 15.4359 28.7085 16.1324 28.7101 16.9208C28.7109 17.8785 28.9523 18.9655 29.4977 20.2171C29.8658 21.0611 30.0335 21.9572 30.0335 22.8448C30.0371 24.3464 29.5391 25.8188 28.7959 26.8458C28.427 27.3601 28.0022 27.7602 27.5762 28.019C27.4013 28.125 27.228 28.2024 27.0555 28.2639L27.1134 27.9209C27.1102 26.9231 26.8761 25.8795 26.3505 24.9603C24.689 22.0515 22.4702 17.0653 22.4702 17.0653L22.3807 16.7794C24.1075 16.3226 25.8131 15.4079 26.6668 13.5577C28.9479 8.61564 24.2597 5.19458 24.2597 5.19458C24.2597 5.19458 22.7387 1.90032 21.979 2.027C21.2186 2.1538 19.5712 4.30812 19.5712 4.30812H18.1773H16.7835C16.7835 4.30812 15.1366 2.1538 14.3765 2.027C13.616 1.90026 12.0958 5.19458 12.0958 5.19458C12.0958 5.19458 7.40722 8.61564 9.68834 13.5577C10.4982 15.3127 12.0755 16.2279 13.7099 16.707L13.537 17.2731C13.537 17.2731 11.6673 22.0515 10.005 24.9603C8.34302 27.8687 9.5899 32.0235 11.875 32.0235C13.6018 32.0235 16.5121 32.0235 17.8335 32.0235C18.2608 32.0235 18.5228 32.0235 18.5228 32.0235C19.8437 32.0235 22.7545 32.0235 24.4812 32.0235C25.2227 32.0235 25.8511 31.5813 26.3096 30.8912C27.2369 30.8905 28.1148 30.6058 28.8705 30.1437C30.0105 29.4455 30.9042 28.3671 31.5327 27.1029C32.1587 25.8362 32.5203 24.3703 32.5216 22.8448C32.5216 21.6445 32.294 20.4062 31.7785 19.2229C31.3355 18.2069 31.1974 17.4525 31.1982 16.9208C31.1999 16.4798 31.2861 16.1858 31.395 15.959C31.4781 15.7897 31.5781 15.6561 31.687 15.5435C31.8494 15.3755 32.0365 15.2576 32.1762 15.1888C32.2455 15.1539 32.3013 15.1321 32.3329 15.1207L32.3592 15.1118L32.3588 15.1102C33.0099 14.9252 33.3966 14.2534 33.2229 13.5966Z" fill="url(#paint0_linear_2141_66534)"/>
<circle cx="30" cy="3" r="3" fill="#4BDBAA"/>
<defs>
<linearGradient id="paint0_linear_2141_66534" x1="21.1635" y1="2.02344" x2="21.1635" y2="32.0235" gradientUnits="userSpaceOnUse">
<stop stop-color="#51DCAC"/>
<stop offset="1" stop-color="#13D18E"/>
</linearGradient>
</defs>
</svg>
