<svg width="24" height="39" viewBox="0 0 24 39" fill="none" xmlns="http://www.w3.org/2000/svg">
<path fill-rule="evenodd" clip-rule="evenodd" d="M20.6119 18.7066C19.713 19.8401 18.065 21.6533 16.4782 23.3523C18.9028 23.4144 20.8563 25.4044 20.8562 27.8435C20.8562 30.3217 18.8401 32.3378 16.3618 32.3378H6.73881C5.54336 32.3378 4.5709 33.3104 4.5709 34.5058C4.5709 35.7011 5.54348 36.6735 6.73881 36.6735H10.387C11.0295 36.6735 11.5503 37.1943 11.5503 37.8368C11.5503 38.4792 11.0295 39 10.387 39H6.73881C4.26055 39 2.24445 36.9839 2.24445 34.5058C2.24445 32.0275 4.26055 30.0114 6.73881 30.0114H16.3618C17.5573 30.0114 18.5298 29.0388 18.5298 27.8435C18.5298 26.6482 17.5572 25.6757 16.3618 25.6757H14.2834C13.2358 26.7737 12.4714 27.5605 12.3845 27.6498L11.5505 28.5076L10.7165 27.6498C10.4651 27.3913 4.53752 21.289 2.49105 18.7087C0.861369 16.6539 0 14.1787 0 11.5505C0 5.18148 5.18148 0 11.5505 0C17.9195 0 23.101 5.18148 23.1008 11.5505C23.1008 14.1789 22.2402 16.6535 20.6119 18.7066Z" fill="url(#paint0_linear_2141_66541)"/>
<path fill-rule="evenodd" clip-rule="evenodd" d="M4.53906 11.4294C4.53906 7.56538 7.68257 4.42188 11.5466 4.42188C15.4104 4.42188 18.5541 7.5655 18.5541 11.4294C18.5541 15.2933 15.4106 18.4368 11.5466 18.4368C7.68257 18.4368 4.53906 15.2933 4.53906 11.4294Z" fill="url(#paint1_linear_2141_66541)"/>
<path d="M9.1971 15.4917C9.88435 15.843 10.6556 16.0262 11.4269 16.0415C11.465 16.0415 11.5109 16.0415 11.549 16.0415C12.3279 16.0415 13.0992 15.8735 13.8017 15.5375C14.4431 15.232 15.0235 14.7739 15.4512 14.2012C15.9398 13.5444 16.1918 12.7579 16.1918 11.9408C16.1918 11.4215 16.1918 10.9099 16.1918 10.3906C16.1918 9.82556 16.1918 9.26812 16.1918 8.70305C16.1918 8.50451 16.1918 8.30597 16.1918 8.11506C16.1918 7.75616 15.833 7.51944 15.5046 7.64926L13.7635 8.37469C13.649 8.42051 13.5192 8.42814 13.4046 8.38233C12.8395 8.16088 12.2134 8.04634 11.549 8.04634C10.8847 8.04634 10.2585 8.16852 9.69345 8.38233C9.5789 8.42814 9.44909 8.42051 9.33455 8.37469L7.5935 7.67224C7.26515 7.53479 6.90625 7.77915 6.90625 8.13805C6.90625 8.40531 6.90625 8.68021 6.90625 8.94748C6.90625 9.50492 6.90625 10.0624 6.90625 10.6274C6.90625 11.1009 6.90625 11.5667 6.90625 12.0401C6.90625 12.7961 7.15061 13.5292 7.58587 14.1401C7.99822 14.7128 8.5633 15.1709 9.1971 15.4917ZM13.2443 11.9561C13.6642 11.9561 14.0079 12.2998 14.0079 12.7197C14.0079 13.1397 13.6642 13.4834 13.2443 13.4834C12.8243 13.4834 12.4806 13.1397 12.4806 12.7197C12.4806 12.2922 12.8243 11.9561 13.2443 11.9561ZM9.85381 11.9561C10.2738 11.9561 10.6174 12.2998 10.6174 12.7197C10.6174 13.1397 10.2738 13.4834 9.85381 13.4834C9.43382 13.4834 9.09019 13.1397 9.09019 12.7197C9.09019 12.2922 9.43382 11.9561 9.85381 11.9561Z" fill="url(#paint2_linear_2141_66541)"/>
<defs>
<linearGradient id="paint0_linear_2141_66541" x1="11.5504" y1="0" x2="11.5504" y2="39" gradientUnits="userSpaceOnUse">
<stop stop-color="#9680FF"/>
<stop offset="1" stop-color="#6F50FF"/>
</linearGradient>
<linearGradient id="paint1_linear_2141_66541" x1="11.5466" y1="4.42188" x2="14.796" y2="20.8954" gradientUnits="userSpaceOnUse">
<stop stop-color="#FFF9FA"/>
<stop offset="0.0001" stop-color="#F5F3FF"/>
<stop offset="1" stop-color="#EDE9FF"/>
</linearGradient>
<linearGradient id="paint2_linear_2141_66541" x1="11.549" y1="7.61328" x2="11.549" y2="16.0415" gradientUnits="userSpaceOnUse">
<stop stop-color="#9680FF"/>
<stop offset="1" stop-color="#6F50FF"/>
</linearGradient>
</defs>
</svg>
